<svg width="101" height="64" viewBox="0 0 101 64" fill="none" xmlns="http://www.w3.org/2000/svg">
<rect x="0.333496" width="100.667" height="64" rx="3" fill="#F2F3FA"/>
<rect x="10.3335" y="15" width="17.1667" height="20" rx="2.5" fill="#CCD0D5"/>
<rect x="10.3335" y="41" width="17.1667" height="2" rx="1" fill="#CCD0D5"/>
<rect x="10.3335" y="47" width="17.1667" height="2" rx="1" fill="#CCD0D5"/>
<rect x="31.5" y="15" width="17.1667" height="20" rx="2.5" fill="#CCD0D5"/>
<rect x="31.5" y="41" width="17.1667" height="2" rx="1" fill="#CCD0D5"/>
<rect x="31.5" y="47" width="17.1667" height="2" rx="1" fill="#CCD0D5"/>
<rect x="52.667" y="15" width="17.1667" height="20" rx="2.5" fill="#CCD0D5"/>
<rect x="52.667" y="41" width="17.1667" height="2" rx="1" fill="#CCD0D5"/>
<rect x="52.667" y="47" width="17.1667" height="2" rx="1" fill="#CCD0D5"/>
<rect x="73.8335" y="15" width="17.1667" height="20" rx="2.5" fill="#CCD0D5"/>
<rect x="73.8335" y="41" width="17.1667" height="2" rx="1" fill="#CCD0D5"/>
<rect x="73.8335" y="47" width="17.1667" height="2" rx="1" fill="#CCD0D5"/>
</svg>
