<svg width="28" height="28" viewBox="0 0 28 28" fill="none" xmlns="http://www.w3.org/2000/svg">
<g opacity="0.8">
<path d="M14.0006 6C14.0877 6.00001 14.1723 6.02852 14.2418 6.08105C14.3112 6.13375 14.3618 6.20805 14.3853 6.29199L15.651 11.2002C15.7224 11.4768 15.866 11.7296 16.0679 11.9316C16.2701 12.1338 16.5235 12.2782 16.8004 12.3496L21.7076 13.6143C21.792 13.6375 21.8665 13.6882 21.9195 13.7578C21.9726 13.8275 22.0015 13.9125 22.0015 14L21.9967 14.0654C21.9861 14.1294 21.9592 14.19 21.9195 14.2422C21.8665 14.3118 21.792 14.3625 21.7076 14.3857L16.8004 15.6504L16.5972 15.7178C16.4 15.798 16.2195 15.9168 16.0679 16.0684L15.9283 16.2285C15.7989 16.3979 15.7046 16.5921 15.651 16.7998L14.3853 21.708L14.3619 21.7686C14.3345 21.8273 14.2939 21.8794 14.2418 21.9189L14.1871 21.9541C14.1297 21.9845 14.0651 22 13.9996 22L13.9351 21.9951C13.8925 21.9882 13.8512 21.9742 13.8131 21.9541L13.7584 21.9189C13.6889 21.8662 13.6384 21.792 13.6148 21.708L12.3502 16.7998C12.2966 16.5921 12.2021 16.3979 12.0728 16.2285L11.9322 16.0684C11.7806 15.9168 11.6002 15.798 11.4029 15.7178L11.1998 15.6504L6.29254 14.3848C6.22963 14.3669 6.17239 14.3338 6.12555 14.2891L6.08258 14.2412C6.0301 14.1718 6.00153 14.087 6.00153 14C6.00153 13.913 6.0301 13.8282 6.08258 13.7588C6.13505 13.6894 6.20886 13.639 6.29254 13.6152L11.1998 12.3486C11.4074 12.2951 11.6017 12.2005 11.7711 12.0713L11.9312 11.9316C12.1334 11.7296 12.2786 11.4769 12.3502 11.2002L13.6158 6.29199C13.6393 6.20811 13.689 6.13374 13.7584 6.08105C13.8279 6.0283 13.9133 6 14.0006 6ZM13.899 11.5996C13.7559 12.153 13.4674 12.6594 13.0631 13.0635C12.6587 13.4675 12.1527 13.7548 11.5992 13.8975L11.2056 14L11.6002 14.1016C12.1536 14.2444 12.6589 14.5324 13.0631 14.9365C13.4674 15.3409 13.7562 15.8467 13.899 16.4004L13.9996 16.792L14.1011 16.4004L14.1617 16.1953C14.3181 15.722 14.5832 15.2904 14.9371 14.9365C15.3414 14.5323 15.8474 14.2434 16.401 14.1006L16.7906 14L16.401 13.8994L16.4 13.8984C15.8466 13.7556 15.3413 13.4676 14.9371 13.0635C14.5832 12.7096 14.3181 12.278 14.1617 11.8047L14.1011 11.5996L13.9996 11.207L13.899 11.5996Z" fill="url(#paint0_linear_3547_88)"/>
<path d="M19.6997 10.0003V6.80015C19.6997 6.41355 20.0133 6.09996 20.3999 6.09996C20.7865 6.09996 21.1001 6.41355 21.1001 6.80015V10.0003C21.1001 10.3869 20.7865 10.7005 20.3999 10.7005C20.0133 10.7005 19.6997 10.3869 19.6997 10.0003Z" fill="url(#paint1_linear_3547_88)"/>
<path d="M22.0002 7.69991L22.1408 7.71456C22.46 7.77967 22.7004 8.06168 22.7004 8.4001C22.7004 8.73852 22.46 9.02054 22.1408 9.08565L22.0002 9.1003H18.8C18.4134 9.1003 18.0998 8.7867 18.0998 8.4001C18.0998 8.0135 18.4134 7.69991 18.8 7.69991H22.0002Z" fill="url(#paint2_linear_3547_88)"/>
<path d="M7.11975 19.6005V17.9999C7.11975 17.7348 7.33513 17.5194 7.60022 17.5194C7.86531 17.5194 8.08069 17.7348 8.08069 17.9999V19.6005C8.08043 19.8653 7.86515 20.08 7.60022 20.08C7.33529 20.08 7.12001 19.8653 7.11975 19.6005Z" fill="url(#paint3_linear_3547_88)"/>
<path d="M8.40083 18.3194L8.49751 18.3292C8.71608 18.374 8.88032 18.568 8.88032 18.7999C8.88032 19.0317 8.71608 19.2257 8.49751 19.2706L8.40083 19.2803H6.80024C6.53515 19.2803 6.31978 19.065 6.31978 18.7999C6.31978 18.5348 6.53515 18.3194 6.80024 18.3194H8.40083Z" fill="url(#paint4_linear_3547_88)"/>
</g>
<defs>
<linearGradient id="paint0_linear_3547_88" x1="2.92542" y1="14" x2="26.6554" y2="14" gradientUnits="userSpaceOnUse">
<stop stop-color="#1464FF"/>
<stop offset="1" stop-color="#FC4078"/>
</linearGradient>
<linearGradient id="paint1_linear_3547_88" x1="2.92542" y1="14" x2="26.6554" y2="14" gradientUnits="userSpaceOnUse">
<stop stop-color="#1464FF"/>
<stop offset="1" stop-color="#FC4078"/>
</linearGradient>
<linearGradient id="paint2_linear_3547_88" x1="2.92542" y1="14" x2="26.6554" y2="14" gradientUnits="userSpaceOnUse">
<stop stop-color="#1464FF"/>
<stop offset="1" stop-color="#FC4078"/>
</linearGradient>
<linearGradient id="paint3_linear_3547_88" x1="2.92542" y1="14" x2="26.6554" y2="14" gradientUnits="userSpaceOnUse">
<stop stop-color="#1464FF"/>
<stop offset="1" stop-color="#FC4078"/>
</linearGradient>
<linearGradient id="paint4_linear_3547_88" x1="2.92542" y1="14" x2="26.6554" y2="14" gradientUnits="userSpaceOnUse">
<stop stop-color="#1464FF"/>
<stop offset="1" stop-color="#FC4078"/>
</linearGradient>
</defs>
</svg>
