<svg xmlns="http://www.w3.org/2000/svg" viewBox="0 0 20 20">
  <path d="M10 2a.4.4 0 0 1 .385.292L11.651 7.2a1.6 1.6 0 0 0 1.15 1.15l4.907 1.264a.4.4 0 0 1 .294.386l-.005.065a.401.401 0 0 1-.29.32L12.8 11.65l-.203.068c-.197.08-.377.199-.53.35l-.139.16a1.6 1.6 0 0 0-.277.572l-1.266 4.908-.023.06a.4.4 0 0 1-.12.15l-.055.036A.4.4 0 0 1 10 18l-.065-.005a.4.4 0 0 1-.122-.04l-.055-.036a.4.4 0 0 1-.143-.211L8.35 12.8a1.601 1.601 0 0 0-.277-.572l-.14-.16a1.601 1.601 0 0 0-.53-.35L7.2 11.65l-4.907-1.265a.401.401 0 0 1-.167-.096l-.043-.048a.4.4 0 0 1 .21-.626L7.2 8.35a1.6 1.6 0 0 0 .571-.278l.16-.14c.202-.201.348-.454.42-.73l1.265-4.909A.4.4 0 0 1 10 2Zm-.1 5.6a3.2 3.2 0 0 1-2.3 2.298L7.206 10l.394.102A3.2 3.2 0 0 1 9.9 12.4l.1.392.102-.392.06-.205a3.2 3.2 0 0 1 2.24-2.094l.39-.101-.39-.1-.001-.002a3.2 3.2 0 0 1-2.238-2.093l-.06-.205L10 7.207l-.101.393ZM15.7 6V2.8a.7.7 0 0 1 1.4 0V6a.7.7 0 0 1-1.4 0Z"/>
  <path d="m18 3.7.14.015a.7.7 0 0 1 0 1.37L18 5.1h-3.2a.7.7 0 0 1 0-1.4H18ZM3.12 15.6V14a.48.48 0 0 1 .96 0v1.6a.48.48 0 0 1-.96 0Z"/>
  <path d="m4.4 14.32.098.01a.48.48 0 0 1 0 .94l-.097.01H2.8a.48.48 0 0 1 0-.96h1.6Z"/>
</svg>
