<svg xmlns="http://www.w3.org/2000/svg" viewBox="0 0 24 24">
  <path d="M20 4a14 14 0 0 1-8.413 3.002L10.975 7H5a1 1 0 0 0-1 1v4a1 1 0 0 0 1 1h5.975A14 14 0 0 1 20 16V4Zm2 12a2.002 2.002 0 0 1-2.18 1.992 2.001 2.001 0 0 1-1.02-.392l-.02-.016A12 12 0 0 0 11.024 15H5a3 3 0 0 1-3-3V8a3 3 0 0 1 3-3h6.025A12 12 0 0 0 18.8 2.4 2.001 2.001 0 0 1 22 4v12Z"/>
  <path d="M5 14a1 1 0 1 1 2 0 11 11 0 0 0 2.2 6.6 1 1 0 1 0 1.6-1.2A9.001 9.001 0 0 1 9 14a1 1 0 1 1 2 0 7 7 0 0 0 1.4 4.2 3 3 0 0 1-4.8 3.6A13 13 0 0 1 5 14Z"/>
  <path d="M7 14V6a1 1 0 1 1 2 0v8a1 1 0 1 1-2 0Z"/>
</svg>
