<svg width="20" height="20" viewBox="0 0 20 20" fill="none" xmlns="http://www.w3.org/2000/svg">
<path d="M15.9998 2.5H3.99984C3.38531 2.49996 2.79557 2.74236 2.3587 3.17456C1.92182 3.60675 1.67309 4.19384 1.6665 4.80833V12.3083C1.6687 12.9265 1.91524 13.5187 2.35235 13.9558C2.78946 14.3929 3.38167 14.6395 3.99984 14.6417H9.1665V15.9667H6.99984C6.77882 15.9667 6.56686 16.0545 6.41058 16.2107C6.2543 16.367 6.1665 16.579 6.1665 16.8C6.1665 17.021 6.2543 17.233 6.41058 17.3893C6.56686 17.5455 6.77882 17.6333 6.99984 17.6333H12.9998C13.2209 17.6333 13.4328 17.5455 13.5891 17.3893C13.7454 17.233 13.8332 17.021 13.8332 16.8C13.8332 16.579 13.7454 16.367 13.5891 16.2107C13.4328 16.0545 13.2209 15.9667 12.9998 15.9667H10.8332V14.65H15.9998C16.618 14.6478 17.2102 14.4013 17.6473 13.9642C18.0844 13.527 18.331 12.9348 18.3332 12.3167V4.81667C18.3288 4.20072 18.081 3.6115 17.6439 3.17751C17.2068 2.74353 16.6158 2.49998 15.9998 2.5ZM16.6665 12.3333C16.6665 12.5101 16.5963 12.6797 16.4712 12.8047C16.3462 12.9298 16.1766 13 15.9998 13H3.99984C3.82303 13 3.65346 12.9298 3.52843 12.8047C3.40341 12.6797 3.33317 12.5101 3.33317 12.3333V4.83333C3.33205 4.74548 3.34853 4.65828 3.38164 4.57689C3.41474 4.4955 3.46381 4.42156 3.52594 4.35943C3.58807 4.2973 3.66201 4.24824 3.7434 4.21513C3.82479 4.18203 3.91198 4.16555 3.99984 4.16667H15.9998C16.087 4.16556 16.1735 4.18178 16.2543 4.21437C16.3352 4.24696 16.4087 4.29527 16.4707 4.35652C16.5328 4.41776 16.582 4.49071 16.6156 4.57113C16.6492 4.65155 16.6665 4.73784 16.6665 4.825V12.3333Z" fill="#737373"/>
</svg>
