<svg width="15" height="15" viewBox="0 0 15 15" fill="none" xmlns="http://www.w3.org/2000/svg">
<path d="M6.75 9.75V0.75C6.75 0.335786 7.08579 0 7.5 0C7.91421 0 8.25 0.335786 8.25 0.75V9.75C8.25 10.1642 7.91421 10.5 7.5 10.5C7.08579 10.5 6.75 10.1642 6.75 9.75Z" fill="white"/>
<path d="M0 12.75V9.75C0 9.33579 0.335786 9 0.75 9C1.16421 9 1.5 9.33579 1.5 9.75V12.75C1.5 12.9489 1.57907 13.1396 1.71973 13.2803C1.86038 13.4209 2.05109 13.5 2.25 13.5H12.75C12.9489 13.5 13.1396 13.4209 13.2803 13.2803C13.4209 13.1396 13.5 12.9489 13.5 12.75V9.75C13.5 9.33579 13.8358 9 14.25 9C14.6642 9 15 9.33579 15 9.75V12.75C15 13.3467 14.7628 13.9189 14.3408 14.3408C13.9189 14.7628 13.3467 15 12.75 15H2.25C1.65326 15 1.08114 14.7628 0.65918 14.3408C0.237223 13.9189 0 13.3467 0 12.75Z" fill="white"/>
<path d="M10.7197 5.46973C11.0126 5.17683 11.4874 5.17683 11.7803 5.46973C12.0732 5.76262 12.0732 6.23738 11.7803 6.53027L8.03027 10.2803C7.73738 10.5732 7.26262 10.5732 6.96973 10.2803L3.21973 6.53027C2.92683 6.23738 2.92683 5.76262 3.21973 5.46973C3.51262 5.17683 3.98738 5.17683 4.28027 5.46973L7.5 8.68945L10.7197 5.46973Z" fill="white"/>
</svg>
