<svg
  width="17"
  height="12"
  viewBox="0 0 17 12"
  fill="currentColor"
  xmlns="http://www.w3.org/2000/svg"
  aria-hidden="true"
  focusable="false"
>
  <path d="M8.25 0C9.99525 0 11.702 0.518537 13.1523 1.48926C14.5119 2.39933 15.589 3.66885 16.2666 5.15332L16.3975 5.45215L16.4072 5.47754C16.5322 5.81425 16.5322 6.18477 16.4072 6.52148C16.4041 6.52986 16.4009 6.53862 16.3975 6.54688C15.7321 8.16002 14.6024 9.53911 13.1523 10.5098C11.702 11.4805 9.99525 11.999 8.25 11.999C6.50488 11.9989 4.7989 11.4804 3.34863 10.5098C1.89849 9.53912 0.768892 8.16005 0.103514 6.54688C0.100108 6.53862 0.0968569 6.52986 0.0937484 6.52148C-0.0312438 6.18473 -0.0312551 5.81429 0.0937484 5.47754L0.103514 5.45215C0.768898 3.83899 1.89849 2.45989 3.34863 1.48926C4.7989 0.518608 6.50488 7.50344e-05 8.25 0ZM8.25 1.5C6.8021 1.50007 5.38691 1.9301 4.18359 2.73535C2.98774 3.53572 2.05447 4.67121 1.50098 5.99902C2.05443 7.32722 2.98748 8.46313 4.18359 9.26367C5.38691 10.0689 6.80209 10.4989 8.25 10.499C9.69809 10.499 11.1139 10.0691 12.3174 9.26367C13.5134 8.46318 14.4456 7.3271 14.999 5.99902C14.4455 4.67132 13.5131 3.53566 12.3174 2.73535C11.1139 1.92997 9.69808 1.5 8.25 1.5Z" />
  <path d="M9.75036 5.99954C9.75036 5.17111 9.07879 4.49954 8.25036 4.49954C7.42194 4.49954 6.75036 5.17111 6.75036 5.99954C6.75036 6.82797 7.42194 7.49954 8.25036 7.49954C9.07879 7.49954 9.75036 6.82797 9.75036 5.99954ZM11.2504 5.99954C11.2504 7.6564 9.90722 8.99954 8.25036 8.99954C6.59351 8.99954 5.25036 7.6564 5.25036 5.99954C5.25036 4.34269 6.59351 2.99954 8.25036 2.99954C9.90722 2.99954 11.2504 4.34269 11.2504 5.99954Z" />
</svg>
