<svg xmlns="http://www.w3.org/2000/svg" viewBox="0 0 24 24">
  <path d="M11.999 2.007c.201 0 .4.04.585.118l.178.091.165.113c.105.083.199.179.278.286l.108.169.01.016 2.945 5.592 4.264-3.651.02-.017a1.5 1.5 0 0 1 2.393 1.558v.003L20.11 16.532a2 2 0 0 1-1.912 1.467H5.803a2.001 2.001 0 0 1-1.915-1.467L1.055 6.286v-.003a1.502 1.502 0 0 1 1.408-1.894l.119.002.118.01a1.5 1.5 0 0 1 .748.324l.02.017 4.261 3.65L10.677 2.8l.008-.016a1.5 1.5 0 0 1 .551-.568l.179-.09a1.5 1.5 0 0 1 .584-.119Zm-2.505 7.33-.006.011a2 2 0 0 1-3.032.588l-.014-.012-3.022-2.59 2.396 8.664L18.182 16l2.397-8.667-3.024 2.591-.013.012a2 2 0 0 1-3.032-.588l-.005-.01-2.506-4.758-2.505 4.758ZM19 20a1 1 0 1 1 0 2H5a1 1 0 1 1 0-2h14Z"/>
</svg>
