<svg xmlns="http://www.w3.org/2000/svg" fill="#000" viewBox="0 0 25 24">
  <path fill-rule="evenodd" d="M14.881 5.81c0-.526.426-.953.952-.953h5.715a.952.952 0 1 1 0 1.905h-5.715a.952.952 0 0 1-.952-.952Z" clip-rule="evenodd"/>
  <path fill-rule="evenodd" d="M18.69 2c.526 0 .953.426.953.952v5.715a.952.952 0 0 1-1.905 0V2.952c0-.526.427-.952.953-.952Z" clip-rule="evenodd"/>
  <path fill-rule="evenodd" d="M5.357 4.857a.952.952 0 0 0-.952.953v13.333a.952.952 0 0 0 .952.952H18.69a.952.952 0 0 0 .953-.952V12a.952.952 0 1 1 1.905 0v7.143A2.857 2.857 0 0 1 18.69 22H5.357A2.857 2.857 0 0 1 2.5 19.143V5.81a2.857 2.857 0 0 1 2.857-2.858H12.5a.952.952 0 1 1 0 1.905H5.357Z" clip-rule="evenodd"/>
  <path fill-rule="evenodd" d="M14.29 11.72a2.857 2.857 0 0 1 4.04 0l2.939 2.94a.952.952 0 0 1-1.347 1.347l-2.94-2.94a.953.953 0 0 0-1.346 0l-8.653 8.654a.952.952 0 0 1-1.347-1.347l8.654-8.653ZM9.167 8.667a.952.952 0 1 0 0 1.904.952.952 0 0 0 0-1.904Zm-2.857.952a2.857 2.857 0 1 1 5.714 0 2.857 2.857 0 0 1-5.714 0Z" clip-rule="evenodd"/>
</svg>