<svg width="17" height="17" viewBox="0 0 17 17" fill="none" xmlns="http://www.w3.org/2000/svg">
<path d="M3.48888 1.55255C5.08688 0.410977 7.03696 -0.129572 8.99462 0.0263006C10.9524 0.182252 12.7924 1.02459 14.1896 2.40482C15.5867 3.78496 16.4519 5.61396 16.6318 7.5695C16.8116 9.52515 16.2948 11.4819 15.1729 13.0937C14.0508 14.7056 12.3952 15.8696 10.4987 16.38C8.6169 16.8864 6.61795 16.7166 4.84867 15.9021C4.72525 15.8572 4.59258 15.8454 4.46323 15.8673L1.92195 16.6108C1.91603 16.6126 1.91015 16.6144 1.90419 16.616C1.65479 16.6822 1.39227 16.6833 1.14217 16.6197C0.892168 16.5562 0.662388 16.4299 0.474857 16.2528C0.287281 16.0755 0.147782 15.853 0.0701761 15.6069C-0.00739439 15.3609 -0.0209483 15.0991 0.0309656 14.8464L0.0524204 14.765L0.842548 12.3243C0.869541 12.185 0.858063 12.0411 0.807037 11.9085C-0.0286143 10.1496 -0.222971 8.15339 0.26031 6.26594C0.747471 4.3635 1.89099 2.69417 3.48888 1.55255ZM8.87477 1.53627C7.27299 1.40868 5.67752 1.85106 4.37001 2.78509C3.06249 3.71915 2.12673 5.08511 1.72811 6.64177C1.35446 8.10105 1.47561 9.63994 2.06695 11.0193L2.19124 11.293L2.21269 11.3433C2.37971 11.7647 2.41741 12.2264 2.31997 12.6691C2.31475 12.6928 2.3082 12.7163 2.30073 12.7394L1.52022 15.149L4.08222 14.4003C4.10371 14.394 4.1261 14.3891 4.14806 14.3847C4.51365 14.3123 4.89066 14.3301 5.24595 14.4373L5.39688 14.489L5.44793 14.5105C6.90387 15.1904 8.55342 15.3343 10.1051 14.9167C11.6568 14.4991 13.0112 13.547 13.9292 12.2281C14.8472 10.9093 15.2697 9.30868 15.1225 7.70859C14.9754 6.10858 14.2681 4.61198 13.125 3.48274C11.9819 2.35349 10.4765 1.6639 8.87477 1.53627Z" fill="#4584FF"/>
</svg>
