<svg width="20" height="20" viewBox="0 0 20 20" fill="none" xmlns="http://www.w3.org/2000/svg">
<path d="M13.7914 18.3333H6.20809C5.60617 18.3311 5.02965 18.0904 4.6048 17.664C4.17996 17.2376 3.94142 16.6602 3.94142 16.0583V3.94163C3.94032 3.64326 3.99814 3.34762 4.11156 3.07165C4.22498 2.79568 4.39177 2.54482 4.60236 2.33346C4.81295 2.1221 5.06319 1.95439 5.33874 1.83996C5.61429 1.72553 5.90972 1.66662 6.20809 1.66663H13.7914C14.3926 1.66663 14.9691 1.90543 15.3942 2.33052C15.8193 2.7556 16.0581 3.33214 16.0581 3.93329V16.0666C16.0559 16.6671 15.8164 17.2424 15.3918 17.667C14.9672 18.0916 14.3919 18.3311 13.7914 18.3333ZM6.20809 3.19163C6.00918 3.19163 5.81841 3.27064 5.67776 3.4113C5.53711 3.55195 5.45809 3.74271 5.45809 3.94163V16.0666C5.45699 16.1658 5.47557 16.2642 5.51277 16.3562C5.54997 16.4482 5.60504 16.5318 5.67479 16.6024C5.74454 16.6729 5.8276 16.7289 5.91914 16.7671C6.01068 16.8053 6.10889 16.825 6.20809 16.825H13.7914C13.8906 16.825 13.9888 16.8053 14.0804 16.7671C14.1719 16.7289 14.255 16.6729 14.3247 16.6024C14.3945 16.5318 14.4495 16.4482 14.4867 16.3562C14.5239 16.2642 14.5425 16.1658 14.5414 16.0666V3.94163C14.5414 3.74271 14.4624 3.55195 14.3218 3.4113C14.1811 3.27064 13.9903 3.19163 13.7914 3.19163H6.20809ZM10.7664 14.55C10.7664 14.3488 10.6865 14.156 10.5443 14.0137C10.4021 13.8715 10.2092 13.7916 10.0081 13.7916C9.85847 13.7933 9.71268 13.8391 9.58908 13.9235C9.46547 14.0078 9.36957 14.1268 9.31345 14.2655C9.25733 14.4042 9.24349 14.5564 9.27369 14.7029C9.30388 14.8495 9.37676 14.9838 9.48314 15.0891C9.58952 15.1943 9.72465 15.2657 9.87152 15.2943C10.0184 15.3229 10.1704 15.3074 10.3085 15.2497C10.4466 15.1921 10.5645 15.0949 10.6475 14.9704C10.7305 14.8459 10.7747 14.6996 10.7748 14.55H10.7664Z" fill="#737373"/>
</svg>
