<svg xmlns="http://www.w3.org/2000/svg" viewBox="0 0 25 25">
  <path d="M9.966 3.432a.5.5 0 0 1 .541.212.491.491 0 0 1 .086.29l-.008.078a.49.49 0 0 1-.094.209l-.191.26a6.46 6.46 0 0 0-.949 2.037l-.075.314a6.57 6.57 0 0 0 6.737 7.914l.423-.034a6.57 6.57 0 0 0 3.123-1.209.52.52 0 0 1 .584-.005.522.522 0 0 1 .187.51l-.08.27a8.56 8.56 0 0 1-2.169 3.552l-.204.195a8.56 8.56 0 0 1-11.71-.109l-.2-.198a8.56 8.56 0 0 1-2.105-3.592l-.073-.272a8.561 8.561 0 0 1 2.11-8.05l.2-.2a8.56 8.56 0 0 1 3.867-2.172ZM8.114 5.766a7.163 7.163 0 0 0-2.97 7.74 7.162 7.162 0 0 0 11.955 3.327c.314-.308.596-.645.846-1.003A7.973 7.973 0 0 1 7.807 9.268a7.866 7.866 0 0 1 .307-3.502Z"/>
</svg>
