<svg width="220" height="199" viewBox="0 0 220 199" fill="none" xmlns="http://www.w3.org/2000/svg">
<g clip-path="url(#clip0_9851_12942)">
<path d="M236.794 169.988H-15.1145V170.114H236.794V169.988Z" fill="#EBEBEB"/>
<path d="M211.553 178.096H194.866V178.222H211.553V178.096Z" fill="#EBEBEB"/>
<path d="M151.759 179.465H147.381V179.591H151.759V179.465Z" fill="#EBEBEB"/>
<path d="M194.362 173.42H184.693V173.546H194.362V173.42Z" fill="#EBEBEB"/>
<path d="M33.076 174.266H11.3162V174.392H33.076V174.266Z" fill="#EBEBEB"/>
<path d="M40.7541 174.266H37.5649V174.392H40.7541V174.266Z" fill="#EBEBEB"/>
<path d="M98.3206 176.393H51.123V176.519H98.3206V176.393Z" fill="#EBEBEB"/>
<path d="M104.29 147.518H7.00799C6.24589 147.517 5.51546 147.213 4.97704 146.674C4.43863 146.135 4.13623 145.404 4.13623 144.642V7.89067C4.14286 7.13294 4.44819 6.40843 4.98589 5.8745C5.52359 5.34058 6.25023 5.04036 7.00799 5.03906H104.29C105.053 5.03906 105.785 5.34215 106.324 5.88166C106.864 6.42116 107.167 7.15288 107.167 7.91586V144.642C107.167 145.405 106.864 146.136 106.324 146.676C105.785 147.215 105.053 147.518 104.29 147.518ZM7.00799 5.13983C6.27929 5.14116 5.5809 5.43157 5.06611 5.94731C4.55131 6.46304 4.26218 7.16197 4.26218 7.89067V144.642C4.26218 145.37 4.55131 146.069 5.06611 146.585C5.5809 147.101 6.27929 147.391 7.00799 147.392H104.29C105.019 147.391 105.718 147.101 106.234 146.585C106.749 146.07 107.039 145.371 107.041 144.642V7.89067C107.039 7.16151 106.749 6.46259 106.234 5.947C105.718 5.4314 105.019 5.14116 104.29 5.13983H7.00799Z" fill="#EBEBEB"/>
<path d="M213.27 147.518H115.983C115.22 147.517 114.489 147.214 113.95 146.674C113.411 146.135 113.108 145.404 113.106 144.642V7.89067C113.114 7.13248 113.421 6.40797 113.959 5.87419C114.498 5.3404 115.225 5.04035 115.983 5.03906H213.27C214.027 5.04168 214.752 5.34249 215.289 5.87627C215.825 6.41005 216.13 7.13381 216.137 7.89067V144.642C216.137 145.403 215.835 146.133 215.298 146.672C214.76 147.212 214.031 147.516 213.27 147.518ZM115.983 5.13983C115.254 5.14116 114.555 5.4314 114.039 5.947C113.524 6.46259 113.233 7.16151 113.232 7.89067V144.642C113.233 145.371 113.524 146.07 114.039 146.585C114.555 147.101 115.254 147.391 115.983 147.392H213.27C213.999 147.391 214.698 147.101 215.214 146.585C215.729 146.07 216.02 145.371 216.021 144.642V7.89067C216.02 7.16151 215.729 6.46259 215.214 5.947C214.698 5.4314 213.999 5.14116 213.27 5.13983H115.983Z" fill="#EBEBEB"/>
<path d="M130.837 65.0234L200.252 65.0234V19.5641L130.837 19.5641V65.0234Z" fill="#E6E6E6"/>
<path d="M128.716 65.0234L199.26 65.0234V19.5641L128.716 19.5641V65.0234Z" fill="#F0F0F0"/>
<path d="M130.837 73.9414L200.252 73.9414V65.0188L130.837 65.0188V73.9414Z" fill="#E6E6E6"/>
<path d="M125.193 73.9414L195.737 73.9414V65.0188L125.193 65.0188V73.9414Z" fill="#F0F0F0"/>
<path d="M196.297 62.0607V22.5312L131.682 22.5313V62.0607L196.297 62.0607Z" fill="#FAFAFA"/>
<path d="M181.727 62.0557L173.474 22.5312H160.596L168.849 62.0557H181.727Z" fill="white"/>
<path d="M194.927 59.1091C194.955 59.1092 194.983 59.1035 195.009 59.0926C195.035 59.0816 195.059 59.0656 195.079 59.0454C195.098 59.0252 195.114 59.0013 195.124 58.975C195.135 58.9488 195.14 58.9207 195.139 58.8925V24.4617C195.139 24.4055 195.117 24.3517 195.077 24.312C195.037 24.2724 194.983 24.2501 194.927 24.2501C194.899 24.2494 194.871 24.2544 194.845 24.2648C194.819 24.2752 194.796 24.2907 194.776 24.3105C194.756 24.3303 194.741 24.3539 194.73 24.3799C194.72 24.4059 194.715 24.4337 194.716 24.4617V58.8925C194.715 58.9207 194.72 58.9488 194.73 58.975C194.741 59.0013 194.756 59.0252 194.776 59.0454C194.796 59.0656 194.819 59.0816 194.845 59.0926C194.871 59.1035 194.899 59.1092 194.927 59.1091Z" fill="#F0F0F0"/>
<path d="M166.084 62.0557L157.831 22.5312H152.808L161.066 62.0557H166.084Z" fill="white"/>
<path d="M132.06 62.0607V22.5312H131.682V62.0607H132.06Z" fill="#E6E6E6"/>
<path opacity="0.6" d="M128.019 26.9998H197.435L197.707 23.6797H128.291L128.019 26.9998Z" fill="#EBEBEB"/>
<path opacity="0.6" d="M128.019 32.4421H197.435L197.707 29.127H128.291L128.019 32.4421Z" fill="#EBEBEB"/>
<path opacity="0.6" d="M128.019 37.8835H197.435L197.707 34.5684H128.291L128.019 37.8835Z" fill="#EBEBEB"/>
<path opacity="0.6" d="M128.019 43.3299H197.435L197.707 40.0098H128.291L128.019 43.3299Z" fill="#EBEBEB"/>
<path opacity="0.6" d="M128.019 48.7694H197.435L197.707 45.4492H128.291L128.019 48.7694Z" fill="#EBEBEB"/>
<path opacity="0.6" d="M128.019 54.2108H197.435L197.707 50.8906H128.291L128.019 54.2108Z" fill="#EBEBEB"/>
<path d="M190.288 136.928H175.732V139.799H190.288V136.928Z" fill="#E6E6E6"/>
<path d="M148.279 169.988H150.965V103.953H148.279V169.988Z" fill="#E6E6E6"/>
<path d="M138.967 139.801H175.726V136.929H138.967V139.801Z" fill="#F5F5F5"/>
<path d="M190.288 152.633H175.732V155.505H190.288V152.633Z" fill="#E6E6E6"/>
<path d="M138.967 155.498H175.726V152.626H138.967V155.498Z" fill="#F5F5F5"/>
<path d="M190.288 105.525H175.732V108.397H190.288V105.525Z" fill="#E6E6E6"/>
<path d="M138.967 108.393H175.726V105.521H138.967V108.393Z" fill="#F5F5F5"/>
<path d="M190.288 121.225H175.732V124.096H190.288V121.225Z" fill="#E6E6E6"/>
<path d="M138.967 124.096H175.726V121.224H138.967V124.096Z" fill="#F5F5F5"/>
<path d="M185.042 169.988H187.728V103.953H185.042V169.988Z" fill="#E6E6E6"/>
<path d="M173.04 169.988H175.726V103.953H173.04V169.988Z" fill="#F5F5F5"/>
<path d="M138.967 169.988H141.653V103.953H138.967V169.988Z" fill="#F5F5F5"/>
<path d="M17.8254 169.988H45.3237L45.3237 116.639H17.8254L17.8254 169.988Z" fill="#E6E6E6"/>
<path d="M25.1645 169.989H17.8188V162.623H32.8628L25.1645 169.989Z" fill="#FAFAFA"/>
<path d="M17.8255 167.449H99.207V116.634H17.8255V167.449Z" fill="#FAFAFA"/>
<path d="M91.8614 169.989H99.202V162.623H84.1631L91.8614 169.989Z" fill="#FAFAFA"/>
<path d="M23.5176 148.289H93.5078V135.573H23.5176V148.289Z" fill="#F0F0F0"/>
<path d="M23.5176 163.721H93.5078V151.004H23.5176V163.721Z" fill="#F0F0F0"/>
<path d="M80.2073 136.934H36.8237C36.2117 136.934 35.6248 136.69 35.192 136.258C34.7593 135.825 34.5162 135.238 34.5162 134.626V134.47H82.5098V134.626C82.5098 135.237 82.2673 135.823 81.8357 136.256C81.4041 136.689 80.8184 136.932 80.2073 136.934Z" fill="#FAFAFA"/>
<path d="M23.5176 132.852H93.5078V120.135L23.5176 120.135V132.852Z" fill="#F0F0F0"/>
<path d="M80.2073 121.496H36.8237C36.2117 121.496 35.6248 121.253 35.192 120.82C34.7593 120.388 34.5162 119.801 34.5162 119.189V119.032H82.5098V119.189C82.5098 119.8 82.2673 120.386 81.8357 120.818C81.4041 121.251 80.8184 121.495 80.2073 121.496Z" fill="#FAFAFA"/>
<path d="M80.2073 152.369H36.8237C36.2117 152.369 35.6248 152.126 35.192 151.693C34.7593 151.261 34.5162 150.674 34.5162 150.062V149.905H82.5098V150.062C82.5098 150.673 82.2673 151.259 81.8357 151.692C81.4041 152.124 80.8184 152.368 80.2073 152.369Z" fill="#FAFAFA"/>
<path d="M22.2028 65.0234L91.6187 65.0234V19.5641L22.2028 19.5641V65.0234Z" fill="#E6E6E6"/>
<path d="M20.0869 65.0234L90.6313 65.0234V19.5641L20.0869 19.5641V65.0234Z" fill="#F0F0F0"/>
<path d="M22.2028 73.9414L91.6187 73.9414V65.0188L22.2028 65.0188V73.9414Z" fill="#E6E6E6"/>
<path d="M16.5559 73.9414L87.1003 73.9414V65.0188L16.5559 65.0188V73.9414Z" fill="#F0F0F0"/>
<path d="M87.6646 62.0607V22.5312L23.05 22.5313V62.0607L87.6646 62.0607Z" fill="#FAFAFA"/>
<path d="M73.0944 62.0557L64.8419 22.5312H51.9644L60.2169 62.0557H73.0944Z" fill="white"/>
<path d="M86.2886 59.1091C86.3168 59.1092 86.3447 59.1035 86.3707 59.0926C86.3967 59.0816 86.4203 59.0656 86.44 59.0454C86.4597 59.0252 86.4752 59.0013 86.4855 58.975C86.4959 58.9488 86.5008 58.9207 86.5002 58.8925V24.4617C86.5009 24.4337 86.4959 24.4059 86.4855 24.3799C86.4751 24.3539 86.4595 24.3303 86.4397 24.3105C86.4199 24.2907 86.3963 24.2752 86.3704 24.2648C86.3444 24.2544 86.3165 24.2494 86.2886 24.2501C86.2324 24.2501 86.1786 24.2724 86.1389 24.312C86.0993 24.3517 86.077 24.4055 86.077 24.4617V58.8925C86.0763 58.9207 86.0813 58.9488 86.0916 58.975C86.1019 59.0013 86.1174 59.0252 86.1371 59.0454C86.1568 59.0656 86.1804 59.0816 86.2064 59.0926C86.2324 59.1035 86.2603 59.1092 86.2886 59.1091Z" fill="#F0F0F0"/>
<path d="M57.4496 62.0557L49.1971 22.5312H44.1741L52.4266 62.0557H57.4496Z" fill="white"/>
<path d="M23.4277 62.0607L23.4277 22.5312H23.0499L23.0499 62.0607H23.4277Z" fill="#E6E6E6"/>
<path opacity="0.6" d="M19.3818 26.9998H88.7977L89.0698 23.6797H19.6539L19.3818 26.9998Z" fill="#EBEBEB"/>
<path opacity="0.6" d="M19.3818 28.8748H88.7977L89.0698 25.5547H19.6539L19.3818 28.8748Z" fill="#EBEBEB"/>
<path opacity="0.6" d="M19.3818 30.7448H88.7977L89.0698 27.4297H19.6539L19.3818 30.7448Z" fill="#EBEBEB"/>
<path opacity="0.6" d="M19.3818 32.619H88.7977L89.0698 29.2988H19.6539L19.3818 32.619Z" fill="#EBEBEB"/>
<path opacity="0.6" d="M19.3818 34.487H88.7977L89.0698 31.1719H19.6539L19.3818 34.487Z" fill="#EBEBEB"/>
<path opacity="0.6" d="M19.3818 36.3612H88.7977L89.0698 33.041H19.6539L19.3818 36.3612Z" fill="#EBEBEB"/>
<path d="M33.261 115.008H35.6592V88.2602H33.261V115.008Z" fill="#F5F5F5"/>
<path d="M33.5652 114.992H34.2454V88.2445H33.5652V114.992Z" fill="#FAFAFA"/>
<path d="M34.5262 114.992H34.7932V88.2445H34.5262V114.992Z" fill="#FAFAFA"/>
<path d="M43.3428 116.641H25.5883C25.5883 116.047 25.8239 115.478 26.2435 115.059C26.663 114.639 27.2319 114.404 27.8252 114.404H41.1008C41.6941 114.404 42.263 114.639 42.6826 115.059C43.1021 115.478 43.3377 116.047 43.3377 116.641H43.3428Z" fill="#F0F0F0"/>
<path d="M30.1486 104.865C30.3313 104.864 30.5061 104.791 30.6352 104.661C30.7644 104.532 30.8375 104.357 30.8389 104.175V86.657C30.8389 86.474 30.7661 86.2984 30.6367 86.169C30.5073 86.0395 30.3317 85.9668 30.1486 85.9668C30.0576 85.9662 29.9673 85.9835 29.883 86.0179C29.7986 86.0523 29.7219 86.103 29.6573 86.1672C29.5927 86.2313 29.5414 86.3077 29.5064 86.3917C29.4714 86.4758 29.4534 86.566 29.4534 86.657V104.195C29.4599 104.375 29.536 104.545 29.6657 104.67C29.7954 104.795 29.9685 104.865 30.1486 104.865Z" fill="#F0F0F0"/>
<path d="M23.7148 94.6173H45.2026L42.7289 79.6035H26.1886L23.7148 94.6173Z" fill="#E0E0E0"/>
<path d="M110.84 192.74C164.79 192.74 208.525 190.187 208.525 187.037C208.525 183.887 164.79 181.334 110.84 181.334C56.8899 181.334 13.1548 183.887 13.1548 187.037C13.1548 190.187 56.8899 192.74 110.84 192.74Z" fill="#F5F5F5"/>
<path d="M44.8997 75.9228L44.3972 75.959L45.0665 85.2505L45.569 85.2143L44.8997 75.9228Z" fill="#B0BEC5"/>
<path d="M45.91 90.0107L45.4075 90.0469L45.6594 93.5444L46.1619 93.5082L45.91 90.0107Z" fill="#B0BEC5"/>
<path d="M162.586 132.753H54.6884C53.4874 132.731 52.3369 132.266 51.4587 131.446C50.5805 130.627 50.0368 129.511 49.9324 128.314L44.6322 54.6917C44.5829 54.1239 44.6531 53.5521 44.8383 53.0131C45.0234 52.4741 45.3194 51.9798 45.7072 51.5621C46.0949 51.1445 46.5659 50.8126 47.0897 50.588C47.6135 50.3634 48.1785 50.2511 48.7484 50.2581H156.646C157.846 50.2796 158.996 50.7444 159.874 51.5629C160.752 52.3815 161.296 53.4959 161.402 54.6917L166.702 128.314C166.751 128.882 166.681 129.455 166.496 129.994C166.311 130.533 166.015 131.028 165.627 131.446C165.24 131.864 164.769 132.196 164.245 132.421C163.721 132.646 163.156 132.759 162.586 132.753Z" fill="#B0BEC5"/>
<path d="M162.999 132.753H55.1018C53.9007 132.731 52.7502 132.266 51.872 131.446C50.9938 130.627 50.4501 129.511 50.3457 128.314L45.0456 54.6917C44.9963 54.1239 45.0665 53.5521 45.2516 53.0131C45.4367 52.4741 45.7327 51.9798 46.1205 51.5621C46.5082 51.1445 46.9792 50.8126 47.503 50.588C48.0268 50.3634 48.5919 50.2511 49.1618 50.2581H157.059C158.259 50.2796 159.409 50.7444 160.287 51.5629C161.165 52.3815 161.71 53.4959 161.815 54.6917L167.115 128.314C167.165 128.883 167.096 129.455 166.911 129.995C166.726 130.534 166.43 131.029 166.042 131.447C165.655 131.866 165.183 132.198 164.659 132.423C164.135 132.648 163.57 132.76 162.999 132.753Z" fill="#B0BEC5"/>
<path opacity="0.5" d="M162.999 132.753H55.1018C53.9007 132.731 52.7502 132.266 51.872 131.446C50.9938 130.627 50.4501 129.511 50.3457 128.314L45.0456 54.6917C44.9963 54.1239 45.0665 53.5521 45.2516 53.0131C45.4367 52.4741 45.7327 51.9798 46.1205 51.5621C46.5082 51.1445 46.9792 50.8126 47.503 50.588C48.0268 50.3634 48.5919 50.2511 49.1618 50.2581H157.059C158.259 50.2796 159.409 50.7444 160.287 51.5629C161.165 52.3815 161.71 53.4959 161.815 54.6917L167.115 128.314C167.165 128.883 167.096 129.455 166.911 129.995C166.726 130.534 166.43 131.029 166.042 131.447C165.655 131.866 165.183 132.198 164.659 132.423C164.135 132.648 163.57 132.76 162.999 132.753Z" fill="white"/>
<path d="M157.222 52.4746H49.3242H48.9615C46.2056 52.7013 46.7699 56.8981 49.5509 56.8981H157.63C160.416 56.8981 160.376 52.7013 157.584 52.4746H157.222Z" fill="#B0BEC5"/>
<path d="M52.1349 54.6913C52.1455 54.8212 52.1288 54.9519 52.0857 55.0749C52.0427 55.1979 51.9743 55.3105 51.8851 55.4054C51.7958 55.5004 51.6876 55.5756 51.5675 55.6261C51.4474 55.6767 51.318 55.7015 51.1878 55.699C50.9139 55.6951 50.6512 55.59 50.4503 55.404C50.2493 55.2179 50.1244 54.964 50.0995 54.6913C50.089 54.5619 50.1056 54.4316 50.1483 54.309C50.1911 54.1863 50.259 54.074 50.3477 53.9791C50.4364 53.8842 50.5439 53.8089 50.6634 53.7581C50.783 53.7072 50.9118 53.6819 51.0416 53.6837C51.3163 53.6863 51.5803 53.7908 51.7823 53.977C51.9843 54.1632 52.11 54.4177 52.1349 54.6913Z" fill="#FAFAFA"/>
<path d="M55.5968 54.6913C55.6074 54.8212 55.5907 54.9519 55.5476 55.0749C55.5046 55.1979 55.4362 55.3105 55.347 55.4054C55.2577 55.5004 55.1496 55.5756 55.0295 55.6261C54.9093 55.6767 54.78 55.7015 54.6497 55.699C54.3758 55.6951 54.1131 55.59 53.9122 55.404C53.7112 55.2179 53.5863 54.964 53.5614 54.6913C53.5509 54.5619 53.5675 54.4316 53.6102 54.309C53.653 54.1863 53.7209 54.074 53.8096 53.9791C53.8983 53.8842 54.0059 53.8089 54.1254 53.7581C54.2449 53.7072 54.3737 53.6819 54.5036 53.6837C54.7783 53.6863 55.0422 53.7908 55.2442 53.977C55.4462 54.1632 55.5719 54.4177 55.5968 54.6913Z" fill="#FAFAFA"/>
<path d="M59.0527 54.6914C59.0633 54.8209 59.0466 54.9511 59.0039 55.0738C58.9612 55.1964 58.8933 55.3088 58.8046 55.4037C58.7158 55.4985 58.6083 55.5738 58.4888 55.6247C58.3693 55.6755 58.2404 55.7009 58.1106 55.699C57.8364 55.6963 57.5731 55.5916 57.3719 55.4053C57.1707 55.2191 57.0461 54.9646 57.0223 54.6914C57.011 54.5618 57.0271 54.4312 57.0695 54.3082C57.1119 54.1852 57.1798 54.0725 57.2687 53.9775C57.3576 53.8824 57.4654 53.8072 57.5853 53.7566C57.7052 53.706 57.8344 53.6812 57.9645 53.6838C58.2383 53.6876 58.501 53.7927 58.702 53.9788C58.9029 54.1648 59.0278 54.4187 59.0527 54.6914Z" fill="#FAFAFA"/>
<path d="M160.139 125.408H56.9317C56.4957 125.401 56.0779 125.232 55.7595 124.934C55.4411 124.636 55.2448 124.231 55.2086 123.796L50.8506 63.2524C50.8312 63.0447 50.8562 62.8352 50.924 62.6378C50.9918 62.4405 51.1008 62.2598 51.2437 62.1078C51.3866 61.9558 51.5603 61.836 51.7531 61.7562C51.9459 61.6765 52.1535 61.6387 52.3621 61.6453H155.594C156.03 61.6513 156.447 61.8192 156.766 62.1163C157.084 62.4134 157.281 62.8184 157.317 63.2524L161.68 123.796C161.699 124.007 161.673 124.219 161.603 124.418C161.533 124.617 161.421 124.8 161.275 124.952C161.129 125.105 160.952 125.225 160.756 125.303C160.56 125.382 160.35 125.418 160.139 125.408Z" fill="white"/>
<path d="M116.649 102.341L114.966 79.0046L109.877 75.9414H95.8662L97.7706 102.341H116.649Z" fill="white"/>
<path d="M116.648 102.584H97.7704C97.708 102.585 97.6474 102.563 97.6013 102.52C97.5553 102.478 97.5274 102.42 97.5236 102.357L95.6242 75.9573C95.6217 75.9242 95.6263 75.8909 95.6376 75.8596C95.6489 75.8284 95.6666 75.7999 95.6897 75.7759C95.7119 75.7511 95.739 75.731 95.7694 75.7172C95.7997 75.7033 95.8326 75.6959 95.866 75.6953H109.877C109.921 75.6968 109.965 75.7089 110.003 75.7306L115.092 78.7938C115.126 78.8134 115.155 78.8411 115.176 78.8745C115.197 78.9079 115.21 78.9459 115.213 78.9852L116.885 102.322C116.889 102.356 116.885 102.39 116.873 102.423C116.862 102.455 116.844 102.484 116.82 102.508C116.798 102.532 116.771 102.551 116.742 102.564C116.712 102.577 116.681 102.584 116.648 102.584ZM98.0072 102.08H116.381L114.729 79.1313L109.832 76.184H96.128L98.0072 102.08Z" fill="#B0BEC5"/>
<path d="M114.966 79.0046L109.877 75.9414L111.746 80.0022L114.966 79.0046Z" fill="#EBEBEB"/>
<path d="M111.748 80.2448C111.701 80.2445 111.656 80.2311 111.617 80.2062C111.578 80.1812 111.546 80.1457 111.526 80.1037L109.657 76.0429C109.635 75.9953 109.629 75.9419 109.639 75.8905C109.649 75.839 109.675 75.7919 109.712 75.7558C109.752 75.7216 109.802 75.7008 109.855 75.6962C109.907 75.6917 109.959 75.7037 110.005 75.7306L115.093 78.7938C115.134 78.8184 115.167 78.8543 115.189 78.8971C115.21 78.9399 115.219 78.988 115.214 79.0356C115.208 79.082 115.188 79.1256 115.158 79.1612C115.127 79.1969 115.088 79.2232 115.043 79.2371L111.818 80.2448H111.748ZM110.433 76.5568L111.879 79.7057L114.398 78.9348L110.433 76.5568Z" fill="#B0BEC5"/>
<path d="M103.786 87.8324C103.794 87.9693 103.773 88.1063 103.726 88.235C103.679 88.3637 103.606 88.4815 103.511 88.581C103.417 88.6805 103.303 88.7597 103.177 88.8138C103.051 88.8678 102.916 88.8956 102.779 88.8954C102.491 88.8903 102.216 88.7788 102.005 88.5825C101.795 88.3862 101.665 88.119 101.64 87.8324C101.627 87.694 101.644 87.5545 101.689 87.4231C101.734 87.2917 101.807 87.1714 101.902 87.0704C101.998 86.9693 102.113 86.8897 102.242 86.8369C102.37 86.7841 102.509 86.7594 102.648 86.7643C102.936 86.7707 103.211 86.8832 103.421 87.0804C103.632 87.2775 103.762 87.5453 103.786 87.8324Z" fill="#B0BEC5"/>
<path d="M110.689 87.8337C110.701 87.9717 110.683 88.1106 110.638 88.2414C110.592 88.3722 110.52 88.4918 110.424 88.5923C110.329 88.6929 110.213 88.772 110.085 88.8245C109.957 88.8769 109.819 88.9016 109.681 88.8968C109.393 88.8917 109.117 88.7804 108.906 88.5842C108.694 88.388 108.563 88.1207 108.537 87.8337C108.529 87.6964 108.549 87.5588 108.596 87.4295C108.643 87.3002 108.716 87.1819 108.81 87.0818C108.904 86.9817 109.018 86.9021 109.145 86.8477C109.271 86.7933 109.407 86.7654 109.545 86.7656C109.834 86.7697 110.112 86.8813 110.323 87.0788C110.534 87.2762 110.665 87.5454 110.689 87.8337Z" fill="#B0BEC5"/>
<path d="M112.643 94.7548C112.582 94.7537 112.523 94.73 112.478 94.6881C112.434 94.6462 112.406 94.5891 112.401 94.5281C112.275 92.8101 109.585 91.4145 106.406 91.4145C104.295 91.4145 102.4 92.0443 101.463 93.0519C101.271 93.2375 101.12 93.4621 101.021 93.7105C100.922 93.9589 100.877 94.2256 100.889 94.4928C100.891 94.5259 100.887 94.5591 100.877 94.5905C100.866 94.622 100.849 94.6511 100.828 94.6761C100.784 94.7266 100.722 94.7577 100.655 94.7623C100.588 94.767 100.522 94.745 100.471 94.701C100.421 94.6571 100.39 94.5949 100.385 94.5281C100.37 94.1941 100.425 93.8606 100.547 93.5492C100.668 93.2377 100.853 92.955 101.091 92.7194C102.098 91.616 104.149 90.9258 106.391 90.9258C109.882 90.9258 112.729 92.4927 112.87 94.4928C112.872 94.5246 112.868 94.5564 112.857 94.5866C112.847 94.6167 112.831 94.6445 112.81 94.6684C112.789 94.6922 112.763 94.7117 112.735 94.7257C112.706 94.7396 112.675 94.7478 112.643 94.7497V94.7548Z" fill="#B0BEC5"/>
<path d="M99.8416 85.677C99.7801 85.6758 99.7211 85.6525 99.6753 85.6115C99.6295 85.5653 99.6038 85.5028 99.6038 85.4377C99.6038 85.3726 99.6295 85.3101 99.6753 85.2639L100.748 84.1101C100.794 84.0658 100.856 84.041 100.92 84.041C100.984 84.041 101.045 84.0658 101.091 84.1101C101.114 84.1326 101.131 84.1593 101.144 84.1887C101.156 84.2181 101.162 84.2496 101.162 84.2814C101.162 84.3132 101.156 84.3448 101.144 84.3742C101.131 84.4036 101.114 84.4302 101.091 84.4527L100.018 85.6065C99.9948 85.6295 99.9673 85.6476 99.937 85.6598C99.9067 85.6719 99.8742 85.6777 99.8416 85.677Z" fill="#B0BEC5"/>
<path d="M112.14 85.677C112.079 85.6741 112.02 85.6511 111.974 85.6115L110.739 84.4578C110.716 84.4352 110.698 84.4082 110.685 84.3783C110.672 84.3485 110.666 84.3164 110.666 84.2839C110.666 84.2515 110.672 84.2194 110.685 84.1895C110.698 84.1597 110.716 84.1327 110.739 84.1101C110.785 84.0658 110.847 84.041 110.911 84.041C110.975 84.041 111.036 84.0658 111.082 84.1101L112.316 85.2639C112.339 85.2863 112.357 85.313 112.369 85.3424C112.381 85.3718 112.388 85.4033 112.388 85.4352C112.388 85.467 112.381 85.4985 112.369 85.5279C112.357 85.5573 112.339 85.584 112.316 85.6065C112.269 85.6512 112.206 85.6764 112.14 85.677Z" fill="#B0BEC5"/>
<path d="M94.3442 107.557H95.4829L97.1253 109.743L96.9691 107.557H98.1178L98.4 111.507H97.2361L95.6038 109.335L95.76 111.507H94.6113L94.3442 107.557Z" fill="#B0BEC5"/>
<path d="M98.9151 109.532C98.8762 109.264 98.8947 108.99 98.9694 108.729C99.0441 108.469 99.1733 108.227 99.3484 108.02C99.5398 107.832 99.769 107.687 100.021 107.594C100.273 107.501 100.542 107.462 100.809 107.481C101.377 107.45 101.935 107.64 102.366 108.01C102.761 108.404 102.99 108.934 103.006 109.491C103.048 109.876 102.996 110.265 102.855 110.625C102.724 110.915 102.506 111.157 102.23 111.315C101.899 111.493 101.527 111.578 101.152 111.562C100.767 111.574 100.383 111.502 100.029 111.351C99.7179 111.201 99.4559 110.967 99.2728 110.675C99.0566 110.332 98.9334 109.938 98.9151 109.532ZM100.139 109.532C100.134 109.841 100.234 110.143 100.421 110.388C100.5 110.475 100.597 110.543 100.705 110.589C100.813 110.634 100.929 110.655 101.046 110.65C101.158 110.658 101.27 110.639 101.372 110.594C101.475 110.549 101.565 110.48 101.636 110.393C101.78 110.118 101.828 109.802 101.772 109.496C101.774 109.2 101.674 108.912 101.49 108.68C101.409 108.595 101.311 108.528 101.202 108.484C101.094 108.44 100.977 108.419 100.86 108.423C100.75 108.419 100.641 108.44 100.541 108.485C100.441 108.531 100.354 108.599 100.285 108.685C100.138 108.945 100.086 109.248 100.139 109.542V109.532Z" fill="#B0BEC5"/>
<path d="M105.374 107.558H107.187C107.486 107.548 107.784 107.598 108.064 107.704C108.285 107.797 108.482 107.94 108.638 108.122C108.797 108.307 108.918 108.521 108.996 108.752C109.078 109 109.128 109.257 109.147 109.518C109.186 109.847 109.16 110.181 109.072 110.5C109.002 110.721 108.879 110.922 108.714 111.084C108.576 111.231 108.402 111.338 108.21 111.397C107.976 111.465 107.734 111.502 107.49 111.508H105.681L105.374 107.558ZM106.658 108.455L106.814 110.611H107.112C107.296 110.623 107.48 110.594 107.651 110.525C107.764 110.46 107.847 110.353 107.883 110.228C107.94 110.004 107.954 109.772 107.923 109.543C107.932 109.235 107.838 108.934 107.656 108.686C107.562 108.602 107.452 108.537 107.332 108.498C107.213 108.458 107.086 108.443 106.961 108.455H106.658Z" fill="#B0BEC5"/>
<path d="M112.074 110.852H110.689L110.543 111.507H109.298L110.497 107.557H111.847L113.616 111.507H112.336L112.074 110.852ZM111.757 110L111.223 108.579L110.89 110H111.757Z" fill="#B0BEC5"/>
<path d="M113.041 107.557H116.749L116.819 108.534H115.575L115.786 111.507H114.567L114.355 108.534H113.111L113.041 107.557Z" fill="#B0BEC5"/>
<path d="M119.59 110.852H118.205L118.059 111.507H116.814L118.013 107.557H119.343L121.107 111.507H119.832L119.59 110.852ZM119.273 110L118.734 108.579L118.396 110H119.273Z" fill="#B0BEC5"/>
</g>
<defs>
<clipPath id="clip0_9851_12942">
<rect width="220" height="198.168" fill="white"/>
</clipPath>
</defs>
</svg>
