<svg width="260" height="216" viewBox="0 0 260 216" fill="none" xmlns="http://www.w3.org/2000/svg">
<path d="M260 179.552H0V179.682H260V179.552Z" fill="#EBEBEB"/>
<path d="M233.95 187.922H216.727V188.052H233.95V187.922Z" fill="#EBEBEB"/>
<path d="M172.235 189.333H167.715V189.463H172.235V189.333Z" fill="#EBEBEB"/>
<path d="M216.206 183.094H206.227V183.224H216.206V183.094Z" fill="#EBEBEB"/>
<path d="M49.7377 183.967H27.2773V184.097H49.7377V183.967Z" fill="#EBEBEB"/>
<path d="M57.6603 183.967H54.3672V184.097H57.6603V183.967Z" fill="#EBEBEB"/>
<path d="M117.075 186.163H68.3633V186.293H117.075V186.163Z" fill="#EBEBEB"/>
<path d="M123.247 156.361H22.8353C21.1989 156.361 19.8672 155.03 19.8672 153.393V12.2484C19.8672 10.612 21.1989 9.28027 22.8353 9.28027H123.247C124.883 9.28027 126.214 10.612 126.214 12.2484V153.393C126.214 155.03 124.883 156.361 123.247 156.361ZM22.8353 9.41079C21.2701 9.41079 19.9972 10.6838 19.9972 12.249V153.394C19.9972 154.959 21.2701 156.232 22.8353 156.232H123.247C124.812 156.232 126.084 154.959 126.084 153.394V12.2484C126.084 10.6838 124.812 9.41027 123.247 9.41027L22.8353 9.41079Z" fill="#EBEBEB"/>
<path d="M235.722 156.361H135.311C133.675 156.361 132.344 155.03 132.344 153.393V12.2484C132.344 10.612 133.675 9.28027 135.311 9.28027H235.722C237.359 9.28027 238.691 10.612 238.691 12.2484V153.393C238.691 155.03 237.359 156.361 235.722 156.361ZM135.311 9.41079C133.747 9.41079 132.474 10.6838 132.474 12.249V153.394C132.474 154.959 133.747 156.232 135.311 156.232H235.722C237.288 156.232 238.561 154.959 238.561 153.394V12.2484C238.561 10.6838 237.288 9.41027 235.722 9.41027L135.311 9.41079Z" fill="#EBEBEB"/>
<path d="M150.639 71.2148L222.285 71.2148V24.2968L150.639 24.2968V71.2148Z" fill="#E6E6E6"/>
<path d="M148.451 71.2148L221.262 71.2148V24.2968L148.451 24.2968V71.2148Z" fill="#F0F0F0"/>
<path d="M150.639 80.4229L222.285 80.4229V71.2147L150.639 71.2147V80.4229Z" fill="#E6E6E6"/>
<path d="M144.811 80.4229L217.621 80.4229V71.2147L144.811 71.2147V80.4229Z" fill="#F0F0F0"/>
<path d="M218.203 68.1545V27.3574L151.514 27.3574V68.1545L218.203 68.1545Z" fill="#FAFAFA"/>
<path d="M203.165 68.1555L194.647 27.3584H181.355L189.873 68.1555H203.165Z" fill="white"/>
<path d="M216.785 65.1086C216.906 65.1086 217.004 65.0109 217.004 64.8902V29.3493C217.004 29.2286 216.906 29.1309 216.785 29.1309C216.665 29.1309 216.566 29.2286 216.566 29.3493V64.8902C216.566 65.0109 216.665 65.1086 216.785 65.1086Z" fill="#F0F0F0"/>
<path d="M187.016 68.1555L178.499 27.3584H173.316L181.835 68.1555H187.016Z" fill="white"/>
<path d="M151.902 68.1545V27.3574H151.514V68.1545H151.902Z" fill="#E6E6E6"/>
<path opacity="0.6" d="M147.73 31.9726H219.377L219.658 28.5479H148.012L147.73 31.9726Z" fill="#EBEBEB"/>
<path opacity="0.6" d="M147.73 37.5888H219.377L219.658 34.1641H148.012L147.73 37.5888Z" fill="#EBEBEB"/>
<path opacity="0.6" d="M147.73 43.206H219.377L219.658 39.7812H148.012L147.73 43.206Z" fill="#EBEBEB"/>
<path opacity="0.6" d="M147.73 48.8232H219.377L219.658 45.3984H148.012L147.73 48.8232Z" fill="#EBEBEB"/>
<path opacity="0.6" d="M147.73 54.4403H219.377L219.658 51.0156H148.012L147.73 54.4403Z" fill="#EBEBEB"/>
<path opacity="0.6" d="M147.73 60.0575H219.377L219.658 56.6328H148.012L147.73 60.0575Z" fill="#EBEBEB"/>
<path d="M211.999 145.432H196.977V148.394H211.999V145.432Z" fill="#E6E6E6"/>
<path d="M168.641 179.553H171.414V111.399H168.641V179.553Z" fill="#E6E6E6"/>
<path d="M159.032 148.393H196.973V145.431H159.032V148.393Z" fill="#F5F5F5"/>
<path d="M211.999 161.639H196.977V164.601H211.999V161.639Z" fill="#E6E6E6"/>
<path d="M159.032 164.6H196.973V161.638H159.032V164.6Z" fill="#F5F5F5"/>
<path d="M211.999 113.018H196.977V115.98H211.999V113.018Z" fill="#E6E6E6"/>
<path d="M159.032 115.979H196.973V113.017H159.032V115.979Z" fill="#F5F5F5"/>
<path d="M211.999 129.225H196.977V132.187H211.999V129.225Z" fill="#E6E6E6"/>
<path d="M159.032 132.186H196.973V129.224H159.032V132.186Z" fill="#F5F5F5"/>
<path d="M206.582 179.553H209.355V111.399H206.582V179.553Z" fill="#E6E6E6"/>
<path d="M194.203 179.553H196.977V111.399H194.203V179.553Z" fill="#F5F5F5"/>
<path d="M159.035 179.553H161.809V111.399H159.035V179.553Z" fill="#F5F5F5"/>
<path d="M33.9983 179.552H62.3789L62.3789 124.488H33.9983L33.9983 179.552Z" fill="#E6E6E6"/>
<path d="M41.5746 179.552H33.9961V171.95H49.5202L41.5746 179.552Z" fill="#FAFAFA"/>
<path d="M111.377 179.552H139.758V124.488H111.377V179.552Z" fill="#E6E6E6"/>
<path d="M33.9971 176.936H117.992V124.488H33.9971V176.936Z" fill="#FAFAFA"/>
<path d="M110.415 179.552H117.993V171.95H102.469L110.415 179.552Z" fill="#FAFAFA"/>
<path d="M39.8764 157.157H112.113V144.032H39.8764V157.157Z" fill="#F0F0F0"/>
<path d="M39.8764 173.087H112.113V159.962H39.8764V173.087Z" fill="#F0F0F0"/>
<path d="M53.6061 145.435H98.3822C99.6963 145.435 100.762 144.369 100.762 143.055V142.895H51.2266V143.055C51.2266 144.369 52.292 145.435 53.6061 145.435Z" fill="#FAFAFA"/>
<path d="M39.8764 141.227H112.113V128.101H39.8764V141.227Z" fill="#F0F0F0"/>
<path d="M53.6061 129.504H98.3822C99.6963 129.504 100.762 128.439 100.762 127.124V126.964H51.2266V127.124C51.2266 128.439 52.292 129.504 53.6061 129.504Z" fill="#FAFAFA"/>
<path d="M53.6061 161.366H98.3822C99.6963 161.366 100.762 160.3 100.762 158.986V158.826H51.2266V158.986C51.2266 160.3 52.292 161.366 53.6061 161.366Z" fill="#FAFAFA"/>
<path d="M38.514 71.2148L110.16 71.2148V24.2968L38.514 24.2968V71.2148Z" fill="#E6E6E6"/>
<path d="M36.3302 71.2148L109.141 71.2148V24.2968L36.3302 24.2968V71.2148Z" fill="#F0F0F0"/>
<path d="M38.514 80.4229L110.16 80.4229V71.2147L38.514 71.2147V80.4229Z" fill="#E6E6E6"/>
<path d="M32.6857 80.4229L105.496 80.4229V71.2147L32.6857 71.2147V80.4229Z" fill="#F0F0F0"/>
<path d="M106.078 68.1555L106.078 27.3584L39.3886 27.3584L39.3886 68.1555L106.078 68.1555Z" fill="#FAFAFA"/>
<path d="M91.0403 68.1555L82.5222 27.3584H69.2305L77.7486 68.1555H91.0403Z" fill="white"/>
<path d="M104.66 65.1086C104.781 65.1086 104.879 65.0109 104.879 64.8902V29.3493C104.879 29.2286 104.781 29.1309 104.66 29.1309C104.54 29.1309 104.441 29.2286 104.441 29.3493V64.8902C104.442 65.0109 104.54 65.1086 104.66 65.1086Z" fill="#F0F0F0"/>
<path d="M74.8913 68.1555L66.3732 27.3584H61.1914L69.7095 68.1555H74.8913Z" fill="white"/>
<path d="M39.7773 68.1555L39.7773 27.3584H39.3889L39.3889 68.1555H39.7773Z" fill="#E6E6E6"/>
<path opacity="0.6" d="M35.6055 31.9726H107.252L107.533 28.5479H35.8873L35.6055 31.9726Z" fill="#EBEBEB"/>
<path opacity="0.6" d="M35.6055 33.9047H107.252L107.533 30.4795H35.8873L35.6055 33.9047Z" fill="#EBEBEB"/>
<path opacity="0.6" d="M35.6055 35.8368H107.252L107.533 32.4121H35.8873L35.6055 35.8368Z" fill="#EBEBEB"/>
<path opacity="0.6" d="M35.6055 37.769H107.252L107.533 34.3438H35.8873L35.6055 37.769Z" fill="#EBEBEB"/>
<path opacity="0.6" d="M35.6055 39.7001H107.252L107.533 36.2754H35.8873L35.6055 39.7001Z" fill="#EBEBEB"/>
<path opacity="0.6" d="M35.6055 41.6327H107.252L107.533 38.208H35.8873L35.6055 41.6327Z" fill="#EBEBEB"/>
<path d="M49.9256 122.807H52.4023V95.1988H49.9256V122.807Z" fill="#F5F5F5"/>
<path d="M50.2459 122.787H50.9453V95.1793H50.2459V122.787Z" fill="#FAFAFA"/>
<path d="M51.2377 122.788H51.5117V95.1802H51.2377V122.788Z" fill="#FAFAFA"/>
<path d="M41.9961 124.489H60.3334C60.3334 123.213 59.2991 122.179 58.023 122.179H44.3065C43.0304 122.179 41.9961 123.213 41.9961 124.489Z" fill="#F0F0F0"/>
<path d="M46.7124 112.338C47.1045 112.338 47.4248 112.017 47.4248 111.625V93.5239C47.4248 93.1324 47.104 92.8115 46.7124 92.8115C46.3203 92.8115 46 93.1324 46 93.5239V111.625C46 112.017 46.3203 112.338 46.7124 112.338Z" fill="#F0F0F0"/>
<path d="M40.0781 101.761H62.252L59.7014 86.2656H42.6287L40.0781 101.761Z" fill="#E0E0E0"/>
<path d="M129.998 203.037C185.681 203.037 230.82 200.401 230.82 197.149C230.82 193.897 185.681 191.261 129.998 191.261C74.3155 191.261 29.1758 193.897 29.1758 197.149C29.1758 200.401 74.3155 203.037 129.998 203.037Z" fill="#F5F5F5"/>
<path d="M67.0772 89.8513L66.5586 89.8887L67.2489 99.478L67.7675 99.4406L67.0772 89.8513Z" fill="#407BFF"/>
<path d="M68.1319 104.387L67.6133 104.425L67.8733 108.032L68.392 107.995L68.1319 104.387Z" fill="#407BFF"/>
<path d="M188.552 148.507H77.1901C74.6712 148.507 72.4622 146.446 72.2808 143.928L66.8088 67.94C66.6273 65.4211 68.5399 63.3604 71.0588 63.3604H182.421C184.94 63.3604 187.149 65.4211 187.33 67.94L192.802 143.928C192.983 146.446 191.071 148.507 188.552 148.507Z" fill="#407BFF"/>
<path d="M188.978 148.507H77.6159C75.097 148.507 72.888 146.446 72.7065 143.928L67.2346 67.94C67.0531 65.4211 68.9657 63.3604 71.4845 63.3604H182.847C185.366 63.3604 187.575 65.4211 187.756 67.94L193.228 143.928C193.409 146.446 191.497 148.507 188.978 148.507Z" fill="#407BFF"/>
<path opacity="0.5" d="M188.978 148.507H77.6159C75.097 148.507 72.888 146.446 72.7065 143.928L67.2346 67.94C67.0531 65.4211 68.9657 63.3604 71.4845 63.3604H182.847C185.366 63.3604 187.575 65.4211 187.756 67.94L193.228 143.928C193.409 146.446 191.497 148.507 188.978 148.507Z" fill="white"/>
<path d="M183.013 65.6504H71.6508C71.525 65.6504 71.4007 65.6556 71.278 65.6655C68.4315 65.9 69.0128 70.23 71.8858 70.23H183.438C186.311 70.23 186.269 65.9 183.388 65.6655C183.264 65.6556 183.139 65.6504 183.013 65.6504Z" fill="#407BFF"/>
<path d="M74.5517 67.9405C74.5933 68.5203 74.1576 68.9904 73.5772 68.9904C72.9974 68.9904 72.4936 68.5203 72.452 67.9405C72.4104 67.3607 72.8461 66.8906 73.4264 66.8906C74.0068 66.8906 74.5101 67.3602 74.5517 67.9405Z" fill="#FAFAFA"/>
<path d="M78.122 67.9405C78.1636 68.5203 77.7279 68.9904 77.1476 68.9904C76.5678 68.9904 76.0639 68.5203 76.0223 67.9405C75.9807 67.3607 76.4164 66.8906 76.9968 66.8906C77.5766 66.8906 78.0804 67.3602 78.122 67.9405Z" fill="#FAFAFA"/>
<path d="M81.6929 67.9405C81.7345 68.5203 81.2982 68.9904 80.7184 68.9904C80.1386 68.9904 79.6347 68.5203 79.5926 67.9405C79.551 67.3607 79.9873 66.8906 80.5671 66.8906C81.1469 66.8906 81.6507 67.3602 81.6929 67.9405Z" fill="#FAFAFA"/>
<path d="M186.025 140.924H79.4758C78.5591 140.924 77.7619 140.18 77.6959 139.264L73.1958 76.7736C73.1297 75.8569 73.8198 75.1133 74.7365 75.1133H181.286C182.203 75.1133 183 75.8564 183.066 76.7736L187.566 139.264C187.632 140.18 186.942 140.924 186.025 140.924Z" fill="white"/>
<path d="M141.132 117.119L139.398 93.0328L134.142 89.8691H119.684L121.646 117.119H141.132Z" fill="white"/>
<path d="M141.134 117.371H121.648C121.516 117.371 121.406 117.269 121.397 117.137L119.434 89.8871C119.429 89.8174 119.454 89.7482 119.501 89.6973C119.549 89.6458 119.616 89.6172 119.686 89.6172H134.144C134.19 89.6172 134.235 89.6297 134.274 89.6536L139.53 92.8167C139.6 92.8589 139.645 92.9327 139.651 93.0143L141.385 117.1C141.39 117.17 141.366 117.239 141.318 117.29C141.271 117.342 141.204 117.371 141.134 117.371ZM121.882 116.867H140.863L139.157 93.1813L134.074 90.1211H119.956L121.882 116.867Z" fill="#407BFF"/>
<path d="M139.401 93.0328L134.145 89.8691L136.074 94.0603L139.401 93.0328Z" fill="#EBEBEB"/>
<path d="M136.072 94.3119C135.976 94.3119 135.886 94.2562 135.844 94.1652L133.914 89.9745C133.868 89.8742 133.892 89.7551 133.975 89.6813C134.057 89.6074 134.178 89.5965 134.273 89.6532L139.528 92.8169C139.614 92.8678 139.66 92.9645 139.648 93.0633C139.636 93.1621 139.568 93.2443 139.473 93.2734L136.147 94.3009C136.122 94.3082 136.097 94.3119 136.072 94.3119ZM134.714 90.507L136.209 93.7539L138.786 92.9578L134.714 90.507Z" fill="#407BFF"/>
<path d="M127.841 102.146C127.885 102.754 127.428 103.247 126.819 103.247C126.211 103.247 125.683 102.754 125.64 102.146C125.596 101.538 126.053 101.045 126.661 101.045C127.269 101.045 127.798 101.538 127.841 102.146Z" fill="#407BFF"/>
<path d="M134.982 102.146C135.026 102.754 134.569 103.247 133.961 103.247C133.353 103.247 132.824 102.754 132.78 102.146C132.737 101.538 133.194 101.045 133.802 101.045C134.41 101.045 134.939 101.538 134.982 102.146Z" fill="#407BFF"/>
<path d="M136.999 109.285C136.868 109.285 136.758 109.184 136.748 109.051C136.62 107.281 133.845 105.841 130.56 105.841C128.384 105.841 126.43 106.488 125.461 107.53C125.03 107.993 124.83 108.492 124.868 109.015C124.878 109.154 124.773 109.274 124.634 109.284C124.495 109.293 124.375 109.19 124.365 109.051C124.318 108.392 124.569 107.748 125.091 107.186C126.153 106.045 128.248 105.337 130.56 105.337C134.163 105.337 137.102 106.953 137.251 109.014C137.26 109.153 137.156 109.274 137.017 109.284C137.011 109.285 137.005 109.285 136.999 109.285Z" fill="#407BFF"/>
<path d="M123.784 99.9163C123.722 99.9163 123.661 99.894 123.612 99.8492C123.51 99.7546 123.504 99.595 123.598 99.4931L124.703 98.3033C124.798 98.2009 124.957 98.1957 125.059 98.2898C125.161 98.3844 125.167 98.5441 125.073 98.646L123.969 99.8357C123.919 99.8893 123.851 99.9163 123.784 99.9163Z" fill="#407BFF"/>
<path d="M136.481 99.9163C136.42 99.9163 136.358 99.894 136.309 99.8487L135.033 98.659C134.931 98.5643 134.926 98.4047 135.021 98.3028C135.115 98.2008 135.275 98.1956 135.377 98.2903L136.653 99.48C136.754 99.5747 136.76 99.7343 136.665 99.8362C136.616 99.8893 136.549 99.9163 136.481 99.9163Z" fill="#407BFF"/>
<path d="M118.113 122.503H119.288L120.984 124.757L120.822 122.503H122.008L122.301 126.576H121.115L119.428 124.34L119.59 126.576H118.406L118.113 122.503Z" fill="#407BFF"/>
<path d="M122.833 124.542C122.785 123.877 122.933 123.359 123.277 122.988C123.621 122.618 124.124 122.433 124.785 122.433C125.463 122.433 125.998 122.615 126.391 122.979C126.784 123.343 127.004 123.852 127.051 124.508C127.086 124.984 127.034 125.374 126.895 125.679C126.757 125.984 126.543 126.221 126.252 126.39C125.961 126.56 125.59 126.645 125.138 126.645C124.679 126.645 124.293 126.571 123.982 126.425C123.67 126.279 123.41 126.047 123.2 125.73C122.99 125.414 122.867 125.018 122.833 124.542ZM124.092 124.547C124.122 124.959 124.219 125.254 124.385 125.434C124.551 125.613 124.765 125.703 125.028 125.703C125.298 125.703 125.501 125.615 125.637 125.439C125.773 125.263 125.824 124.947 125.791 124.491C125.763 124.108 125.665 123.828 125.498 123.651C125.331 123.474 125.114 123.386 124.85 123.386C124.596 123.386 124.399 123.476 124.258 123.655C124.117 123.836 124.062 124.132 124.092 124.547Z" fill="#407BFF"/>
<path d="M129.5 122.503H131.37C131.739 122.503 132.04 122.553 132.274 122.653C132.508 122.753 132.706 122.896 132.868 123.083C133.03 123.27 133.153 123.488 133.237 123.736C133.322 123.984 133.374 124.248 133.394 124.525C133.425 124.96 133.401 125.298 133.318 125.538C133.237 125.778 133.113 125.979 132.949 126.141C132.785 126.303 132.604 126.411 132.406 126.464C132.135 126.539 131.888 126.576 131.664 126.576H129.794L129.5 122.503ZM130.825 123.425L130.985 125.651H131.293C131.557 125.651 131.741 125.622 131.848 125.564C131.955 125.505 132.035 125.403 132.088 125.258C132.14 125.112 132.155 124.877 132.131 124.551C132.1 124.119 132.008 123.824 131.856 123.665C131.704 123.505 131.465 123.426 131.139 123.426H130.825V123.425Z" fill="#407BFF"/>
<path d="M136.411 125.903H134.982L134.832 126.575H133.547L134.784 122.502H136.157L137.981 126.575H136.663L136.411 125.903ZM136.087 125.022L135.531 123.558L135.192 125.022H136.087Z" fill="#407BFF"/>
<path d="M137.41 122.503H141.236L141.308 123.509H140.025L140.246 126.576H138.987L138.766 123.509H137.483L137.41 122.503Z" fill="#407BFF"/>
<path d="M144.169 125.903H142.74L142.59 126.575H141.305L142.542 122.502H143.915L145.739 126.575H144.421L144.169 125.903ZM143.844 125.022L143.29 123.558L142.95 125.022H143.844Z" fill="#407BFF"/>
</svg>
