<svg width="260" height="225" viewBox="0 0 260 225" fill="none" xmlns="http://www.w3.org/2000/svg">
<path d="M146.214 18.0153C146.214 18.1083 146.214 18.1958 146.225 18.2888H204.986C204.834 13.4452 200.616 9.56136 195.445 9.56136C193.786 9.56136 192.231 9.95993 190.873 10.657C190.945 6.88755 189.132 3.27719 185.795 1.33976C180.787 -1.56283 174.237 0.406781 171.17 5.74189C170.248 7.35046 169.74 9.08057 169.626 10.7982C167.182 9.67932 164.155 9.01444 160.87 9.01444C152.775 9.01444 146.214 13.0466 146.214 18.0153Z" fill="#EBEBFF"/>
<path d="M48.4537 155.324H0L0.00536168 155.15C0.134047 151.05 3.64073 147.838 7.98744 147.838C9.22783 147.838 10.4575 148.114 11.5638 148.634C11.596 145.495 13.2046 142.637 15.8087 141.127C17.7479 140.003 20.041 139.713 22.2644 140.31C24.6862 140.959 26.7291 142.552 28.0177 144.795C28.7326 146.042 29.158 147.377 29.2849 148.77C31.3492 147.867 33.771 147.392 36.309 147.392C43.0221 147.392 48.4823 150.775 48.4823 154.932C48.4823 155.014 48.4823 155.093 48.4716 155.175L48.4537 155.324ZM0.348523 154.989H48.1463C48.1463 154.972 48.1463 154.952 48.1463 154.934C48.1463 150.961 42.8362 147.729 36.3072 147.729C33.7281 147.729 31.2724 148.23 29.2045 149.175L28.9829 149.277L28.9668 149.036C28.872 147.608 28.4538 146.239 27.7246 144.966C26.4806 142.802 24.5092 141.265 22.175 140.639C20.0374 140.065 17.8355 140.344 15.9749 141.422C13.4012 142.914 11.8391 145.783 11.8981 148.905L11.9034 149.186L11.6532 149.057C10.5326 148.482 9.26536 148.178 7.98566 148.178C3.8838 148.174 0.562999 151.154 0.348523 154.989Z" fill="#9192FF"/>
<mask id="mask0_11480_4430" style="mask-type:luminance" maskUnits="userSpaceOnUse" x="69" y="98" width="136" height="81">
<path d="M69.2021 168.621C69.2021 174.331 73.8313 178.96 79.5417 178.96H194.388C200.099 178.96 204.728 174.331 204.728 168.621V98.7441H69.2021V168.621Z" fill="white"/>
</mask>
<g mask="url(#mask0_11480_4430)">
<path d="M69.2021 168.621C69.2021 174.331 73.8313 178.96 79.5417 178.96H194.388C200.099 178.96 204.728 174.331 204.728 168.621V98.7441H69.2021V168.621Z" fill="white"/>
</g>
<mask id="mask1_11480_4430" style="mask-type:luminance" maskUnits="userSpaceOnUse" x="69" y="98" width="136" height="81">
<path d="M69.2021 168.621C69.2021 174.331 73.8313 178.96 79.5417 178.96H194.388C200.099 178.96 204.728 174.331 204.728 168.621V98.7441H69.2021V168.621Z" fill="white"/>
</mask>
<g mask="url(#mask1_11480_4430)">
<path d="M62.1101 116.562C63.6937 111.483 68.7071 107.584 74.1816 107.172C79.6579 106.759 85.2467 109.858 87.6435 114.637C90.5568 114.61 93.429 116.226 94.8445 118.689C96.2601 121.152 96.16 124.358 94.5943 126.73C98.0653 127.331 101.179 129.615 102.714 132.682C104.249 135.749 104.165 139.524 102.496 142.519C106.315 140.578 111.198 140.755 114.862 142.966C118.526 145.179 120.835 149.343 120.707 153.515C123.086 149.783 127.647 147.457 132.181 147.665C136.716 147.872 141.039 150.601 143.055 154.533C145.184 148.163 150.86 143.023 157.575 141.379C164.292 139.736 171.825 141.645 176.851 146.263C184.41 147.447 189.92 155.654 187.95 162.798C192.034 166.178 194.12 171.67 193.268 176.794C192.413 181.917 188.649 186.492 183.677 188.449L53.6169 188.365L42.5303 138.744L62.1101 116.562Z" fill="#D1D1FF"/>
</g>
<mask id="mask2_11480_4430" style="mask-type:luminance" maskUnits="userSpaceOnUse" x="69" y="98" width="136" height="81">
<path d="M69.2021 168.621C69.2021 174.331 73.8313 178.96 79.5417 178.96H194.388C200.099 178.96 204.728 174.331 204.728 168.621V98.7441H69.2021V168.621Z" fill="white"/>
</mask>
<g mask="url(#mask2_11480_4430)">
<g opacity="0.8">
<path d="M60.0483 133.041C61.5836 127.96 66.4289 124.058 71.7193 123.64C77.0097 123.224 82.4074 126.317 84.7184 131.095C87.5334 131.066 90.3073 132.678 91.6727 135.141C93.0382 137.602 92.9399 140.811 91.4243 143.182C94.7773 143.781 97.7835 146.062 99.2652 149.129C100.747 152.196 100.663 155.969 99.0471 158.966C102.738 157.021 107.456 157.195 110.995 159.404C114.534 161.613 116.761 165.777 116.634 169.947C118.934 166.214 123.344 163.885 127.724 164.088C132.105 164.292 136.278 167.018 138.225 170.948C140.286 164.578 145.774 159.431 152.264 157.783C158.754 156.135 166.032 158.038 170.884 162.653C178.185 163.829 183.502 172.033 181.594 179.179C185.536 182.555 187.549 188.046 186.72 193.17C185.89 198.294 182.25 202.871 177.445 204.832L51.7891 204.852L41.1172 155.24L60.0483 133.041Z" fill="white"/>
</g>
</g>
<mask id="mask3_11480_4430" style="mask-type:luminance" maskUnits="userSpaceOnUse" x="69" y="98" width="136" height="81">
<path d="M69.2021 168.621C69.2021 174.331 73.8313 178.96 79.5417 178.96H194.388C200.099 178.96 204.728 174.331 204.728 168.621V98.7441H69.2021V168.621Z" fill="white"/>
</mask>
<g mask="url(#mask3_11480_4430)">
<path opacity="0.7" d="M159.948 100.979C122.305 136.379 95.6122 145.923 61.9841 149.337L59.75 185.083L95.0492 197.147C125.88 196.254 155.483 151.621 173.769 113.332L159.948 100.979Z" fill="#FFF2E0"/>
<path d="M165.249 101.44C159.13 108.681 149.9 115.607 139.014 124.961L153.868 118.908C152.047 121.927 149.394 126.15 147.907 127.962C151.33 126.382 156.84 122.906 158.665 121.061C158.663 123.633 155.566 127.935 154.215 130.286C162.138 123.505 169.344 115.228 171.673 107.955L165.249 101.44Z" fill="#FFA121"/>
<path opacity="0.4" d="M166.984 101.808C163.365 106.607 157.946 111.232 151.542 117.463L160.21 113.35C159.124 115.343 157.544 118.133 156.664 119.334C158.664 118.265 161.892 115.934 162.968 114.71C162.941 116.392 161.102 119.239 160.294 120.791C164.954 116.274 169.215 110.785 170.639 106.004L166.984 101.808Z" fill="white"/>
</g>
<mask id="mask4_11480_4430" style="mask-type:luminance" maskUnits="userSpaceOnUse" x="69" y="98" width="136" height="81">
<path d="M69.2021 168.621C69.2021 174.331 73.8313 178.96 79.5417 178.96H194.388C200.099 178.96 204.728 174.331 204.728 168.621V98.7441H69.2021V168.621Z" fill="white"/>
</mask>
<g mask="url(#mask4_11480_4430)">
<path d="M110.775 126.398C110.823 127.517 110.773 129.407 109.656 130.054C107.79 131.135 106.321 128.511 105.636 127.192C104.82 125.617 105.029 123.664 106.877 122.961C109.318 122.036 110.685 124.311 110.775 126.398Z" fill="#D1D1FF"/>
</g>
<mask id="mask5_11480_4430" style="mask-type:luminance" maskUnits="userSpaceOnUse" x="69" y="98" width="136" height="81">
<path d="M69.2021 168.621C69.2021 174.331 73.8313 178.96 79.5417 178.96H194.388C200.099 178.96 204.728 174.331 204.728 168.621V98.7441H69.2021V168.621Z" fill="white"/>
</mask>
<g mask="url(#mask5_11480_4430)">
<path d="M199.268 160.378C199.316 161.497 199.266 163.386 198.149 164.033C196.283 165.114 194.814 162.491 194.129 161.172C193.313 159.597 193.522 157.643 195.37 156.941C197.811 156.015 199.179 158.29 199.268 160.378Z" fill="#D1D1FF"/>
</g>
<mask id="mask6_11480_4430" style="mask-type:luminance" maskUnits="userSpaceOnUse" x="69" y="98" width="136" height="81">
<path d="M69.2021 168.621C69.2021 174.331 73.8313 178.96 79.5417 178.96H194.388C200.099 178.96 204.728 174.331 204.728 168.621V98.7441H69.2021V168.621Z" fill="white"/>
</mask>
<g mask="url(#mask6_11480_4430)">
<path d="M100.857 115.304C101.721 115.304 102.421 114.603 102.421 113.74C102.421 112.876 101.721 112.176 100.857 112.176C99.9931 112.176 99.293 112.876 99.293 113.74C99.293 114.603 99.9931 115.304 100.857 115.304Z" fill="#D1D1FF"/>
</g>
<mask id="mask7_11480_4430" style="mask-type:luminance" maskUnits="userSpaceOnUse" x="61" y="92" width="155" height="130">
<path d="M92.6918 215.317C95.2335 220.43 101.439 222.515 106.553 219.974L209.398 168.855C214.512 166.313 216.597 160.108 214.055 154.994L182.953 92.4196L61.5898 152.742L92.6918 215.317Z" fill="white"/>
</mask>
<g mask="url(#mask7_11480_4430)">
<path d="M181.458 144.088C182.636 143.503 183.116 142.074 182.53 140.896C181.945 139.719 180.516 139.239 179.339 139.824C178.162 140.409 177.681 141.838 178.267 143.016C178.852 144.193 180.281 144.673 181.458 144.088Z" fill="#D1D1FF"/>
</g>
<path d="M194.388 179.183H79.5415C73.7166 179.183 68.9785 174.445 68.9785 168.62V98.5205H204.951V168.62C204.951 174.443 200.213 179.183 194.388 179.183ZM69.4253 98.9673V168.62C69.4253 174.199 73.9633 178.737 79.5415 178.737H194.388C199.966 178.737 204.504 174.199 204.504 168.62V98.9673H69.4253Z" fill="#9192FF"/>
<path d="M194.388 71.6729H79.5417C73.8313 71.6729 69.2021 76.3002 69.2021 82.0124V98.7452H204.728V82.0124C204.728 76.3002 200.099 71.6729 194.388 71.6729Z" fill="white"/>
<path d="M204.951 98.9684H68.9785V82.0122C68.9785 76.1874 73.7166 71.4492 79.5415 71.4492H194.388C200.213 71.4492 204.951 76.1874 204.951 82.0122V98.9684ZM69.4253 98.5215H204.504V82.0122C204.504 76.434 199.966 71.896 194.388 71.896H79.5415C73.9633 71.896 69.4253 76.434 69.4253 82.0122V98.5215Z" fill="#9192FF"/>
<path d="M88.4094 86.3389C89.0322 83.2705 87.0496 80.2781 83.9811 79.6554C80.9126 79.0326 77.9203 81.0152 77.2976 84.0837C76.6748 87.1522 78.6574 90.1445 81.7258 90.7673C84.7943 91.3901 87.7866 89.4074 88.4094 86.3389Z" fill="#D1D1FF"/>
<path d="M103.56 89.2187C105.774 87.0048 105.774 83.4152 103.56 81.2012C101.346 78.9872 97.756 78.9872 95.542 81.2012C93.328 83.4152 93.328 87.0048 95.542 89.2187C97.756 91.4327 101.346 91.4327 103.56 89.2187Z" fill="white"/>
<path d="M99.5529 91.1019C96.3036 91.1019 93.6602 88.4585 93.6602 85.2092C93.6602 81.9598 96.3036 79.3164 99.5529 79.3164C102.802 79.3164 105.446 81.9598 105.446 85.2092C105.444 88.4585 102.802 91.1019 99.5529 91.1019ZM99.5529 79.765C96.5502 79.765 94.107 82.2083 94.107 85.2109C94.107 88.2136 96.5502 90.6569 99.5529 90.6569C102.556 90.6569 104.999 88.2136 104.999 85.2109C104.999 82.2083 102.556 79.765 99.5529 79.765Z" fill="#9192FF"/>
<path d="M142.706 90.6192H120.136C117.147 90.6192 114.726 88.1974 114.726 85.209C114.726 82.2206 117.147 79.7988 120.136 79.7988H142.706C145.694 79.7988 148.116 82.2206 148.116 85.209C148.116 88.1956 145.694 90.6192 142.706 90.6192Z" fill="white"/>
<path d="M142.705 90.8424H120.135C117.028 90.8424 114.501 88.3151 114.501 85.2088C114.501 82.1024 117.028 79.5752 120.135 79.5752H142.705C145.811 79.5752 148.338 82.1024 148.338 85.2088C148.338 88.3151 145.811 90.8424 142.705 90.8424ZM120.133 80.0202C117.273 80.0202 114.946 82.3473 114.946 85.207C114.946 88.0667 117.273 90.3937 120.133 90.3937H142.703C145.562 90.3937 147.89 88.0667 147.89 85.207C147.89 82.3473 145.562 80.0202 142.703 80.0202H120.133Z" fill="#9192FF"/>
<path d="M188.768 59.3389C179.717 67.262 164.107 61.8 159.256 68.1271L173.116 79.1029L188.768 59.3389Z" fill="#4584FF"/>
<path d="M159.256 68.1279C158.562 69.9742 158.938 72.0511 160.235 73.5363L170.056 84.7856L173.116 79.1038L159.256 68.1279Z" fill="#D1D1FF"/>
<path d="M209.282 75.584C203.645 86.2095 212.539 100.152 207.491 106.324L193.631 95.348L209.282 75.584Z" fill="#4584FF"/>
<path d="M207.491 106.323C205.853 107.421 203.744 107.532 202.002 106.609L188.801 99.6283L193.63 95.3477L207.491 106.323Z" fill="#D1D1FF"/>
<path d="M216.325 45.7217L203.983 50.2507L214.743 58.7708L216.325 45.7217Z" fill="#1B1B43"/>
<path d="M214.743 58.7709C213.019 78.2972 198.592 96.5188 181.067 106.639L165.098 94.0058C171.798 72.9246 184.277 57.8379 203.982 50.249L214.743 58.7709Z" fill="#C5C5FF"/>
<path d="M165.098 94.0088L158.171 98.8041L177.983 114.493L181.066 106.641L165.098 94.0088Z" fill="#4584FF"/>
<path d="M200.227 74.504C204.292 74.0205 207.195 70.3334 206.712 66.2686C206.228 62.2037 202.541 59.3004 198.476 59.7838C194.411 60.2673 191.508 63.9544 191.992 68.0193C192.475 72.0841 196.162 74.9874 200.227 74.504Z" fill="white"/>
<path d="M199.91 72.4096L199.864 71.9645C200.289 71.9198 200.705 71.818 201.106 71.6625L201.267 72.0789C200.832 72.2487 200.375 72.3595 199.91 72.4096ZM198.516 72.3738C198.053 72.3005 197.604 72.1665 197.179 71.9735L197.363 71.566C197.753 71.7411 198.164 71.8644 198.586 71.9324L198.516 72.3738ZM202.489 71.4069L202.225 71.0476C202.566 70.7938 202.875 70.4954 203.142 70.1593L203.492 70.4364C203.201 70.8046 202.865 71.1316 202.489 71.4069ZM195.994 71.2353C195.631 70.9368 195.311 70.5937 195.041 70.2148L195.406 69.9556C195.653 70.3023 195.946 70.6169 196.278 70.8903L195.994 71.2353ZM204.037 69.5963L203.64 69.3908C203.837 69.0119 203.983 68.608 204.075 68.1897L204.511 68.2845C204.412 68.7402 204.253 69.1817 204.037 69.5963ZM194.393 68.9815C194.232 68.5436 194.13 68.0861 194.089 67.6196L194.534 67.5803C194.571 68.0074 194.664 68.4274 194.813 68.8278L194.393 68.9815ZM204.18 66.9154C204.159 66.4864 204.08 66.0646 203.948 65.6589L204.373 65.5213C204.518 65.9645 204.602 66.4257 204.627 66.8921L204.18 66.9154ZM194.589 66.3041L194.15 66.2255C194.232 65.7644 194.375 65.3175 194.575 64.8957L194.979 65.087C194.797 65.473 194.664 65.8823 194.589 66.3041ZM203.397 64.5061C203.163 64.1504 202.882 63.8251 202.561 63.5392L202.857 63.2049C203.208 63.5159 203.515 63.8716 203.771 64.2612L203.397 64.5061ZM195.674 64.0146L195.335 63.7251C195.638 63.3694 195.987 63.0548 196.373 62.7921L196.625 63.162C196.273 63.4015 195.953 63.6893 195.674 64.0146ZM201.503 62.826C201.12 62.6348 200.713 62.4972 200.294 62.415L200.38 61.9771C200.838 62.0682 201.283 62.2201 201.701 62.4275L201.503 62.826ZM197.765 62.5883L197.619 62.1665C198.058 62.0146 198.52 61.9199 198.986 61.8877L199.018 62.3345C198.591 62.3631 198.169 62.4489 197.765 62.5883Z" fill="#9192FF"/>
<path d="M162.831 113.638L162.477 113.358C161.958 112.947 161.871 112.187 162.28 111.669L176.178 94.1174C176.589 93.5991 177.349 93.5115 177.867 93.9208L178.221 94.2014C178.739 94.6125 178.827 95.3721 178.418 95.8904L164.52 113.442C164.109 113.96 163.349 114.049 162.831 113.638Z" fill="#1B1B43"/>
<path d="M251.43 203.549H248.749V203.102H251.43V203.549ZM246.068 203.549H243.387V203.102H246.068V203.549ZM240.706 203.549H238.025V203.102H240.706V203.549ZM235.344 203.549H232.663V203.102H235.344V203.549ZM229.982 203.549H227.301V203.102H229.982V203.549ZM224.62 203.549H221.939V203.102H224.62V203.549ZM219.258 203.549H216.577V203.102H219.258V203.549ZM213.896 203.549H211.215V203.102H213.896V203.549ZM208.534 203.549H205.853V203.102H208.534V203.549ZM203.173 203.549H200.492V203.102H203.173V203.549ZM197.809 203.549C196.883 203.54 195.975 203.387 195.108 203.088L195.253 202.666C196.075 202.947 196.937 203.095 197.814 203.102L197.809 203.549ZM251.751 203.544L251.735 203.097C252.611 203.065 253.467 202.893 254.282 202.588L254.439 203.006C253.58 203.328 252.677 203.508 251.751 203.544ZM192.692 201.794C191.959 201.235 191.325 200.566 190.806 199.807L191.176 199.555C191.668 200.275 192.27 200.909 192.963 201.44L192.692 201.794ZM256.817 201.644L256.536 201.297C257.215 200.747 257.8 200.096 258.27 199.362L258.645 199.603C258.15 200.379 257.533 201.065 256.817 201.644ZM189.643 197.326C189.426 196.566 189.317 195.778 189.317 194.979V194.613H189.764V194.979C189.764 195.735 189.868 196.484 190.072 197.203L189.643 197.326ZM259.737 197.09L259.304 196.979C259.469 196.329 259.553 195.655 259.553 194.977V194.375H260V194.977C260 195.694 259.912 196.404 259.737 197.09ZM189.764 191.932H189.317V189.251H189.764V191.932ZM260 191.696H259.553V189.015H260V191.696ZM189.764 186.57H189.317V183.889H189.764V186.57ZM260 186.334H259.553V183.653H260V186.334ZM189.764 181.208H189.317V178.527H189.764V181.208ZM260 180.972H259.553V178.291H260V180.972ZM189.764 175.846H189.317V173.165H189.764V175.846ZM260 175.61H259.553V172.929H260V175.61ZM189.764 170.484H189.317V167.803H189.764V170.484ZM260 170.248H259.553V167.567H260V170.248ZM189.764 165.122H189.317V163.337C189.317 163.033 189.333 162.724 189.366 162.42L189.811 162.466C189.78 162.754 189.764 163.047 189.764 163.335V165.122ZM260 164.886H259.553V163.337C259.553 162.97 259.528 162.6 259.48 162.238L259.923 162.179C259.975 162.559 260 162.949 260 163.337V164.886ZM190.497 159.962L190.09 159.776C190.472 158.94 190.985 158.173 191.614 157.498L191.941 157.801C191.344 158.443 190.858 159.169 190.497 159.962ZM258.722 159.755C258.338 158.974 257.83 158.261 257.217 157.637L257.535 157.324C258.182 157.982 258.716 158.734 259.122 159.558L258.722 159.755ZM193.989 156.207L193.775 155.816C194.583 155.372 195.453 155.065 196.359 154.902L196.438 155.342C195.58 155.498 194.756 155.787 193.989 156.207ZM255.124 156.1C254.347 155.703 253.515 155.435 252.652 155.305L252.718 154.863C253.63 155.001 254.507 155.283 255.328 155.701L255.124 156.1ZM250.009 155.213H247.328V154.767H250.009V155.213ZM244.647 155.213H241.966V154.767H244.647V155.213ZM239.285 155.213H236.604V154.767H239.285V155.213ZM233.923 155.213H231.242V154.767H233.923V155.213ZM228.561 155.213H225.88V154.767H228.561V155.213ZM223.199 155.213H220.518V154.767H223.199V155.213ZM217.837 155.213H215.156V154.767H217.837V155.213ZM212.475 155.213H209.794V154.767H212.475V155.213ZM207.114 155.213H204.433V154.767H207.114V155.213ZM201.752 155.213H199.071V154.767H201.752V155.213Z" fill="#9192FF"/>
<path d="M246.54 195.805H189.498C185.854 195.805 182.901 192.851 182.901 189.208V152.737C182.901 149.092 185.856 146.14 189.498 146.14H246.54C250.184 146.14 253.137 149.094 253.137 152.737V189.208C253.137 192.851 250.184 195.805 246.54 195.805Z" fill="#9192FF"/>
<path d="M202.719 175.15H195.114V190.595H202.719V175.15Z" fill="white"/>
<path d="M215.453 175.645H207.848V190.594H215.453V175.645Z" fill="white"/>
<path d="M228.189 167.837H220.584V190.595H228.189V167.837Z" fill="white"/>
<path d="M240.926 161.16H233.321V190.594H240.926V161.16Z" fill="white"/>
<path d="M238.422 153.135H197.616V154.918H238.422V153.135Z" fill="white"/>
<path d="M73.4909 59.6275C61.9396 59.6275 52.542 50.2298 52.542 38.6785C52.542 27.1271 61.9396 17.7295 73.4909 17.7295C85.0423 17.7295 94.4399 27.1271 94.4399 38.6785C94.4399 50.2298 85.0423 59.6275 73.4909 59.6275ZM73.4909 18.1745C62.1863 18.1745 52.9888 27.372 52.9888 38.6767C52.9888 49.9814 62.1863 59.1789 73.4909 59.1789C84.7956 59.1789 93.9931 49.9814 93.9931 38.6767C93.9931 27.372 84.7956 18.1745 73.4909 18.1745Z" fill="#9192FF"/>
<path d="M87.6567 53.2628C100.245 53.2628 110.45 43.0578 110.45 30.4693C110.45 17.8808 100.245 7.67578 87.6567 7.67578C75.0683 7.67578 64.8633 17.8808 64.8633 30.4693C64.8633 43.0578 75.0683 53.2628 87.6567 53.2628Z" fill="#EBEBFF"/>
<path d="M87.6663 30.8993L75.0283 20.994L75.443 20.4668L87.6484 30.036L94.4563 24.272L94.8888 24.7831L87.6663 30.8993Z" fill="#1B1B43"/>
<path d="M28.5068 79.625H16.9322C15.0698 79.625 13.5596 81.1353 13.5596 82.9976V94.5722C13.5596 96.4346 15.0698 97.9449 16.9322 97.9449H25.1931L28.7516 102.86V97.9324C30.4996 97.8073 31.8794 96.3524 31.8794 94.5722V82.9976C31.8794 81.1353 30.3691 79.625 28.5068 79.625Z" fill="white"/>
<path d="M28.9738 103.55L25.0775 98.1681H16.931C14.9489 98.1681 13.335 96.5541 13.335 94.572V82.9974C13.335 81.0153 14.9489 79.4014 16.931 79.4014H28.5056C30.4877 79.4014 32.1016 81.0153 32.1016 82.9974V94.572C32.1016 96.3772 30.7433 97.9018 28.9738 98.1341V103.55ZM16.931 79.8482C15.1938 79.8482 13.7818 81.2602 13.7818 82.9974V94.572C13.7818 96.3093 15.1938 97.7212 16.931 97.7212H25.3063L28.527 102.17V97.723L28.7343 97.7087C30.3715 97.5908 31.6548 96.2128 31.6548 94.572V82.9974C31.6548 81.2602 30.2428 79.8482 28.5056 79.8482H16.931Z" fill="#9192FF"/>
<path d="M22.4813 94.7426L17.8486 88.051L18.9496 87.286L22.3598 92.2118L27.4947 83.0215L28.6654 83.6756L22.4813 94.7426Z" fill="#9192FF"/>
</svg>
