<svg viewBox="0 0 23 22" fill="none" xmlns="http://www.w3.org/2000/svg" aria-hidden="true" role="img">
  <path d="M7.61794 6.832C7.61794 6.832 3.4046 7.29867 0.593937 7.61067C0.340603 7.64133 0.116603 7.81067 0.0326035 8.068C-0.0513965 8.32533 0.0326033 8.59333 0.21927 8.76267C2.30727 10.668 5.4446 13.5213 5.4446 13.5213C5.44194 13.5213 4.58327 17.672 4.0126 20.4413C3.9646 20.692 4.05527 20.9573 4.27394 21.116C4.49127 21.2747 4.77127 21.2773 4.99127 21.1533C7.44994 19.756 11.1326 17.6547 11.1326 17.6547C11.1326 17.6547 14.8166 19.756 17.2713 21.1547C17.4953 21.2773 17.7753 21.2747 17.9926 21.116C18.2113 20.9573 18.3019 20.692 18.2526 20.4427C17.6819 17.672 16.8246 13.5213 16.8246 13.5213C16.8246 13.5213 19.9619 10.668 22.0499 8.76667C22.2366 8.592 22.3193 8.324 22.2366 8.068C22.1539 7.812 21.9299 7.64267 21.6766 7.61333C18.8659 7.29867 14.6513 6.832 14.6513 6.832C14.6513 6.832 12.9046 2.968 11.7406 0.392C11.6313 0.161334 11.4019 0 11.1326 0C10.8633 0 10.6326 0.162667 10.5286 0.392C9.36327 2.968 7.61794 6.832 7.61794 6.832Z"
        fill="currentColor"/>
</svg>
