<svg xmlns="http://www.w3.org/2000/svg" viewBox="0 0 24 24">
  <path d="M12.866 20.5a1 1 0 0 1 1.732 1 3.001 3.001 0 0 1-5.196 0 1 1 0 0 1 1.732-1 1.001 1.001 0 0 0 1.732 0ZM21 8c0-2.054-.712-3.857-1.817-5.423a1.001 1.001 0 0 1 1.634-1.154C22.112 3.256 23 5.454 23 8a1 1 0 1 1-2 0Zm-4 0A5 5 0 1 0 7 8c0 2.354-.37 3.998-.967 5.264-.59 1.25-1.374 2.056-2.032 2.736H20c-.66-.68-1.442-1.487-2.032-2.736C17.369 11.998 17 10.354 17 8Zm2 0c0 2.145.336 3.479.775 4.41.33.699.738 1.212 1.201 1.715l.482.506.021.023a2 2 0 0 1-1.335 3.341L20 18H4a2.002 2.002 0 0 1-1.477-3.348l.02-.022c.665-.686 1.24-1.288 1.681-2.22.412-.873.733-2.1.772-4.017L5 8a7.002 7.002 0 0 1 11.95-4.95A7 7 0 0 1 19 8ZM1 8c0-2.546.888-4.744 2.183-6.577a1.001 1.001 0 0 1 1.634 1.154C3.712 4.143 3 5.946 3 8a1 1 0 1 1-2 0Z"/>
</svg>
