<svg xmlns="http://www.w3.org/2000/svg" viewBox="0 0 24 24">
  <path d="m8.482 8.21-7.024.78a.671.671 0 0 0-.561.457.66.66 0 0 0 .187.694A5306.9 5306.9 0 0 0 6.309 14.9c-.003 0-.861 4.15-1.432 6.92a.662.662 0 0 0 .979.712c2.458-1.397 6.14-3.499 6.14-3.499s3.685 2.102 6.14 3.5a.67.67 0 0 0 .72-.038.668.668 0 0 0 .26-.674c-.57-2.77-1.427-6.921-1.427-6.921s3.137-2.853 5.225-4.755a.67.67 0 0 0 .187-.698.665.665 0 0 0-.56-.455c-2.81-.315-7.026-.781-7.026-.781l-2.91-6.44a.674.674 0 0 0-.608-.392c-.27 0-.5.162-.604.392-1.166 2.576-2.91 6.44-2.91 6.44Z"/>
</svg>
