<svg xmlns="http://www.w3.org/2000/svg" width="15" height="15" fill="currentColor" viewBox="0 0 15 15" role="img" focusable="false" className="chakra-icon css-en-5xffi5" aria-hidden="true">
  <path d="M0 7.5A7.5 7.5 0 0 1 7.5 0h.003l.389.011a8.062 8.062 0 0 1 4.898 1.991l.295.273L14.78 3.97a.75.75 0 1 1-1.06 1.06l-1.686-1.686-.233-.214A6.563 6.563 0 0 0 7.498 1.5a6 6 0 0 0-5.998 6 .75.75 0 0 1-1.5 0"></path>
  <path d="M13.5.75a.75.75 0 0 1 1.5 0V4.5a.75.75 0 0 1-.75.75H10.5a.75.75 0 0 1 0-1.5h3zM13.5 7.5a.75.75 0 0 1 1.5 0A7.5 7.5 0 0 1 7.5 15h-.003a8.063 8.063 0 0 1-5.287-2.002l-.295-.273L.22 11.03a.75.75 0 1 1 1.06-1.06l1.686 1.686.233.214a6.562 6.562 0 0 0 4.302 1.63 6 6 0 0 0 5.999-6"></path>
  <path d="M0 14.25V10.5a.75.75 0 0 1 .75-.75H4.5a.75.75 0 0 1 0 1.5h-3v3a.75.75 0 0 1-1.5 0"></path>
</svg>
