<svg xmlns="http://www.w3.org/2000/svg" viewBox="0 0 24 24">
  <path d="M3.224 20V4A2.777 2.777 0 0 1 6 1.224h8a3.177 3.177 0 0 1 2.252.933l3.587 3.586.211.232A3.18 3.18 0 0 1 20.777 8v12A2.777 2.777 0 0 1 18 22.777H6A2.778 2.778 0 0 1 3.224 20Zm1.552 0A1.225 1.225 0 0 0 6 21.223h12A1.223 1.223 0 0 0 19.223 20V7.999a1.625 1.625 0 0 0-.478-1.154l-3.59-3.59A1.628 1.628 0 0 0 14 2.776H6A1.225 1.225 0 0 0 4.775 4v16Z"/>
  <path d="M13.153 7V2a.846.846 0 1 1 1.693 0v5c0 .04.017.08.046.108a.153.153 0 0 0 .107.045h5a.846.846 0 1 1 0 1.693h-5A1.846 1.846 0 0 1 13.153 7ZM10 8.224a.776.776 0 0 1 0 1.552H8a.776.776 0 1 1 0-1.552h2Zm6 4a.776.776 0 0 1 0 1.552H8a.776.776 0 1 1 0-1.552h8Zm0 4a.776.776 0 0 1 0 1.552H8a.776.776 0 1 1 0-1.552h8Z"/>
</svg>
