<svg xmlns="http://www.w3.org/2000/svg" viewBox="0 0 24 24">
  <path d="M13.998 9.153a.847.847 0 1 1 0 1.694h-4a.846.846 0 1 1 0-1.694h4ZM18.152 7V4a.153.153 0 0 0-.046-.108.153.153 0 0 0-.107-.046h-2a.153.153 0 0 0-.108.046.153.153 0 0 0-.046.108v3a.847.847 0 1 1-1.693 0V4a1.847 1.847 0 0 1 1.846-1.847h2A1.846 1.846 0 0 1 19.847 4v3a.848.848 0 0 1-1.694 0Z"/>
  <path d="M19.152 8a.153.153 0 0 0-.154-.153h-4a.153.153 0 0 0-.153.153v11A1.154 1.154 0 0 0 16 20.153h4A1.152 1.152 0 0 0 21.15 19v-3.85c0-.153-.057-.372-.221-.698-.166-.328-.386-.668-.65-1.09-.485-.775-1.128-1.832-1.128-3.042V8Zm1.693 2.32c0 .656.356 1.32.872 2.145.236.378.516.808.726 1.224.21.418.403.918.403 1.46V19a2.847 2.847 0 0 1-2.847 2.847h-4A2.85 2.85 0 0 1 13.152 19V8a1.847 1.847 0 0 1 1.846-1.847H19A1.847 1.847 0 0 1 20.845 8v2.32Z"/>
  <path d="M22 15.153a.846.846 0 1 1 0 1.693H1.998a.846.846 0 1 1 0-1.693h20Z"/>
  <path d="M9.151 8a.153.153 0 0 0-.153-.154h-4a.153.153 0 0 0-.107.046.153.153 0 0 0-.045.108v2.32c0 1.21-.645 2.267-1.13 3.043-.263.421-.484.761-.649 1.089-.164.326-.222.545-.222.697V19A1.153 1.153 0 0 0 4 20.153h4A1.152 1.152 0 0 0 9.15 19V8Zm1.695 11a2.847 2.847 0 0 1-2.847 2.847h-4A2.847 2.847 0 0 1 1.152 19v-3.85c0-.543.192-1.043.403-1.46.21-.417.489-.847.725-1.225.516-.825.871-1.489.871-2.145V8A1.848 1.848 0 0 1 5 6.153h4A1.849 1.849 0 0 1 10.845 8v11Z"/>
  <path d="M8.152 7V4a.153.153 0 0 0-.046-.108A.153.153 0 0 0 8 3.846H6a.153.153 0 0 0-.108.046.153.153 0 0 0-.046.108v3a.847.847 0 1 1-1.693 0V4a1.847 1.847 0 0 1 1.846-1.847h2A1.846 1.846 0 0 1 9.847 4v3a.848.848 0 0 1-1.694 0Z"/>
</svg>
