<svg xmlns="http://www.w3.org/2000/svg" viewBox="0 0 18 18">
  <path d="M1.93 11.191h8.783a.467.467 0 0 0 .304-.113.386.386 0 0 0 .093-.126.355.355 0 0 0 .033-.149v-.675a.355.355 0 0 0-.033-.149.386.386 0 0 0-.093-.125.47.47 0 0 0-.304-.114H1.93a.47.47 0 0 0-.304.114.388.388 0 0 0-.093.125.355.355 0 0 0-.033.149v.675a.379.379 0 0 0 .126.275.468.468 0 0 0 .304.114Zm0-7.74h8.783a.47.47 0 0 0 .304-.113.386.386 0 0 0 .093-.126.356.356 0 0 0 .033-.149v-.675a.356.356 0 0 0-.033-.149.386.386 0 0 0-.093-.125.47.47 0 0 0-.304-.114H1.93a.47.47 0 0 0-.304.114.387.387 0 0 0-.093.125.355.355 0 0 0-.033.149v.675a.379.379 0 0 0 .126.275.47.47 0 0 0 .304.114ZM15.964 5.87H2.036a.566.566 0 0 0-.38.142.461.461 0 0 0-.156.342v.483a.46.46 0 0 0 .157.343c.1.09.237.141.379.141h13.928a.566.566 0 0 0 .38-.141.463.463 0 0 0 .156-.343v-.483a.461.461 0 0 0-.157-.342.566.566 0 0 0-.379-.142Zm0 7.74H2.036a.566.566 0 0 0-.38.142.461.461 0 0 0-.156.342v.484c0 .128.056.25.157.341.1.091.237.142.379.142h13.928c.142 0 .279-.05.38-.142a.46.46 0 0 0 .156-.341v-.484a.46.46 0 0 0-.157-.342.566.566 0 0 0-.379-.142Z"/>
</svg>
