<svg width="20" height="18" viewBox="0 0 20 18" fill="none" xmlns="http://www.w3.org/2000/svg">
<path d="M18.2929 12.293C18.6834 11.9024 19.3164 11.9024 19.707 12.293C20.0975 12.6835 20.0975 13.3165 19.707 13.707L15.707 17.707C15.3164 18.0976 14.6834 18.0976 14.2929 17.707L10.2929 13.707C9.90237 13.3165 9.90237 12.6835 10.2929 12.293C10.6834 11.9024 11.3164 11.9024 11.707 12.293L14.9999 15.5859L18.2929 12.293Z" fill="black"/>
<path d="M13.9999 17V1C13.9999 0.447715 14.4476 0 14.9999 0C15.5522 0 15.9999 0.447715 15.9999 1V17C15.9999 17.5523 15.5522 18 14.9999 18C14.4476 18 13.9999 17.5523 13.9999 17Z" fill="black"/>
<path d="M4.36907 0.224609C4.76184 -0.095741 5.34084 -0.0731472 5.70696 0.292969L9.70696 4.29297L9.77532 4.36914C10.0957 4.76191 10.0731 5.34092 9.70696 5.70703C9.34084 6.07315 8.76184 6.09574 8.36907 5.77539L8.29289 5.70703L4.99992 2.41406L1.70696 5.70703C1.31643 6.09756 0.683418 6.09756 0.292893 5.70703C-0.0976311 5.31651 -0.0976311 4.68349 0.292893 4.29297L4.29289 0.292969L4.36907 0.224609Z" fill="black"/>
<path d="M3.99992 17V1C3.99992 0.447715 4.44764 0 4.99992 0C5.55221 0 5.99992 0.447715 5.99992 1V17C5.99992 17.5523 5.55221 18 4.99992 18C4.44764 18 3.99992 17.5523 3.99992 17Z" fill="black"/>
</svg>
