<svg xmlns="http://www.w3.org/2000/svg" viewBox="0 0 24 24">
  <path d="M15 12a3 3 0 1 0-6 0 3 3 0 0 0 6 0Zm2 0a5 5 0 1 1-10 0 5 5 0 0 1 10 0Zm-6-8V3a1 1 0 1 1 2 0v1a1 1 0 1 1-2 0Zm0 17v-1a1 1 0 1 1 2 0v1a1 1 0 1 1-2 0ZM4 11a1 1 0 1 1 0 2H3a1 1 0 1 1 0-2h1Zm17 0a1 1 0 1 1 0 2h-1a1 1 0 1 1 0-2h1Zm-3.343-6.071a1 1 0 1 1 1.414 1.414l-.707.707a1 1 0 1 1-1.414-1.414l.707-.707ZM5.636 16.95a1 1 0 1 1 1.414 1.414l-.707.707a1 1 0 1 1-1.414-1.414l.707-.707ZM4.929 4.929a1 1 0 0 1 1.414 0l.707.707A1 1 0 1 1 5.636 7.05l-.707-.707a1 1 0 0 1 0-1.414ZM16.95 16.95a1 1 0 0 1 1.414 0l.707.707a1 1 0 1 1-1.414 1.414l-.707-.707a1 1 0 0 1 0-1.414Z"/>
</svg>
