<svg width="20" height="20" viewBox="0 0 20 20" fill="none" xmlns="http://www.w3.org/2000/svg">
<path d="M14.5419 18.4H5.45859C5.15984 18.4 4.864 18.3411 4.58799 18.2268C4.31197 18.1125 4.06118 17.9449 3.84993 17.7336C3.63867 17.5224 3.4711 17.2716 3.35677 16.9956C3.24244 16.7195 3.18359 16.4237 3.18359 16.125V3.99996C3.18359 3.70159 3.2425 3.40616 3.35693 3.13061C3.47136 2.85506 3.63907 2.60482 3.85043 2.39423C4.06179 2.18364 4.31265 2.01685 4.58862 1.90343C4.86459 1.79001 5.16023 1.73219 5.45859 1.73329H14.5419C14.8403 1.73219 15.1359 1.79001 15.4119 1.90343C15.6879 2.01685 15.9387 2.18364 16.1501 2.39423C16.3615 2.60482 16.5292 2.85506 16.6436 3.13061C16.758 3.40616 16.8169 3.70159 16.8169 3.99996V16.125C16.8169 16.7283 16.5772 17.307 16.1506 17.7336C15.7239 18.1603 15.1453 18.4 14.5419 18.4V18.4ZM5.45859 3.24163C5.25747 3.24163 5.06459 3.32152 4.92237 3.46374C4.78016 3.60595 4.70026 3.79884 4.70026 3.99996V16.125C4.70026 16.3261 4.78016 16.519 4.92237 16.6612C5.06459 16.8034 5.25747 16.8833 5.45859 16.8833H14.5419C14.7431 16.8833 14.9359 16.8034 15.0782 16.6612C15.2204 16.519 15.3003 16.3261 15.3003 16.125V3.99996C15.3003 3.79884 15.2204 3.60595 15.0782 3.46374C14.9359 3.32152 14.7431 3.24163 14.5419 3.24163H5.45859ZM10.7586 14.6083C10.7586 14.4072 10.6787 14.2143 10.5365 14.0721C10.3943 13.9299 10.2014 13.85 10.0003 13.85C9.85064 13.8516 9.70485 13.8975 9.58125 13.9818C9.45764 14.0661 9.36174 14.1851 9.30562 14.3238C9.2495 14.4625 9.23567 14.6147 9.26586 14.7613C9.29606 14.9078 9.36893 15.0422 9.47531 15.1474C9.58169 15.2526 9.71682 15.324 9.86369 15.3526C10.0106 15.3812 10.1626 15.3657 10.3007 15.3081C10.4388 15.2504 10.5567 15.1532 10.6397 15.0287C10.7226 14.9042 10.7669 14.7579 10.7669 14.6083H10.7586Z" fill="#737373"/>
</svg>
