<svg xmlns="http://www.w3.org/2000/svg" fill="#000" viewBox="0 0 25 24">
  <path d="M10.428 14.55a.946.946 0 0 1 1.267.064.95.95 0 0 1 .065 1.27l-.065.072-4.736 4.745c-.37.37-.97.37-1.34 0a.95.95 0 0 1 0-1.342l4.737-4.745.072-.064Z"/>
  <path d="M19.55 11.015V4.847a.95.95 0 0 0-.946-.95H5.342a.946.946 0 0 0-.947.95v13.285a.95.95 0 0 0 .947.95h5.683a.948.948 0 0 1 0 1.897H5.342A2.85 2.85 0 0 1 2.5 18.132V4.847A2.85 2.85 0 0 1 5.342 2h13.262c.753 0 1.476.3 2.009.834a2.85 2.85 0 0 1 .832 2.013v6.168a.948.948 0 1 1-1.894 0Z"/>
  <path d="M15.762 13.655v6.066l4.843-3.033-4.843-3.033Zm6.738 3.033a1.902 1.902 0 0 1-.79 1.543l-.1.066-5.569 3.487a1.42 1.42 0 0 1-2.16-1.018l-.014-.189v-7.778l.013-.189c.025-.188.088-.37.184-.534l.107-.156c.116-.149.262-.273.428-.365l.172-.082c.176-.069.364-.101.554-.096l.189.017c.124.02.246.056.36.109l.167.089 5.568 3.487.1.066a1.9 1.9 0 0 1 .791 1.543ZM10.078 8.643a.948.948 0 1 0-1.896-.002.948.948 0 0 0 1.896.002Zm1.895 0a2.844 2.844 0 0 1-2.842 2.846 2.844 2.844 0 0 1-2.842-2.846 2.844 2.844 0 0 1 2.842-2.847 2.844 2.844 0 0 1 2.842 2.847Z"/>
</svg>