<svg xmlns="http://www.w3.org/2000/svg" fill="#4E4E4E" viewBox="0 0 20 21">
  <path fill-rule="evenodd" d="M4.167 3.87a.833.833 0 0 0-.834.833V6.37a.833.833 0 0 1-1.666 0V4.703a2.5 2.5 0 0 1 2.5-2.5h1.666a.833.833 0 1 1 0 1.667H4.167Zm9.166-.834c0-.46.373-.833.834-.833h1.666a2.5 2.5 0 0 1 2.5 2.5V6.37a.833.833 0 0 1-1.666 0V4.703a.833.833 0 0 0-.834-.833h-1.666a.833.833 0 0 1-.834-.834ZM17.5 13.87c.46 0 .833.373.833.833v1.666a2.5 2.5 0 0 1-2.5 2.5h-1.666a.833.833 0 1 1 0-1.666h1.666a.833.833 0 0 0 .834-.834v-1.666c0-.46.373-.833.833-.833Zm-15 0c.46 0 .833.373.833.833v1.666a.833.833 0 0 0 .834.834h1.666a.833.833 0 1 1 0 1.666H4.167a2.5 2.5 0 0 1-2.5-2.5v-1.666c0-.46.373-.833.833-.833Zm4.83-2.17A.833.833 0 0 0 6 12.702l.667-.5-.667.5v.001l.002.001.002.003.006.008.018.023.058.071a5.793 5.793 0 0 0 .976.9c.665.484 1.667.993 2.938.993 1.271 0 2.273-.51 2.938-.993a5.79 5.79 0 0 0 .976-.9l.058-.071.018-.023.006-.008.002-.003.001-.001s.001-.001-.666-.501l.667.5a.833.833 0 0 0-1.33-1.004l-.005.005a3.078 3.078 0 0 1-.162.182 4.12 4.12 0 0 1-.545.476c-.481.35-1.146.674-1.958.674s-1.477-.324-1.958-.674a4.122 4.122 0 0 1-.68-.623 1.658 1.658 0 0 1-.027-.035L7.33 11.7Zm-.663-3.664c0-.46.373-.833.833-.833h.008a.833.833 0 1 1 0 1.667H7.5a.833.833 0 0 1-.833-.834Zm5 0c0-.46.373-.833.833-.833h.008a.833.833 0 1 1 0 1.667H12.5a.833.833 0 0 1-.833-.834Z" clip-rule="evenodd"/>
</svg>
