<svg xmlns="http://www.w3.org/2000/svg" fill="#4E4E4E" viewBox="0 0 20 21">
  <path fill-rule="evenodd" d="M10 6.248c.418 0 .758.34.758.758v10.606a.758.758 0 0 1-1.516 0V7.006c0-.419.34-.758.758-.758Z" clip-rule="evenodd"/>
  <path fill-rule="evenodd" d="M2.11 3.662c.285-.285.67-.444 1.072-.444H6.97A3.788 3.788 0 0 1 10 4.733a3.785 3.785 0 0 1 3.03-1.515h3.788a1.515 1.515 0 0 1 1.515 1.515v9.848a1.515 1.515 0 0 1-1.515 1.516h-4.545a1.516 1.516 0 0 0-1.515 1.515.758.758 0 0 1-1.516 0 1.515 1.515 0 0 0-1.515-1.515H3.182a1.515 1.515 0 0 1-1.515-1.516V4.733c0-.402.16-.787.443-1.071ZM10 15.607a3.027 3.027 0 0 1 2.273-1.026h4.545V4.733H13.03a2.273 2.273 0 0 0-2.272 2.273.758.758 0 0 1-1.516 0A2.273 2.273 0 0 0 6.97 4.733H3.182v9.848h4.545A3.03 3.03 0 0 1 10 15.607Z" clip-rule="evenodd"/>
</svg>
