<svg xmlns="http://www.w3.org/2000/svg" fill="#4E4E4E" viewBox="0 0 20 21">
  <path fill-rule="evenodd" d="M5.728 3.906a7.933 7.933 0 1 1 1.36 13.621l-4.373 1.482a.793.793 0 0 1-1.006-1.006l1.482-4.372a7.934 7.934 0 0 1 2.537-9.725Zm5.165.084a6.347 6.347 0 0 0-6.14 9.225.793.793 0 0 1 .045.617l-1.07 3.159 3.158-1.071a.793.793 0 0 1 .617.045 6.346 6.346 0 1 0 3.39-11.975Z" clip-rule="evenodd"/>
  <path fill-rule="evenodd" d="M10.598 7.17a1.587 1.587 0 0 0-1.765 1.037.793.793 0 0 1-1.496-.526 3.173 3.173 0 0 1 6.167 1.057c0 1.214-.901 2.016-1.544 2.445a6.386 6.386 0 0 1-1.337.673l-.028.01-.009.002-.003.002h-.001l-.252-.752.251.752a.793.793 0 0 1-.503-1.505l.013-.004a4.682 4.682 0 0 0 .289-.117c.196-.087.45-.215.7-.381.547-.365.837-.753.837-1.125v-.002a1.587 1.587 0 0 0-1.319-1.566ZM9.6 14.291c0-.438.355-.793.794-.793h.008a.793.793 0 0 1 0 1.586h-.008a.793.793 0 0 1-.794-.793Z" clip-rule="evenodd"/>
</svg>
