<svg xmlns="http://www.w3.org/2000/svg" fill="#4E4E4E" viewBox="0 0 20 21">
  <path fill-rule="evenodd" d="M8.942 2.688a2.273 2.273 0 0 1 2.27 0l.002.001 5.304 3.03a2.273 2.273 0 0 1 1.136 1.967v6.063a2.273 2.273 0 0 1-1.136 1.967l-.003.002-5.301 3.029h-.002a2.273 2.273 0 0 1-2.27 0h-.001l-5.302-3.03-.002-.001A2.273 2.273 0 0 1 2.5 13.75V7.685A2.273 2.273 0 0 1 3.637 5.72l.002-.002 5.303-3.03ZM10.077 3.9a.758.758 0 0 0-.379.101l-.003.002-5.3 3.03h-.002a.758.758 0 0 0-.378.654v6.061a.758.758 0 0 0 .378.655h.001l5.304 3.031a.758.758 0 0 0 .758 0l.003-.001 5.301-3.03h.001a.758.758 0 0 0 .378-.655v-6.06a.757.757 0 0 0-.378-.655h-.001L10.456 4a.757.757 0 0 0-.379-.101Z" clip-rule="evenodd"/>
  <path fill-rule="evenodd" d="M10.077 8.445a2.273 2.273 0 1 0 0 4.546 2.273 2.273 0 0 0 0-4.546ZM6.29 10.718a3.789 3.789 0 1 1 7.577 0 3.789 3.789 0 0 1-7.577 0Z" clip-rule="evenodd"/>
</svg>
