<svg xmlns="http://www.w3.org/2000/svg" fill="#4E4E4E" viewBox="0 0 20 21">
  <path fill-rule="evenodd" d="M10.215 11.856a5.378 5.378 0 0 0-7.012 5.121.768.768 0 1 1-1.536 0 6.913 6.913 0 0 1 9.015-6.584.768.768 0 1 1-.467 1.463Z" clip-rule="evenodd"/>
  <path fill-rule="evenodd" d="M8.579 3.92a3.072 3.072 0 1 0 0 6.145 3.072 3.072 0 0 0 0-6.144ZM3.971 6.994a4.608 4.608 0 1 1 9.216 0 4.608 4.608 0 0 1-9.216 0Zm10.752 6.143a1.536 1.536 0 1 0 0 3.072 1.536 1.536 0 0 0 0-3.072Zm-3.072 1.536a3.072 3.072 0 1 1 6.145 0 3.072 3.072 0 0 1-6.145 0Z" clip-rule="evenodd"/>
  <path fill-rule="evenodd" d="M16.187 11.13a.768.768 0 0 1 .39 1.013l-.307.692a.768.768 0 1 1-1.404-.624l.308-.691a.768.768 0 0 1 1.013-.39Zm-1.997 4.992a.768.768 0 0 1 .39 1.014l-.307.69a.768.768 0 1 1-1.404-.623l.308-.691a.768.768 0 0 1 1.013-.39Zm1.982-.916a.768.768 0 0 1 1.014-.39l.691.307a.768.768 0 0 1-.624 1.404l-.691-.307a.768.768 0 0 1-.39-1.014ZM11.18 13.21a.768.768 0 0 1 1.014-.39l.69.306a.768.768 0 0 1-.623 1.404l-.691-.307a.768.768 0 0 1-.39-1.014Zm7.087 0a.768.768 0 0 1-.39 1.013l-.691.307a.768.768 0 0 1-.624-1.403l.691-.308a.768.768 0 0 1 1.014.39Zm-4.992 1.996a.768.768 0 0 1-.39 1.014l-.691.307a.768.768 0 0 1-.624-1.404l.69-.307a.768.768 0 0 1 1.015.39Zm1.981.916a.768.768 0 0 1 1.014.39l.307.691a.768.768 0 1 1-1.403.624l-.308-.691a.768.768 0 0 1 .39-1.014ZM13.26 11.13a.768.768 0 0 1 1.013.39l.307.69a.768.768 0 0 1-1.403.625l-.308-.692a.768.768 0 0 1 .39-1.013Z" clip-rule="evenodd"/>
</svg>
