<svg xmlns="http://www.w3.org/2000/svg" fill="#4E4E4E" viewBox="0 0 20 21">
  <path fill-rule="evenodd" d="M8.384 16.88a.758.758 0 0 1 1.035.277.757.757 0 0 0 1.312 0 .758.758 0 1 1 1.312.758 2.273 2.273 0 0 1-3.936 0 .758.758 0 0 1 .277-1.035ZM6.325 3.938a5.303 5.303 0 0 1 9.053 3.75c0 1.624.255 2.635.588 3.34.333.707.77 1.163 1.274 1.683a1.515 1.515 0 0 1-1.104 2.553H4.015a1.518 1.518 0 0 1-1.495-1.76 1.515 1.515 0 0 1 .391-.793c.504-.52.94-.976 1.274-1.683.333-.705.587-1.716.587-3.34 0-1.407.559-2.756 1.553-3.75Zm3.75-.038a3.788 3.788 0 0 0-3.788 3.788c0 1.783-.28 3.028-.732 3.987-.447.946-1.04 1.557-1.537 2.071l-.002.002h12.12c-.5-.515-1.093-1.126-1.54-2.073-.453-.959-.733-2.204-.733-3.987A3.788 3.788 0 0 0 10.075 3.9Z" clip-rule="evenodd"/>
</svg>
