<svg xmlns="http://www.w3.org/2000/svg" viewBox="0 0 18 18">
  <path fill-rule="evenodd" d="M.75 2.25a.75.75 0 0 1 .75-.75H6a3.75 3.75 0 0 1 3.75 3.75v10.5a.75.75 0 0 1-1.5 0 1.5 1.5 0 0 0-1.5-1.5H1.5a.75.75 0 0 1-.75-.75V2.25Zm7.5 10.902V5.25A2.25 2.25 0 0 0 6 3H2.25v9.75h4.5a3 3 0 0 1 1.5.402Z" clip-rule="evenodd"/>
  <path fill-rule="evenodd" d="M9.348 2.598A3.75 3.75 0 0 1 12 1.5h4.5a.75.75 0 0 1 .75.75V13.5a.75.75 0 0 1-.75.75h-5.25a1.5 1.5 0 0 0-1.5 1.5.75.75 0 0 1-1.5 0V5.25a3.75 3.75 0 0 1 1.098-2.652Zm.402 10.554a3 3 0 0 1 1.5-.402h4.5V3H12a2.25 2.25 0 0 0-2.25 2.25v7.902Z" clip-rule="evenodd"/>
</svg>
