<svg xmlns="http://www.w3.org/2000/svg" viewBox="0 0 24 24">
  <path d="M7 6V2a1 1 0 1 1 2 0v4a1 1 0 1 1-2 0Zm8 0V2a1 1 0 1 1 2 0v4a1 1 0 1 1-2 0Z"/>
  <path d="M20 6a1 1 0 0 0-1-1H5a1 1 0 0 0-1 1v14a1 1 0 0 0 1 1h14a1 1 0 0 0 1-1V6Zm2 14a3 3 0 0 1-3 3H5a3 3 0 0 1-3-3V6a3 3 0 0 1 3-3h14a3 3 0 0 1 3 3v14Z"/>
  <path d="M21 9a1 1 0 1 1 0 2H3a1 1 0 1 1 0-2h18ZM8.01 13a1 1 0 0 1 0 2H8a1 1 0 1 1 0-2h.01Zm4 0a1 1 0 0 1 0 2H12a1 1 0 1 1 0-2h.01Zm4 0a1 1 0 0 1 0 2H16a1 1 0 1 1 0-2h.01Zm-8 4a1 1 0 0 1 0 2H8a1 1 0 1 1 0-2h.01Zm4 0a1 1 0 0 1 0 2H12a1 1 0 1 1 0-2h.01Zm4 0a1 1 0 0 1 0 2H16a1 1 0 1 1 0-2h.01Z"/>
</svg>
