<svg xmlns="http://www.w3.org/2000/svg" viewBox="0 0 24 24">
  <path d="M10.86 4.498a2.75 2.75 0 0 1 2.28 0l8.572 3.904a1.747 1.747 0 0 1 .775 2.553 1.75 1.75 0 0 1-.765.654v-.001l-8.582 3.896a2.75 2.75 0 0 1-2.28-.001l-8.571-3.908a1.751 1.751 0 0 1 0-3.197l8.57-3.9ZM2.75 9.997a.25.25 0 0 0 .15.228l.01.005 8.57 3.908a1.252 1.252 0 0 0 1.038 0h.001l8.59-3.898.007-.004a.25.25 0 0 0-.005-.46c-.007-.002-.014-.006-.022-.01L12.52 5.864a1.25 1.25 0 0 0-.913-.05l-.125.05-8.57 3.9-.01.004a.25.25 0 0 0-.15.23Z"/>
  <path d="M21.25 16v-6a.75.75 0 0 1 1.5 0v6a.75.75 0 1 1-1.5 0Zm-16 0v-3.5a.75.75 0 0 1 1.5 0V16c0 .368.31.935 1.342 1.45.998.5 2.403.8 3.908.8s2.91-.3 3.907-.8c1.032-.515 1.343-1.082 1.343-1.45v-3.5a.75.75 0 0 1 1.5 0V16c0 1.224-.954 2.184-2.172 2.793-1.253.626-2.9.958-4.578.958-1.678 0-3.325-.332-4.578-.958C6.204 18.183 5.25 17.224 5.25 16Z"/>
</svg>
