<svg xmlns="http://www.w3.org/2000/svg" viewBox="0 0 24 24">
  <path d="M2.143 20V9A2.857 2.857 0 0 1 5 6.142a.857.857 0 0 1 0 1.714 1.143 1.143 0 0 0-1.143 1.142V20a.857.857 0 0 1-1.714 0Z"/>
  <path d="M15.857 21.5a1.358 1.358 0 0 1-1.357 1.357H5a2.857 2.857 0 0 1 0-5.714h.803a.857.857 0 0 1 0 1.714H5a1.142 1.142 0 0 0 0 2.286h9.143V21a.857.857 0 1 1 1.714 0v.5Zm-5.994-6.387A1.142 1.142 0 0 0 11 16.143h9.143v-2.286H11A1.143 1.143 0 0 0 9.857 15l.006.113Zm-.006-2.731c.357-.156.746-.24 1.143-.24h9.143V2.857H11a1.143 1.143 0 0 0-1.143 1.142v8.383Zm12 4.118a1.358 1.358 0 0 1-1.357 1.357H11a2.857 2.857 0 0 1-2.854-2.715L8.143 15V4A2.857 2.857 0 0 1 11 1.142h9.5a1.357 1.357 0 0 1 1.357 1.356V16.5Z"/>
</svg>
