<svg xmlns="http://www.w3.org/2000/svg" viewBox="0 0 24 24">
  <path d="M19 7a1 1 0 0 0-1-1H6a1 1 0 0 0-1 1v8.525a3 3 0 0 1-.318 1.346v.001L3.613 19h16.774v-.001l-1.069-2.127A3.006 3.006 0 0 1 19 15.525V7Zm2 8.526.007.117a1 1 0 0 0 .1.332l1.066 2.125a2.003 2.003 0 0 1-.086 1.955 2.002 2.002 0 0 1-1.707.944L3.62 21a2 2 0 0 1-1.793-2.9l1.067-2.125.046-.107a1 1 0 0 0 .06-.342V7a3 3 0 0 1 3-3h12a3.002 3.002 0 0 1 3 3v8.526Z"/>
  <path d="M20.054 14.988a1 1 0 0 1 0 2H3.946a1 1 0 1 1 0-2h16.108Z"/>
</svg>
