<svg xmlns="http://www.w3.org/2000/svg" fill="#000" viewBox="0 0 24 24">
  <path fill-rule="evenodd" d="M7 12c0-1.227.985-2.222 2.2-2.222 1.215 0 2.2.995 2.2 2.222a2.211 2.211 0 0 1-2.2 2.222C7.985 14.222 7 13.227 7 12Zm0-7.778C7 2.995 7.985 2 9.2 2c1.215 0 2.2.995 2.2 2.222a2.211 2.211 0 0 1-2.2 2.222A2.21 2.21 0 0 1 7 4.222Zm0 15.556c0-1.227.985-2.222 2.2-2.222 1.215 0 2.2.994 2.2 2.222A2.211 2.211 0 0 1 9.2 22C7.985 22 7 21.005 7 19.778ZM13.6 12c0-1.227.985-2.222 2.2-2.222 1.215 0 2.2.995 2.2 2.222a2.211 2.211 0 0 1-2.2 2.222c-1.215 0-2.2-.995-2.2-2.222Zm0-7.778C13.6 2.995 14.585 2 15.8 2c1.215 0 2.2.995 2.2 2.222a2.211 2.211 0 0 1-2.2 2.222 2.21 2.21 0 0 1-2.2-2.222Zm0 15.556c0-1.227.985-2.222 2.2-2.222 1.215 0 2.2.994 2.2 2.222A2.211 2.211 0 0 1 15.8 22c-1.215 0-2.2-.995-2.2-2.222Z" clip-rule="evenodd"/>
</svg>
