<svg xmlns="http://www.w3.org/2000/svg" fill="#000" viewBox="0 0 24 24">
  <path fill-rule="evenodd" d="M16.074 3.017a3.472 3.472 0 1 1 4.909 4.91L8.849 20.063a2.728 2.728 0 0 1-1.133.678l-3.96 1.201a1.363 1.363 0 0 1-1.699-1.696l.001-.004 1.201-3.956v-.003c.132-.427.366-.815.682-1.13v-.002L16.075 3.017Zm1.285 1.285L5.226 16.438v.001a.908.908 0 0 0-.227.376v.001l-.953 3.139 3.141-.953a.91.91 0 0 0 .377-.225L19.697 6.64a1.654 1.654 0 0 0-2.338-2.339Z" clip-rule="evenodd"/>
  <path fill-rule="evenodd" d="M14.085 4.994a.909.909 0 0 1 1.285 0l3.636 3.636a.909.909 0 1 1-1.285 1.286L14.085 6.28a.91.91 0 0 1 0-1.286Z" clip-rule="evenodd"/>
</svg>
