<svg xmlns="http://www.w3.org/2000/svg" viewBox="0 0 24 24">
  <path d="M17.31 22H4.79A2.79 2.79 0 0 1 2 19.21V6.69A2.79 2.79 0 0 1 4.79 3.9h6.26a1 1 0 1 1 0 2H4.79a.79.79 0 0 0-.79.79v12.52a.79.79 0 0 0 .79.79h12.52a.79.79 0 0 0 .79-.79V13a1 1 0 0 1 2 0v6.26A2.79 2.79 0 0 1 17.31 22Zm-8.7-5.4 3.58-.89c.171-.05.329-.14.46-.26L21.15 7a2.9 2.9 0 1 0-4.1-4.1l-8.49 8.5a1.08 1.08 0 0 0-.27.46l-.89 3.53a1 1 0 0 0 .26.95 1 1 0 0 0 .95.26Zm9.86-12.34a.9.9 0 0 1 1.463.981.88.88 0 0 1-.193.289l-8.31 8.3-1.69.43.43-1.69 8.3-8.31Z"/>
</svg>
