<svg xmlns="http://www.w3.org/2000/svg" viewBox="0 0 24 24">
  <path d="M11.143 21V7a.857.857 0 1 1 1.714 0v14a.857.857 0 1 1-1.714 0Z"/>
  <path d="M21.143 4A.143.143 0 0 0 21 3.857h-5a3.144 3.144 0 0 0-3.14 2.986L12.858 7l-.005.087A.857.857 0 0 1 11.142 7 3.143 3.143 0 0 0 8 3.857H3A.144.144 0 0 0 2.857 4v13a.144.144 0 0 0 .143.143h6a3.857 3.857 0 0 1 3 1.433 3.853 3.853 0 0 1 3-1.433h6a.142.142 0 0 0 .143-.144V4Zm1.714 13A1.858 1.858 0 0 1 21 18.856h-6a2.144 2.144 0 0 0-2.143 2.142l-.005.089a.857.857 0 0 1-1.705 0l-.004-.089-.01-.211A2.143 2.143 0 0 0 9 18.857H3a1.858 1.858 0 0 1-1.857-1.858V4A1.858 1.858 0 0 1 3 2.143h5a4.857 4.857 0 0 1 4 2.103 4.858 4.858 0 0 1 4-2.103h5A1.858 1.858 0 0 1 22.857 4v13Z"/>
</svg>
