<svg xmlns="http://www.w3.org/2000/svg" fill="none" viewBox="0 0 24 24" width="24" height="24">
  <path fill="#fff" d="M6.186 8.97v7.06h7.442V8.97H6.186Z"/>
  <path fill="#1E88E5" d="M2 9.412v6.176l2.326.441 2.325-.44V9.411L4.326 8.97 2 9.41Z"/>
  <path fill="#4CAF50" d="M17.814 12.5v6.177c0 .73-.625 1.323-1.395 1.323H6.65l-.465-2.206.465-2.206h6.512V12.5l2.325-.441 2.326.441Z"/>
  <path fill="#FBC02D" d="M17.814 6.324V12.5h-4.651V9.412H6.65l-.465-2.206L6.651 5h9.768c.77 0 1.395.593 1.395 1.324Z"/>
  <path fill="#1565C0" d="M6.651 15.588V20H3.395C2.625 20 2 19.407 2 18.677v-3.089h4.651Z"/>
  <path fill="#E53935" d="M6.651 5v4.412H2L6.651 5Z"/>
  <path fill="#2E7D32" d="m18.28 12.5-.466 3.728-4.651-3.728 4.651-3.728.465 3.728Z"/>
  <path fill="#4CAF50" d="M22 6.372v12.256c0 .37-.456.578-.758.344l-3.428-2.744V8.772l3.428-2.744c.302-.234.758-.027.758.344Z"/>
</svg>
