<svg xmlns="http://www.w3.org/2000/svg" viewBox="0 0 24 24">
  <path fill-rule="evenodd" d="M6.545 7.5c0-1.491 1.221-2.7 2.727-2.7C10.78 4.8 12 6.009 12 7.5s-1.221 2.7-2.728 2.7c-1.506 0-2.727-1.209-2.727-2.7ZM9.272 3c-2.51 0-4.545 2.015-4.545 4.5S6.762 12 9.272 12s4.546-2.015 4.546-4.5S11.783 3 9.272 3ZM6.545 13.8a4.569 4.569 0 0 0-3.214 1.318A4.477 4.477 0 0 0 2 18.3v1.8c0 .497.407.9.909.9s.909-.403.909-.9v-1.8c0-.716.287-1.403.799-1.91a2.741 2.741 0 0 1 1.928-.79H12a2.74 2.74 0 0 1 1.928.79c.512.507.799 1.194.799 1.91v1.8c0 .497.407.9.91.9a.904.904 0 0 0 .908-.9v-1.8a4.477 4.477 0 0 0-1.331-3.182A4.569 4.569 0 0 0 12 13.8H6.545Zm10.938.792a.91.91 0 0 1 1.108-.646 4.55 4.55 0 0 1 2.456 1.6c.617.788.952 1.756.953 2.753V20.1c0 .497-.407.9-.91.9a.905.905 0 0 1-.908-.9v-1.8c0-.598-.202-1.179-.572-1.652a2.73 2.73 0 0 0-1.474-.96.9.9 0 0 1-.653-1.096ZM15.862 3.145a.91.91 0 0 0-1.107.649.9.9 0 0 0 .656 1.095 2.73 2.73 0 0 1 1.478.96 2.683 2.683 0 0 1 0 3.311 2.73 2.73 0 0 1-1.478.96.9.9 0 0 0-.656 1.095.91.91 0 0 0 1.107.649 4.55 4.55 0 0 0 2.463-1.6 4.47 4.47 0 0 0 0-5.519 4.549 4.549 0 0 0-2.463-1.6Z" clip-rule="evenodd"/>
</svg>
