<svg xmlns="http://www.w3.org/2000/svg" fill="#000" viewBox="0 0 24 24">
  <path fill-rule="evenodd" d="M12 4a.9.9 0 0 1 .91.889v10.667a.9.9 0 0 1-.91.888.9.9 0 0 1-.91-.888V4.889A.9.9 0 0 1 12 4Z" clip-rule="evenodd"/>
  <path fill-rule="evenodd" d="M7.72 11.371a.924.924 0 0 1 1.286 0L12 14.3l2.993-2.928a.924.924 0 0 1 1.286 0 .875.875 0 0 1 0 1.258l-3.636 3.555a.924.924 0 0 1-1.286 0l-3.636-3.556a.875.875 0 0 1 0-1.257Z" clip-rule="evenodd"/>
  <path fill-rule="evenodd" d="M2.799 6.559a2.759 2.759 0 0 1 1.928-.781h3.637a.9.9 0 0 1 .909.889.9.9 0 0 1-.91.889H4.728a.92.92 0 0 0-.643.26.879.879 0 0 0-.266.628v8.89c0 .235.096.461.266.628a.92.92 0 0 0 .643.26h14.546a.92.92 0 0 0 .643-.26.88.88 0 0 0 .266-.629V8.444a.88.88 0 0 0-.266-.628.92.92 0 0 0-.643-.26h-3.637a.9.9 0 0 1-.909-.89.9.9 0 0 1 .91-.888h3.636c.723 0 1.417.28 1.928.78.512.5.799 1.18.799 1.886v8.89c0 .707-.287 1.385-.799 1.885a2.76 2.76 0 0 1-1.928.781H4.727a2.76 2.76 0 0 1-1.928-.781A2.637 2.637 0 0 1 2 17.333V8.444c0-.707.287-1.385.799-1.885Z" clip-rule="evenodd"/>
</svg>
