<svg width="220" height="160" viewBox="0 0 220 160" fill="none" xmlns="http://www.w3.org/2000/svg">
<rect x="0.5" y="0.5" width="219" height="159" rx="7.5" stroke="#E9E9E9"/>
<g clip-path="url(#clip0_15589_17371)">
<path d="M172.063 144.397H24.2564C21.571 144.397 19.3152 142.141 19.3152 139.456V45.0359C19.3152 42.3505 21.571 40.0947 24.2564 40.0947H172.063C174.748 40.0947 177.004 42.3505 177.004 45.0359V139.456C177.004 142.141 174.748 144.397 172.063 144.397Z" fill="#455A64"/>
<path d="M171.203 134.085H23.2891L23.3965 52.7698H171.203V134.085Z" fill="white"/>
<path d="M118.784 58.3558L121.791 53.0924C120.502 50.944 119.75 48.4734 119.75 45.788C119.75 38.0539 125.981 31.7163 133.822 31.7163C141.556 31.7163 147.894 37.9465 147.894 45.788C147.894 53.5221 141.664 59.8597 133.822 59.8597C130.6 59.8597 127.592 58.7855 125.229 56.9594L118.784 58.3558Z" fill="#FAFAFA"/>
<path d="M39.9389 54.811H31.2381L26.834 62.3303L31.2381 69.8495H39.9389L44.343 62.3303L39.9389 54.811Z" fill="#EBEBEB"/>
<path d="M40.5834 74.146C40.5834 74.146 38.5424 74.2534 35.9644 74.2534C33.3864 74.2534 31.3455 74.2534 31.3455 74.146C31.3455 74.0386 33.3864 74.0386 35.9644 74.0386C38.5424 74.0386 40.5834 74.0386 40.5834 74.146Z" fill="#263238"/>
<path d="M99.1262 119.583H99.0188C98.4817 119.583 98.052 120.013 98.052 120.55C98.052 121.087 98.4817 121.517 99.0188 121.517C99.5558 121.517 99.9855 121.087 99.9855 120.658C100.093 120.121 99.6633 119.691 99.1262 119.583Z" fill="white"/>
<path d="M84.0878 122.806C84.0878 122.806 83.873 122.591 83.6581 122.161C83.4433 121.732 83.1211 121.087 82.9062 120.443C82.584 119.798 82.3691 119.154 82.2617 118.724C82.1543 118.294 82.0469 117.972 82.0469 117.972C82.0469 117.972 82.1543 118.187 82.3691 118.724C82.584 119.261 82.7988 119.798 83.121 120.443C83.4433 121.087 83.6581 121.624 83.873 122.161C83.9804 122.591 84.0878 122.806 84.0878 122.806Z" fill="white"/>
<path d="M93.6478 116.254C93.6478 116.254 92.681 116.146 91.6069 115.932C90.5327 115.717 89.5659 115.502 89.5659 115.502C89.5659 115.502 90.5327 115.609 91.6069 115.824C92.7884 115.932 93.6478 116.146 93.6478 116.254Z" fill="white"/>
<path d="M62.1741 112.816C62.1741 112.816 61.2074 113.353 60.1332 114.213C59.059 115.072 58.3071 115.824 58.1997 115.824C58.1997 115.824 58.3071 115.609 58.6294 115.287C58.9516 114.965 59.3813 114.535 59.9184 114.105C60.4555 113.676 60.9926 113.353 61.4222 113.139C61.9593 112.816 62.1741 112.816 62.1741 112.816Z" fill="white"/>
<path d="M91.3921 126.136C91.3921 126.136 91.1772 125.492 91.1772 124.632C91.0698 123.773 91.0698 123.128 91.0698 123.128C91.0698 123.128 91.2847 123.773 91.2847 124.632C91.3921 125.384 91.3921 126.136 91.3921 126.136Z" fill="white"/>
<path d="M114.379 125.492C114.379 125.492 114.379 124.847 114.594 123.988C114.809 123.236 114.916 122.591 115.024 122.591C115.024 122.591 115.024 123.236 114.809 124.095C114.594 124.954 114.379 125.599 114.379 125.492Z" fill="white"/>
<path d="M118.783 58.3557C119.105 58.2483 121.146 57.8186 125.121 56.8519H125.228L125.121 56.9593C125.873 57.6038 126.84 58.1409 128.021 58.678C129.203 59.2151 130.492 59.5373 131.888 59.7522C132.64 59.8596 133.392 59.8596 134.144 59.8596C134.574 59.8596 134.896 59.8596 135.326 59.7522C135.755 59.6447 136.077 59.6447 136.507 59.5373C138.118 59.2151 139.73 58.5706 141.233 57.7112C142.737 56.7445 144.134 55.4555 145.315 53.9516C146.389 52.3404 147.249 50.5143 147.679 48.5807C148.108 46.5398 148.001 44.3915 147.464 42.3505C146.927 40.3096 145.96 38.2687 144.456 36.55L143.919 35.9055C143.704 35.6906 143.489 35.4758 143.274 35.3684C143.06 35.1536 142.845 34.9387 142.63 34.8313L141.985 34.2942C141.771 34.0794 141.556 33.972 141.341 33.8645C141.126 33.7571 140.911 33.5423 140.589 33.4349C140.374 33.3275 140.052 33.22 139.837 33.1126C139.622 33.0052 139.3 32.8978 139.085 32.7904C137.044 31.931 134.896 31.7162 132.747 31.8236C130.707 31.931 128.666 32.5755 126.947 33.5423C125.228 34.5091 123.832 35.7981 122.65 37.1945C121.576 38.5909 120.717 40.2022 120.287 41.706C119.75 43.3173 119.643 44.8211 119.643 46.325C119.643 47.7214 119.965 49.1178 120.287 50.2994C120.717 51.481 121.146 52.4478 121.683 53.3071C119.857 56.4222 118.891 58.0335 118.783 58.3557C118.891 58.1409 119.857 56.4222 121.791 53.0923C121.254 52.2329 120.824 51.2662 120.394 50.0846C120.072 48.903 119.75 47.614 119.75 46.2176C119.75 44.8211 119.857 43.2099 120.394 41.706C120.932 40.2022 121.683 38.5909 122.758 37.1945C123.832 35.7981 125.336 34.5091 126.947 33.5423C128.666 32.5755 130.599 32.0385 132.64 31.8236C134.681 31.7162 136.829 31.931 138.87 32.7904C139.085 32.8978 139.407 33.0052 139.622 33.1126C139.837 33.22 140.159 33.3275 140.374 33.4349C140.589 33.5423 140.804 33.7571 141.126 33.8645C141.341 33.972 141.556 34.1868 141.771 34.2942L142.415 34.8313C142.63 34.9387 142.845 35.1536 143.06 35.3684C143.274 35.5832 143.489 35.6906 143.704 35.9055L144.241 36.55C145.745 38.1612 146.712 40.2022 147.249 42.2431C147.786 44.284 147.786 46.4324 147.464 48.3659C147.034 50.4068 146.282 52.2329 145.1 53.7368C144.026 55.2406 142.63 56.5296 141.126 57.4964C139.622 58.4631 138.011 59.0002 136.4 59.3225C135.97 59.4299 135.648 59.4299 135.218 59.5373C134.788 59.5373 134.466 59.5373 134.036 59.6447C133.285 59.6447 132.533 59.6447 131.781 59.5373C130.384 59.3225 129.095 59.0002 127.914 58.4631C126.84 57.9261 125.873 57.389 125.013 56.7445V56.6371C121.039 57.8186 119.105 58.2483 118.783 58.3557Z" fill="#263238"/>
<path d="M121.039 71.7832C121.039 71.7832 125.658 74.039 127.377 79.9469C129.096 85.8549 134.037 101.108 134.037 101.108C134.037 101.108 136.937 104.438 137.152 107.016C137.474 109.487 136.83 115.502 135.97 116.684C135.004 117.758 133.715 117.65 133.715 117.65L121.684 116.469L116.85 84.5659L121.039 71.7832Z" fill="#4584FF"/>
<path d="M81.188 71.2459C81.188 71.2459 72.5946 73.9313 70.4463 76.2945L77.5358 109.057L77.4284 119.369H118.247C118.247 118.832 118.569 84.9953 118.569 84.9953L121.04 71.6756L106.539 69.0976L103.638 66.8418L87.5257 67.7011L85.0551 70.1717L81.188 71.2459Z" fill="#4584FF"/>
<g opacity="0.3">
<path d="M84.5175 99.6041C84.4101 99.2819 84.1953 99.067 83.873 98.9596C83.3359 98.8522 83.0137 99.3893 82.9063 99.9264C81.6173 103.686 79.7912 107.123 77.5354 110.346L77.428 115.394C79.7912 113.354 82.1543 111.205 83.6582 108.52C85.162 105.942 85.8065 102.504 84.5175 99.6041Z" fill="black"/>
</g>
<path d="M70.4455 76.2942C70.4455 76.2942 67.6527 80.1612 66.4711 82.7392C65.2895 85.3173 55.5145 106.478 54.9774 108.627C54.4403 110.775 52.8291 117.757 57.3406 119.369H66.4711L75.6016 100.678L76.0312 79.087L70.4455 76.2942Z" fill="#4584FF"/>
<path d="M67.0088 105.834C67.0088 105.834 66.794 105.619 66.3643 105.404C65.9347 105.189 65.2901 104.867 64.4308 104.76C64.0011 104.652 63.5715 104.545 63.0344 104.545C62.4973 104.545 61.9602 104.545 61.4231 104.652C60.3489 104.867 59.1674 105.619 58.308 106.586C57.4487 107.553 56.9116 108.734 56.5893 109.808C56.2671 110.883 56.1597 111.957 56.0522 112.816C55.9448 113.675 55.9448 114.427 55.9448 114.857C55.9448 114.32 55.9448 113.675 56.0522 112.816C56.1597 111.957 56.2671 110.883 56.5893 109.808C56.9116 108.734 57.4487 107.445 58.4154 106.478C59.2748 105.512 60.4564 104.76 61.638 104.545C62.175 104.437 62.8195 104.438 63.2492 104.438C63.7863 104.438 64.216 104.545 64.6456 104.652C65.505 104.867 66.1495 105.189 66.5792 105.404C66.794 105.512 66.9014 105.619 67.0088 105.727V105.834Z" fill="#263238"/>
<path d="M62.7119 102.075C62.7119 102.075 62.8193 102.075 63.0342 102.075C63.249 102.075 63.5713 102.075 63.8935 102.075C64.2158 102.075 64.6454 102.182 65.1825 102.29C65.6122 102.397 66.1493 102.612 66.6864 102.827C67.2234 103.041 67.6531 103.364 67.9754 103.686C68.405 104.008 68.6199 104.223 68.9421 104.545C69.157 104.76 69.3718 105.082 69.4792 105.19C69.5866 105.405 69.6941 105.405 69.5866 105.512C69.5866 105.512 69.2644 105.19 68.8347 104.653C68.6199 104.438 68.2976 104.116 67.868 103.793C67.4383 103.471 67.0086 103.256 66.5789 103.041C66.0419 102.827 65.6122 102.612 65.1825 102.504C64.7528 102.397 64.3232 102.29 64.0009 102.29C63.1416 102.075 62.7119 102.075 62.7119 102.075Z" fill="#263238"/>
<path d="M70.983 101.108C70.983 101.108 70.8755 101.108 70.5533 101.108C70.231 101.108 69.9088 101 69.3717 101C68.4049 100.893 67.0085 100.893 65.6121 101.108C64.1082 101.323 62.8192 101.645 61.8525 101.967C61.4228 102.075 60.9931 102.29 60.7783 102.397C60.5635 102.504 60.3486 102.504 60.3486 102.504C60.3486 102.504 60.456 102.397 60.7783 102.29C60.9931 102.182 61.4228 102.075 61.8525 101.86C62.8192 101.538 64.1082 101.215 65.6121 101C67.1159 100.786 68.5124 100.893 69.4791 101C70.0162 101 70.3385 101.108 70.6607 101.215C70.8755 101 70.983 101.108 70.983 101.108Z" fill="#263238"/>
<path d="M97.085 82.9546C97.085 82.9546 97.085 82.9546 96.9775 82.8471C96.8701 82.7397 96.8701 82.6323 96.7627 82.5249C96.5479 82.2026 96.2256 81.773 95.7959 81.2359C95.044 80.1617 93.8624 78.5504 92.5734 76.7243H92.6808C92.1438 78.2282 91.6067 79.732 91.0696 81.4507V81.5581L90.9622 81.4507C90.8547 81.4507 90.8547 81.3433 90.7473 81.3433C89.9954 80.9136 89.3509 80.2691 88.7064 79.6246C88.1693 78.9801 87.6322 78.3356 87.31 77.6911C86.558 76.2947 86.021 75.0057 85.6987 73.9315C85.3765 72.8573 85.269 71.8906 85.0542 71.246C85.0542 70.9238 84.9468 70.709 84.9468 70.4941C84.9468 70.3867 84.9468 70.3867 84.9468 70.2793V70.1719C84.9468 70.1719 85.0542 70.4941 85.1616 71.1386C85.269 71.7831 85.4839 72.7499 85.8061 73.8241C86.1284 74.8982 86.6655 76.2947 87.4174 77.5837C87.8471 78.2282 88.2767 78.8727 88.8138 79.5172C89.3509 80.1617 89.9954 80.6988 90.7473 81.1285C90.8547 81.1285 90.8547 81.2359 90.9622 81.2359H90.8547C91.3918 79.5172 92.0363 77.9059 92.466 76.5095V76.4021L92.5734 76.5095C93.8624 78.3356 94.9366 79.9469 95.6885 81.021C96.0108 81.5581 96.333 81.9878 96.5479 82.3101C96.6553 82.4175 96.7627 82.5249 96.7627 82.6323C97.0849 82.9545 97.085 82.9546 97.085 82.9546Z" fill="#263238"/>
<g opacity="0.3">
<path d="M107.72 98.6372C107.29 102.397 108.149 106.371 110.083 109.594C112.016 112.924 114.809 115.824 118.246 117.435C118.354 114.105 118.246 110.131 118.354 106.694L107.72 98.6372Z" fill="black"/>
</g>
<path d="M107.29 94.126C107.29 94.126 105.786 94.5556 106.968 97.5633C108.042 100.571 108.471 100.464 109.223 103.256C109.975 106.049 110.835 108.735 112.124 110.346C113.413 111.957 118.246 115.18 118.246 115.18L122.543 111.098C122.543 111.098 121.791 108.09 122.006 105.942C122.221 103.901 122.651 98.8523 122.543 97.993C122.436 97.1336 121.576 94.9853 121.576 94.9853V93.5889L119.321 86.7142C119.321 86.7142 118.032 86.1771 117.602 88.1106L116.85 85.9622C116.85 85.9622 115.668 85.7474 115.346 88.218C115.024 90.5812 115.561 93.9111 115.561 93.9111L114.916 98.1004L113.95 100.893L113.198 101.001C113.198 101.001 112.016 100.678 111.372 98.4227C110.835 96.3817 109.008 93.6963 107.29 94.126Z" fill="#FFBE9D"/>
<path d="M121.039 104.974C121.039 104.974 121.039 104.974 121.039 104.867C121.039 104.76 121.039 104.652 121.039 104.437C121.039 104.008 121.039 103.471 120.932 102.719C120.825 101.215 120.825 99.174 120.717 96.8108C120.502 96.5959 120.18 96.4885 119.858 96.5959C119.536 96.7034 119.213 96.9182 119.106 97.133C118.676 97.7775 118.676 98.5294 118.569 99.2814C118.354 101 118.139 102.611 117.924 104.115C117.817 104.867 117.709 105.619 117.602 106.264C117.495 106.908 117.28 107.553 117.065 108.09C116.85 108.627 116.743 109.164 116.635 109.593C116.528 110.023 116.528 110.453 116.528 110.775C116.528 111.42 116.743 111.742 116.743 111.742C116.743 111.742 116.743 111.634 116.635 111.527C116.635 111.42 116.528 111.097 116.528 110.775C116.528 110.453 116.528 110.023 116.635 109.593C116.743 109.164 116.85 108.627 117.065 108.09C117.28 107.553 117.495 106.908 117.602 106.264C117.709 105.619 117.817 104.867 117.924 104.115C118.139 102.611 118.354 101 118.569 99.2814C118.676 98.8517 118.676 98.5294 118.784 98.0998C118.891 97.6701 118.998 97.3479 119.213 97.0256C119.428 96.7034 119.75 96.4885 120.073 96.3811C120.395 96.2737 120.825 96.3811 121.147 96.7034C121.254 99.0665 121.254 101.107 121.362 102.611C121.362 103.363 121.362 103.9 121.362 104.33C121.362 104.545 121.362 104.652 121.362 104.76C121.147 104.867 121.147 104.974 121.039 104.974Z" fill="#EB996E"/>
<path d="M118.676 97.1335C118.676 97.1335 118.569 97.0261 118.461 96.7039C118.354 96.489 118.246 96.0594 118.139 95.6297C118.032 95.2 117.924 94.5555 117.817 93.911C117.817 93.5888 117.709 93.2665 117.817 92.8368C117.817 92.5146 117.924 92.0849 118.139 91.7627C118.354 91.4404 118.569 91.2256 118.891 91.1182H118.998V91.2256C119.643 92.2998 120.18 93.2665 120.502 94.0184C120.717 94.3407 120.824 94.6629 120.932 94.8778C121.039 95.0926 121.039 95.2 121.039 95.2C121.039 95.2 120.932 95.0926 120.824 94.8778C120.717 94.6629 120.502 94.3407 120.287 94.1259C119.858 93.4814 119.321 92.5146 118.676 91.333H118.784C118.461 91.4404 118.246 91.6553 118.139 91.8701C117.924 92.1923 117.817 92.5146 117.817 92.8368C117.817 93.1591 117.817 93.4813 117.817 93.8036C117.924 94.4481 117.924 94.9852 118.139 95.5223C118.246 95.9519 118.354 96.3816 118.461 96.5965C118.676 97.0261 118.784 97.1335 118.676 97.1335Z" fill="#EB996E"/>
<path d="M117.71 97.67C117.71 97.67 117.71 97.5626 117.71 97.2403C117.71 96.9181 117.71 96.5958 117.71 96.1662C117.71 95.3068 117.602 94.0178 117.602 92.6214C117.602 91.225 117.495 89.9359 117.71 89.0766C117.817 88.6469 117.817 88.2173 117.925 88.0024C118.032 87.7876 118.032 87.6802 118.032 87.6802C118.032 87.6802 117.817 88.2173 117.817 89.0766C117.71 89.9359 117.817 91.225 117.817 92.6214C117.817 94.0178 117.817 95.3068 117.817 96.1662C117.817 96.5958 117.817 96.9181 117.817 97.2403C117.71 97.5626 117.71 97.67 117.71 97.67Z" fill="#EB996E"/>
<path d="M114.057 109.057C114.057 109.057 114.272 108.735 114.594 108.09C114.809 107.768 114.917 107.446 115.132 107.016C115.239 106.586 115.454 106.157 115.561 105.619C115.669 105.082 115.669 104.653 115.669 104.223C115.669 103.793 115.669 103.364 115.561 103.041C115.454 102.397 115.346 101.967 115.346 101.967C115.346 101.967 115.454 102.075 115.454 102.182C115.561 102.397 115.561 102.612 115.669 102.934C115.776 103.256 115.776 103.686 115.776 104.116C115.776 104.545 115.776 105.082 115.669 105.619C115.561 106.157 115.454 106.586 115.239 107.016C115.024 107.446 114.917 107.768 114.702 108.09C114.487 108.412 114.38 108.627 114.272 108.735C114.165 109.057 114.057 109.057 114.057 109.057Z" fill="#EB996E"/>
<path d="M121.577 107.016L125.336 108.305C125.336 108.305 128.881 106.479 131.351 108.305C133.822 110.131 135.97 115.072 135.326 117.005C135.326 117.005 133.607 119.154 132.318 119.369C131.029 119.691 125.981 118.402 123.832 117.972C121.684 117.543 118.139 115.179 118.139 115.179L121.577 107.016Z" fill="#FFBE9D"/>
<path d="M122.113 112.494C122.113 112.494 122.113 112.387 122.113 112.172C122.113 111.957 122.113 111.635 122.006 111.313C122.006 110.561 121.898 109.487 121.898 108.305C121.898 107.123 121.898 106.049 122.006 105.297C122.006 104.868 122.113 104.653 122.113 104.438C122.113 104.223 122.221 104.116 122.221 104.116C122.221 104.116 122.221 104.545 122.113 105.405C122.113 106.157 122.113 107.231 122.113 108.412C122.113 109.594 122.113 110.561 122.221 111.42C122.221 111.85 122.221 112.065 122.221 112.279C122.113 112.387 122.113 112.494 122.113 112.494Z" fill="#EB996E"/>
<path d="M134.466 108.09C134.466 108.09 134.037 107.553 133.177 107.016C132.318 106.371 131.029 105.727 129.418 105.619C127.807 105.512 126.41 106.049 125.551 106.586C124.691 107.123 124.262 107.553 124.154 107.553C124.154 107.553 124.262 107.445 124.477 107.231C124.691 107.016 125.014 106.801 125.443 106.479C126.303 105.942 127.807 105.404 129.418 105.512C131.029 105.619 132.425 106.264 133.177 106.908C133.607 107.231 133.929 107.553 134.037 107.768C134.359 107.982 134.466 108.09 134.466 108.09Z" fill="#263238"/>
<path d="M134.037 104.975C134.037 104.975 133.5 104.545 132.426 104.116C131.459 103.686 129.848 103.578 128.237 104.008C127.377 104.223 126.733 104.545 126.088 104.867C125.444 105.19 124.907 105.619 124.477 105.942C124.047 106.264 123.725 106.586 123.51 106.801C123.295 107.016 123.188 107.123 123.188 107.123C123.188 107.123 123.295 107.016 123.51 106.694C123.725 106.479 124.047 106.156 124.477 105.727C124.907 105.405 125.444 104.975 126.088 104.545C126.733 104.223 127.485 103.793 128.344 103.578C129.955 103.149 131.674 103.364 132.641 103.793C133.178 104.008 133.5 104.223 133.822 104.438C133.715 104.76 133.822 104.867 134.037 104.975Z" fill="#263238"/>
<path d="M134.037 102.29C134.037 102.29 133.392 102.075 132.318 101.967C131.781 101.86 131.136 101.86 130.384 101.86C129.633 101.86 128.881 101.967 128.021 102.075C127.162 102.182 126.41 102.397 125.765 102.719C125.121 102.934 124.476 103.256 124.047 103.471C123.08 104.008 122.543 104.438 122.543 104.33C122.543 104.33 122.65 104.223 122.973 104.008C123.08 103.901 123.295 103.793 123.402 103.686C123.617 103.579 123.832 103.471 124.047 103.256C124.476 102.934 125.121 102.719 125.765 102.397C126.41 102.182 127.269 101.967 128.021 101.752C128.881 101.645 129.633 101.538 130.384 101.538C131.136 101.538 131.781 101.645 132.318 101.752C132.64 101.752 132.855 101.86 133.07 101.86C133.285 101.86 133.5 101.967 133.607 101.967C133.822 102.182 134.037 102.29 134.037 102.29Z" fill="#263238"/>
<path d="M105.249 69.0977C105.249 69.0977 105.464 69.4199 105.464 70.0644C105.571 70.7089 105.571 71.7831 105.356 72.9647C105.249 73.6092 105.141 74.2537 104.819 75.0056C104.604 75.7575 104.282 76.5095 103.852 77.2614C102.993 78.8726 102.026 80.4839 100.845 82.31L100.737 82.5248V82.31C100.737 81.1284 100.737 79.8394 100.737 78.5504L100.845 78.6578C99.878 79.5172 98.8039 80.3765 97.7297 81.2358C96.9778 83.599 96.5481 86.177 96.3333 88.8625C96.011 92.9443 96.2259 96.9188 96.4407 100.464C96.6555 104.008 96.7629 107.231 96.8704 110.024C96.7629 107.338 96.6555 104.116 96.4407 100.464C96.2259 96.9188 96.011 92.9443 96.3333 88.7551C96.5481 86.0696 96.9778 83.4916 97.7297 81.1284C98.8039 80.2691 99.878 79.4097 100.952 78.5504L101.06 78.443V78.6578C101.06 79.9468 101.06 81.2358 101.06 82.4174H100.952C103.315 78.7652 105.142 75.6501 105.464 73.1795C105.679 71.9979 105.679 70.9238 105.679 70.2793C105.679 69.957 105.571 69.7422 105.571 69.5273C105.249 69.2051 105.249 69.0977 105.249 69.0977Z" fill="#263238"/>
<path d="M84.4105 53.737C83.2289 52.448 82.0473 51.0515 81.188 49.5477C80.3286 48.0439 79.7916 46.2178 80.1138 44.4991C80.3286 43.4249 80.7583 42.4581 80.7583 41.4914C80.8657 40.095 80.2212 38.5911 80.7583 37.1947C81.5102 35.1538 84.3031 34.8315 86.0218 33.3277C87.3108 32.2535 87.9553 30.4274 89.4591 29.4606C90.7481 28.6013 92.3594 28.6013 93.8633 28.8161C95.3671 29.031 96.8709 29.4606 98.3748 29.2458C99.449 29.1384 100.416 28.7087 101.49 28.3865C102.564 28.1716 103.746 28.0642 104.605 28.6013C105.572 29.1384 106.109 30.4274 105.464 31.3942C107.183 30.6422 109.439 31.9312 109.868 33.7573C110.298 35.5834 109.439 37.6244 107.935 38.806C106.431 39.9875 104.498 40.6321 102.671 40.9543C97.3006 41.9211 91.5001 41.384 86.9885 38.4837" fill="#263238"/>
<path d="M103.208 71.6751C102.993 69.6342 102.779 67.9155 102.671 67.8081C102.671 67.8081 109.438 66.3043 109.009 59.4295C108.794 56.0996 107.935 49.3323 106.968 43.2095C106.001 36.6571 100.093 31.9307 93.5407 32.3604H92.8962C85.8066 33.2197 82.5841 39.7722 83.7657 46.7543L87.6327 70.3861C87.6327 70.3861 89.244 75.6496 92.7888 76.5089L97.1929 82.7391L97.9448 80.0537L101.167 77.1534C101.167 77.1534 101.919 76.2941 102.779 74.7902C103.423 73.7161 103.316 72.3196 103.208 71.6751Z" fill="#FFBE9D"/>
<path d="M102.671 67.7011C102.671 67.7011 98.3743 68.3456 93.6479 65.7676C93.6479 65.7676 96.1185 70.4939 102.886 69.4198L102.671 67.7011Z" fill="#EB996E"/>
<path d="M104.927 49.1176C104.927 49.6547 104.604 50.0844 104.067 50.1918C103.53 50.2992 103.101 49.8696 102.993 49.3325C102.993 48.7954 103.315 48.3657 103.853 48.2583C104.39 48.2583 104.819 48.688 104.927 49.1176Z" fill="#263238"/>
<path d="M105.786 46.7546C105.679 46.862 104.927 46.4324 103.852 46.4324C102.778 46.5398 102.026 47.0769 101.919 46.9694C101.812 46.9694 101.919 46.6472 102.241 46.4324C102.563 46.2175 103.101 45.8953 103.745 45.8953C104.39 45.8953 104.927 46.1101 105.249 46.3249C105.786 46.4324 105.893 46.6472 105.786 46.7546Z" fill="#263238"/>
<path d="M94.9369 49.8696C94.9369 50.4067 94.6146 50.8363 94.0776 50.9438C93.5405 51.0512 93.1108 50.6215 93.0034 50.0844C92.896 49.5473 93.3256 49.1177 93.8627 49.0103C94.3998 49.0103 94.9369 49.3325 94.9369 49.8696Z" fill="#263238"/>
<path d="M95.5816 47.614C95.4742 47.7214 94.7223 47.2917 93.6481 47.2917C92.5739 47.3991 91.822 47.9362 91.7146 47.8288C91.6072 47.8288 91.7146 47.5066 92.0369 47.2917C92.3591 47.0769 92.8962 46.7546 93.5407 46.7546C94.1852 46.7546 94.7223 46.9695 95.0445 47.1843C95.4742 47.2917 95.5816 47.5066 95.5816 47.614Z" fill="#263238"/>
<path d="M99.8777 55.1332C99.8777 55.0258 100.522 54.9184 101.596 54.7035C101.811 54.7035 102.134 54.5961 102.134 54.3813C102.134 54.1664 102.026 53.9516 101.919 53.6293C101.596 52.9848 101.274 52.3403 100.952 51.6958C99.6629 48.903 98.6961 46.5398 98.8036 46.4324C98.911 46.4324 100.093 48.5807 101.382 51.481C101.704 52.1255 102.026 52.8774 102.241 53.5219C102.348 53.8442 102.563 54.1664 102.456 54.5961C102.348 54.8109 102.241 54.9184 102.026 55.0258C101.811 55.1332 101.704 55.1332 101.596 55.1332C100.522 55.1332 99.8777 55.2406 99.8777 55.1332Z" fill="#263238"/>
<path d="M95.5807 43.5317C95.4733 43.854 94.3991 43.7465 93.2175 43.9614C92.036 44.1762 91.0692 44.6059 90.8544 44.3911C90.7469 44.2836 90.9618 43.9614 91.284 43.6391C91.7137 43.3169 92.2508 42.9946 93.0027 42.8872C93.7546 42.7798 94.3991 42.7798 94.8288 42.9946C95.3659 43.102 95.5807 43.3169 95.5807 43.5317Z" fill="#263238"/>
<path d="M105.249 43.7468C105.034 43.9616 104.389 43.7468 103.423 43.8542C102.563 43.8542 101.811 44.069 101.596 43.8542C101.489 43.7468 101.596 43.5319 101.919 43.2097C102.241 42.9949 102.778 42.78 103.315 42.6726C103.96 42.6726 104.497 42.78 104.712 43.1023C105.141 43.3171 105.356 43.6394 105.249 43.7468Z" fill="#263238"/>
<path d="M84.6249 51.9105C84.5174 51.9105 79.7911 50.8363 80.3282 55.4553C80.7578 60.0742 85.8065 58.5704 85.8065 58.463C85.8065 58.3556 84.6249 51.9105 84.6249 51.9105Z" fill="#FFBE9D"/>
<path d="M83.7656 56.9593C83.7656 56.9593 83.6582 57.0667 83.5508 57.0667C83.4433 57.1742 83.2285 57.1742 82.9063 57.1742C82.3692 57.0667 81.9395 56.3148 81.8321 55.4555C81.7247 55.0258 81.8321 54.5961 81.9395 54.2739C82.0469 53.9516 82.2618 53.6294 82.4766 53.6294C82.6914 53.522 82.9063 53.6294 83.0137 53.8442C83.1211 53.9516 83.1211 54.0591 83.1211 54.0591C83.1211 54.0591 83.2285 53.9516 83.1211 53.7368C83.1211 53.6294 83.0137 53.522 82.9063 53.4146C82.7988 53.4146 82.6914 53.4146 82.4766 53.4146C82.1543 53.522 81.8321 53.8442 81.7247 54.1665C81.6172 54.5961 81.5098 55.0258 81.6172 55.4555C81.7247 56.4222 82.2618 57.1742 83.0137 57.389C83.3359 57.389 83.6582 57.2816 83.7656 57.1742C83.7656 57.0667 83.7656 56.9593 83.7656 56.9593Z" fill="#EB996E"/>
<path d="M106.753 36.872C106.431 38.6981 102.671 40.4167 99.5559 40.3093C96.6556 40.2019 95.2592 38.8055 93.2182 37.8387C91.9292 37.1942 91.9292 37.1942 90.1031 37.5165C88.7067 37.7313 87.9548 39.45 87.0954 40.6316C88.5993 43.9615 88.0622 47.936 87.3103 51.5882C87.2029 52.0178 87.0954 52.4475 86.8806 52.6623C86.3435 53.092 85.4842 52.8772 84.9471 52.3401C84.0877 51.5882 83.7655 50.514 83.4432 49.3324C82.7987 46.8618 82.5839 44.2838 83.0136 41.8132C83.4432 39.3426 84.41 36.872 86.1287 34.9385C88.277 32.5753 91.3921 31.2863 94.6147 31.0714C97.8372 30.8566 100.952 31.9308 103.638 33.6494C104.927 34.6162 106.001 35.583 106.753 36.872Z" fill="#263238"/>
<path d="M100.523 57.4963C99.7706 57.174 98.9113 56.7444 98.1594 56.4221C98.052 56.3147 97.8371 56.3147 97.7297 56.3147C97.5149 56.3147 97.4074 56.4221 97.3 56.6369C96.7629 57.2815 96.6555 58.3556 97.0852 59.1075C97.5149 59.8595 98.4816 60.2891 99.341 59.9669C100.093 59.4298 100.523 58.463 100.523 57.4963Z" fill="#EB996E"/>
<path d="M99.3409 59.9669C99.3409 59.9669 99.2335 60.0743 99.0187 60.0743C98.8039 60.0743 98.3742 60.1817 97.9445 59.9669C97.5149 59.8595 97.0852 59.5372 96.7629 59.0001C96.4407 58.463 96.3333 57.8185 96.6555 57.174C96.7629 56.8518 96.9778 56.5295 97.1926 56.3147C97.3 56.2073 97.4074 56.0998 97.6223 55.9924C97.7297 55.9924 97.8371 55.885 97.9445 55.885C98.0519 55.885 98.1594 55.885 98.2668 55.885C98.3742 55.9924 98.4816 55.9924 98.589 56.0998C98.6964 56.2073 98.8039 56.2073 98.9113 56.3147C99.1261 56.4221 99.3409 56.5295 99.4484 56.6369C100.2 57.0666 100.523 57.3889 100.523 57.3889C100.523 57.3889 99.9855 57.174 99.3409 56.8518C99.1261 56.7444 98.9113 56.6369 98.6964 56.5295C98.589 56.4221 98.4816 56.4221 98.3742 56.3147C98.2668 56.2073 98.1594 56.2073 98.0519 56.0998C97.9445 56.0998 97.9445 56.0998 97.8371 56.0998C97.7297 56.2073 97.6223 56.2073 97.5149 56.3147C97.3 56.5295 97.1926 56.7444 97.0852 57.0666C96.8703 57.6037 96.9778 58.2482 97.1926 58.6779C97.4074 59.1075 97.8371 59.4298 98.1594 59.5372C98.4816 59.6446 98.8039 59.752 99.1261 59.752C99.2335 59.9669 99.3409 59.9669 99.3409 59.9669Z" fill="#263238"/>
<path d="M98.589 49.2252C98.589 49.2252 98.5889 48.7955 98.3741 48.0436C98.1593 47.2917 97.7296 46.2175 96.6554 45.3582C96.1183 44.9285 95.4738 44.6062 94.6145 44.4988C93.8626 44.3914 92.8958 44.3914 92.1439 44.7136C91.7142 44.8211 91.2846 45.0359 90.9623 45.3582C90.5326 45.6804 90.2104 46.0027 89.9956 46.3249C89.4585 47.0768 89.0288 48.151 89.0288 49.1178C89.0288 50.1919 89.3511 51.1587 89.9956 51.9106C90.3178 52.3403 90.6401 52.6625 90.9623 52.8774C91.2846 53.1996 91.7142 53.4145 92.1439 53.5219C93.0032 53.8441 93.8626 53.8441 94.6145 53.7367C95.3664 53.6293 96.1183 53.307 96.6554 52.8774C97.7296 52.018 98.2667 50.9439 98.3741 50.1919C98.5889 49.6549 98.589 49.2252 98.589 49.2252C98.589 49.3326 98.589 49.44 98.589 49.5474C98.589 49.6549 98.589 49.7623 98.589 49.9771C98.589 50.0845 98.589 50.2994 98.4815 50.5142C98.3741 50.9439 98.2667 51.3735 97.9445 51.8032C97.6222 52.2329 97.2999 52.77 96.6554 53.1996C96.1183 53.6293 95.3664 53.9516 94.6145 54.1664C93.7552 54.2738 92.8958 54.2738 92.0365 53.9515C91.6068 53.8441 91.1771 53.5219 90.7475 53.307C90.3178 52.9848 89.9956 52.6625 89.6733 52.2329C89.0288 51.3735 88.7065 50.4068 88.7065 49.3326C88.7065 48.2584 89.0288 47.1843 89.6733 46.4323C89.9956 46.0027 90.3178 45.6804 90.7475 45.3582C91.1771 45.0359 91.6068 44.8211 92.0365 44.7136C92.8958 44.3914 93.8626 44.3914 94.6145 44.4988C95.4738 44.6062 96.1183 45.0359 96.6554 45.4656C97.1925 45.8952 97.6222 46.4323 97.9445 46.862C98.2667 47.2917 98.3741 47.8288 98.4815 48.151C98.4815 48.3658 98.589 48.4733 98.589 48.6881C98.589 48.7955 98.589 49.0103 98.589 49.1178C98.589 49.0103 98.589 49.1178 98.589 49.2252Z" fill="#263238"/>
<path d="M110.19 48.7952C110.19 48.7952 110.19 48.3656 109.975 47.6136C109.761 46.8617 109.331 45.895 108.257 45.0356C107.72 44.606 107.075 44.2837 106.323 44.1763C105.571 44.0689 104.712 44.0689 103.853 44.3911C103.423 44.4985 102.993 44.7134 102.671 45.0356C102.349 45.2505 101.919 45.6801 101.704 46.0024C101.167 46.7543 100.845 47.7211 100.845 48.7952C100.845 49.762 101.167 50.7288 101.704 51.5881C102.027 52.0178 102.349 52.34 102.671 52.5549C102.993 52.8771 103.423 53.0919 103.853 53.1994C104.712 53.5216 105.571 53.5216 106.323 53.4142C107.075 53.3068 107.72 52.9845 108.257 52.5549C109.331 51.6955 109.761 50.7288 109.975 49.9768C110.19 49.2249 110.19 48.7952 110.19 48.7952C110.19 48.7952 110.19 48.9027 110.19 49.1175C110.19 49.2249 110.19 49.3323 110.19 49.4397C110.19 49.5472 110.19 49.762 110.083 49.9768C109.868 50.7288 109.438 51.8029 108.364 52.6623C107.827 53.0919 107.183 53.4142 106.323 53.5216C105.571 53.629 104.605 53.629 103.745 53.3068C103.316 53.1994 102.886 52.9845 102.564 52.6623C102.134 52.34 101.812 52.0178 101.489 51.5881C100.845 50.8362 100.523 49.762 100.523 48.6878C100.523 47.6136 100.845 46.6469 101.489 45.7876C101.812 45.3579 102.134 45.0356 102.564 44.7134C102.993 44.3911 103.316 44.1763 103.745 44.0689C104.605 43.7466 105.464 43.7466 106.323 43.854C107.075 43.9615 107.827 44.3911 108.364 44.7134C109.438 45.5727 109.868 46.6469 110.083 47.3988C110.083 47.6137 110.19 47.7211 110.19 47.9359C110.19 48.0433 110.19 48.1507 110.19 48.2582C110.19 48.6878 110.19 48.7952 110.19 48.7952Z" fill="#263238"/>
<path d="M100.737 47.7212C100.737 47.7212 100.63 47.6137 100.415 47.5063C100.2 47.3989 99.8779 47.2915 99.5556 47.2915C99.2334 47.2915 98.9111 47.3989 98.6963 47.5063C98.4814 47.6137 98.374 47.7212 98.374 47.7212C98.374 47.7212 98.4814 47.6138 98.5889 47.3989C98.8037 47.2915 99.1259 47.0767 99.4482 47.0767C99.8779 47.0767 100.2 47.1841 100.415 47.2915C100.737 47.6137 100.737 47.7212 100.737 47.7212Z" fill="#263238"/>
<path d="M89.2435 48.5808C89.2435 48.5808 88.2767 49.3327 87.0951 50.2995C85.9135 51.1588 84.9468 51.9108 84.8394 51.8033C84.8394 51.8033 85.8061 51.0514 86.9877 50.0847C88.1693 49.2253 89.1361 48.5808 89.2435 48.5808Z" fill="#263238"/>
<g opacity="0.3">
<path d="M85.1618 70.6011C84.7322 75.22 86.4508 80.0538 90.103 82.8467C90.4253 83.0615 90.7475 83.2763 91.0698 83.1689C91.2846 83.0615 91.4995 82.8467 91.6069 82.6318C92.6811 80.8057 93.0033 78.7648 92.6811 76.7239C92.144 78.2277 91.6069 79.7316 90.9624 81.3428C87.8473 79.4093 85.9138 75.3274 85.1618 70.6011Z" fill="black"/>
</g>
<path opacity="0.3" d="M97.6221 81.128L100.308 80.1612L100.737 84.7802C100.737 84.7802 103.637 79.4093 104.819 77.0461C106.001 74.5755 105.356 70.2788 105.356 70.2788C105.356 70.2788 105.786 74.0384 102.886 78.7648L100.63 82.3096V78.55L97.6221 81.128Z" fill="black"/>
<g opacity="0.3">
<path d="M66.1487 104.33C64.9671 103.793 63.5707 103.686 62.1743 103.793C60.7779 104.008 59.3814 104.438 58.3073 105.297C57.2331 106.156 56.4812 107.553 56.5886 108.949H56.696C57.6627 106.371 59.4888 104.545 61.9594 104.33C64.43 104.116 66.7932 105.19 68.4045 106.908C68.2971 105.727 67.3303 104.975 66.1487 104.33Z" fill="black"/>
</g>
<g opacity="0.3">
<path d="M134.681 107.016C133.822 106.049 132.533 105.404 131.136 105.19C128.881 104.76 126.303 105.512 124.584 107.123L125.121 106.693C126.41 105.941 127.914 105.512 129.418 105.512C130.922 105.512 132.425 106.156 133.607 107.123C134.574 108.09 135.218 109.379 135.755 110.668C136.078 109.379 135.541 107.982 134.681 107.016Z" fill="black"/>
</g>
<path d="M117.172 85.7472C117.172 85.7472 117.172 85.6398 117.28 85.4249C117.387 85.2101 117.495 84.7804 117.709 84.4582C118.032 83.5988 118.461 82.5247 118.998 81.2357C119.428 79.9466 119.858 78.765 120.18 77.9057C120.287 77.476 120.395 77.1538 120.502 76.939C120.61 76.7241 120.61 76.6167 120.61 76.6167C120.61 76.6167 120.61 76.7241 120.502 77.0464C120.395 77.2612 120.287 77.5835 120.18 78.0131C119.965 78.8725 119.536 80.0541 118.998 81.3431C118.569 82.6321 118.032 83.8137 117.709 84.5656C117.495 84.9953 117.387 85.3175 117.28 85.5324C117.28 85.6398 117.172 85.7472 117.172 85.7472Z" fill="#263238"/>
<path d="M74.4201 86.0695C74.4201 86.0695 73.9904 84.4583 73.5608 82.4173C73.1311 80.3764 72.9163 78.7651 72.9163 78.7651C72.9163 78.7651 73.3459 80.3764 73.7756 82.4173C74.2053 84.4583 74.5275 86.0695 74.4201 86.0695Z" fill="#263238"/>
<path d="M73.7758 106.264C73.8832 106.371 72.4868 95.7371 72.4868 95.7371C72.4868 95.7371 73.3462 87.6808 73.7758 87.3585V84.5657C73.7758 84.5657 75.0648 83.8137 75.4945 85.1028C75.4945 85.1028 76.6761 84.136 76.8909 86.4992C77.1058 88.8624 77.1058 91.333 77.1058 91.333L79.6838 97.8854L80.1135 98.1003C80.1135 98.1003 80.6505 93.0516 80.9728 92.2997C81.295 91.5478 81.5099 89.7217 82.7989 90.044C83.9805 90.3662 84.0879 91.333 83.8731 93.0517C83.6582 94.6629 83.336 96.3816 83.4434 97.4558C83.5508 98.5299 83.9805 100.893 83.8731 102.719C83.7656 104.545 82.6915 106.586 81.6173 107.983C80.5431 109.379 78.5022 112.279 77.3206 113.139C77.1058 113.139 73.7758 106.264 73.7758 106.264Z" fill="#FFBE9D"/>
<path d="M75.1718 97.5631C75.1718 97.5631 75.1718 97.3482 75.1718 97.1334C75.1718 96.8111 75.1718 96.3815 75.2792 95.9518C75.3867 94.8776 75.4941 93.4812 75.6015 91.8699C75.7089 91.118 75.7089 90.3661 75.8163 89.6142C75.8163 89.2919 75.9237 88.9697 75.8163 88.6474C75.8163 88.3252 75.7089 88.1103 75.4941 87.8955C75.1718 87.5732 74.7422 87.4658 74.4199 87.4658C74.0977 87.4658 73.9902 87.5732 73.9902 87.5732C73.9902 87.5732 73.9902 87.5732 74.0977 87.4658C74.2051 87.4658 74.3125 87.3584 74.4199 87.3584C74.7422 87.3584 75.1718 87.4658 75.6015 87.7881C75.8163 88.0029 75.9238 88.2177 76.0312 88.54C76.0312 88.8622 76.0312 89.1845 76.0312 89.5067C75.9238 90.1513 75.9237 90.9032 75.8163 91.7625C75.7089 93.3738 75.4941 94.7702 75.3867 95.8444C75.2792 96.3815 75.2792 96.7037 75.2792 97.026C75.1718 97.4556 75.1718 97.5631 75.1718 97.5631Z" fill="#EB996E"/>
<path d="M76.5683 93.2666C76.5683 93.2666 76.3535 93.5889 76.1386 94.1259C75.9238 94.663 75.8164 95.5224 75.709 96.3817C75.6015 97.241 75.3867 98.1004 75.2793 98.7449C75.1719 99.3894 75.0645 99.7116 75.0645 99.7116C75.0645 99.7116 75.0645 99.3894 75.1719 98.7449C75.2793 98.1004 75.3867 97.3485 75.4941 96.3817C75.6015 95.5224 75.709 94.663 76.0312 94.0185C76.1386 93.6963 76.246 93.4814 76.3535 93.374C76.4609 93.2666 76.5683 93.2666 76.5683 93.2666Z" fill="#EB996E"/>
<path d="M75.6016 84.7808C75.6016 84.7808 75.6016 84.8882 75.709 85.103C75.709 85.3179 75.8164 85.6401 75.9238 86.0698C76.0312 86.8217 76.2461 87.8959 76.2461 89.1849C76.3535 90.3665 76.3535 91.4406 76.3535 92.3C76.3535 92.7297 76.3535 93.0519 76.3535 93.2667C76.3535 93.4816 76.3535 93.589 76.3535 93.589C76.3535 93.589 76.3535 93.0519 76.3535 92.3C76.3535 91.5481 76.2461 90.3665 76.2461 89.1849C76.1386 88.0033 76.0312 86.9291 75.9238 86.0698C75.6016 85.2104 75.4941 84.7808 75.6016 84.7808Z" fill="#EB996E"/>
<path d="M83.1213 94.6626C83.1213 94.6626 82.6916 94.8774 82.2619 94.77C81.7248 94.6626 81.51 94.2329 81.6174 94.2329C81.6174 94.2329 81.9397 94.4477 82.3694 94.6626C82.6916 94.77 83.0139 94.6626 83.1213 94.6626Z" fill="#EB996E"/>
<path d="M73.9901 104.868L67.1154 107.768H63.0335C63.0335 107.768 58.9517 109.057 58.4146 112.817C57.7701 116.576 57.6626 118.617 59.4887 119.047C61.3148 119.476 66.256 119.584 68.8341 118.725C71.3047 117.865 77.8571 112.602 77.8571 112.602L78.5016 108.842L73.9901 104.868Z" fill="#FFBE9D"/>
<path d="M75.6017 109.057C75.6017 109.057 75.4943 108.949 75.3869 108.842C75.2795 108.735 75.0646 108.52 74.9572 108.305C74.635 107.768 74.2053 107.016 73.9905 106.157C73.7756 105.297 73.6682 104.438 73.5608 103.793C73.5608 103.149 73.5608 102.827 73.5608 102.827C73.5608 102.827 73.6682 103.149 73.6682 103.793C73.7756 104.438 73.883 105.19 74.0979 106.049C74.3127 106.909 74.635 107.66 74.9572 108.198C75.3869 108.842 75.6017 109.057 75.6017 109.057Z" fill="#EB996E"/>
<path d="M78.6092 110.346C78.6092 110.346 78.9315 109.809 79.0389 108.842C79.1463 108.412 79.0389 107.768 78.9315 107.231C78.8241 106.586 78.5018 106.049 78.0722 105.405C77.6425 104.868 77.2128 104.33 76.7831 103.793C76.3535 103.256 76.0312 102.827 75.8164 102.397C75.6016 101.967 75.4941 101.538 75.4941 101.323C75.4941 101.108 75.4941 100.893 75.4941 100.893C75.4941 100.893 75.4941 101.538 75.9238 102.289C76.1386 102.719 76.4609 103.149 76.8906 103.686C77.3202 104.116 77.7499 104.653 78.1796 105.297C78.6092 105.942 78.9315 106.586 79.0389 107.123C79.1463 107.768 79.1463 108.305 79.0389 108.842C78.9315 109.272 78.8241 109.701 78.7167 109.916C78.7167 110.024 78.6092 110.131 78.6092 110.346Z" fill="#EB996E"/>
<path d="M118.784 58.2478C119.106 58.1404 121.147 57.7107 125.121 56.744H125.229L125.121 56.8514C125.873 57.4959 126.84 58.033 128.022 58.5701C129.203 59.1072 130.492 59.4294 131.889 59.6442C132.641 59.7517 133.392 59.7517 134.144 59.7517C134.574 59.7517 134.896 59.7517 135.326 59.6442C135.756 59.5368 136.078 59.5368 136.508 59.4294C138.119 59.1072 139.73 58.4627 141.234 57.6033C142.738 56.6366 144.134 55.3476 145.316 53.8437C146.39 52.2324 147.249 50.4063 147.679 48.4728C148.109 46.4319 148.001 44.2836 147.464 42.2426C146.927 40.2017 145.96 38.1608 144.456 36.4421L143.919 35.7976C143.705 35.5827 143.49 35.3679 143.275 35.2605C143.06 35.0457 142.845 34.8308 142.63 34.7234L141.986 34.1863C141.771 33.9715 141.556 33.8641 141.341 33.7566C141.127 33.6492 140.912 33.4344 140.589 33.327C140.375 33.2196 140.052 33.1121 139.838 33.0047C139.623 32.8973 139.3 32.7899 139.086 32.6825C137.045 31.8231 134.896 31.6083 132.748 31.7157C130.707 31.8231 128.666 32.4676 126.947 33.4344C125.229 34.4011 123.832 35.6902 122.651 37.0866C121.577 38.483 120.717 40.0943 120.288 41.5981C119.75 43.2094 119.643 44.7132 119.643 46.2171C119.643 47.6135 119.965 49.0099 120.288 50.1915C120.717 51.3731 121.147 52.3399 121.684 53.1992C119.858 56.3143 118.891 58.033 118.784 58.2478C118.891 58.033 119.858 56.3143 121.791 52.9844C121.254 52.125 120.825 51.1583 120.395 49.9767C120.073 48.7951 119.75 47.5061 119.75 46.1097C119.75 44.7132 119.858 43.102 120.395 41.5981C120.932 40.0943 121.684 38.483 122.758 37.0866C123.832 35.6902 125.336 34.4011 126.947 33.4344C128.666 32.4676 130.6 31.9305 132.641 31.7157C134.681 31.6083 136.83 31.8231 138.871 32.6825C139.086 32.7899 139.408 32.8973 139.623 33.0047C139.838 33.1121 140.16 33.2196 140.375 33.327C140.589 33.4344 140.804 33.6492 141.127 33.7566C141.341 33.8641 141.556 34.0789 141.771 34.1863L142.416 34.7234C142.63 34.8308 142.845 35.0457 143.06 35.2605C143.275 35.4753 143.49 35.5827 143.705 35.7976L144.242 36.4421C145.745 38.0533 146.712 40.0943 147.249 42.1352C147.786 44.1761 147.786 46.3245 147.464 48.258C147.034 50.2989 146.283 52.125 145.101 53.6289C144.027 55.1327 142.63 56.4217 141.127 57.3885C139.623 58.3552 138.011 58.8923 136.4 59.2146C135.97 59.322 135.648 59.322 135.219 59.4294C134.789 59.4294 134.467 59.4294 134.037 59.5368C133.285 59.5368 132.533 59.5368 131.781 59.4294C130.385 59.2146 129.096 58.8923 127.914 58.3552C126.84 57.8182 125.873 57.2811 125.014 56.6366V56.5291C121.039 57.7107 118.999 58.1404 118.784 58.2478Z" fill="#263238"/>
<path d="M137.474 45.0358C137.474 45.7878 138.119 46.4323 138.871 46.4323C139.623 46.4323 140.267 45.7878 140.267 45.0358C140.267 44.2839 139.623 43.6394 138.871 43.6394C138.119 43.6394 137.474 44.2839 137.474 45.0358Z" fill="#263238"/>
<path d="M131.996 45.0358C131.996 45.7878 132.64 46.4323 133.392 46.4323C134.144 46.4323 134.788 45.7878 134.788 45.0358C134.788 44.2839 134.144 43.6394 133.392 43.6394C132.64 43.7468 131.996 44.2839 131.996 45.0358Z" fill="#263238"/>
<path d="M126.518 44.3912C126.088 45.0357 126.41 45.895 127.055 46.2173C127.699 46.647 128.559 46.3247 128.881 45.6802C129.311 45.0357 128.988 44.1764 128.344 43.8541C127.699 43.5319 126.84 43.7467 126.518 44.3912Z" fill="#263238"/>
<path d="M136.83 71.9976C136.83 71.9976 144.134 72.105 153.05 72.105C162.073 72.105 169.27 72.105 169.27 71.9976C169.27 71.9976 161.966 71.8901 153.05 71.8901C144.134 71.9976 136.83 71.9976 136.83 71.9976Z" fill="#E0E0E0"/>
<path d="M136.83 76.2944C136.83 76.2944 144.134 76.4018 153.05 76.4018C162.073 76.4018 169.27 76.4018 169.27 76.2944C169.27 76.2944 161.966 76.187 153.05 76.187C144.134 76.2944 136.83 76.2944 136.83 76.2944Z" fill="#E0E0E0"/>
<path d="M134.681 18.2891H132.426V25.8083H134.681V18.2891Z" fill="#E0E0E0"/>
<path d="M115.776 17.2148H113.52V25.9157H115.776V17.2148Z" fill="#E0E0E0"/>
<path d="M120.502 15.3887H118.247V25.9156H120.502V15.3887Z" fill="#E0E0E0"/>
<path d="M125.229 16.0332H122.973V25.9156H125.229V16.0332Z" fill="#E0E0E0"/>
<path d="M129.955 12.5957H127.699V25.8081H129.955V12.5957Z" fill="#E0E0E0"/>
<path d="M139.408 12.7034H137.152V25.9157H139.408V12.7034Z" fill="#E0E0E0"/>
<path d="M144.134 17H141.879V25.8082H144.134V17Z" fill="#E0E0E0"/>
<path d="M148.86 13.2402H146.497V25.8081H148.753V13.2402H148.86Z" fill="#E0E0E0"/>
<path d="M153.479 10.4473H151.223V25.9154H153.479V10.4473Z" fill="#E0E0E0"/>
<path d="M158.206 13.2402H155.95V25.9155H158.206V13.2402Z" fill="#E0E0E0"/>
<path d="M196.124 40.9539L207.618 39.2352C208.584 45.5729 204.18 51.4808 197.843 52.4476C191.505 53.4144 185.597 49.0102 184.63 42.6726C183.663 36.335 188.068 30.427 194.405 29.4603C195.372 29.3528 196.446 29.2454 197.413 29.3528L196.124 40.9539Z" fill="#EBEBEB"/>
<path d="M199.884 29.4604L198.487 38.3761L207.188 36.7648C207.188 36.7648 205.899 31.7162 199.884 29.4604Z" fill="#E0E0E0"/>
<path d="M57.0185 18.1814H24.2562H15.448L22.2153 23.0152V32.5753C22.2153 33.6495 23.0746 34.6163 24.2562 34.6163H57.0185C58.0927 34.6163 59.0595 33.7569 59.0595 32.5753V20.2223C59.0595 19.0407 58.0927 18.1814 57.0185 18.1814Z" fill="#F5F5F5"/>
<path d="M55.2996 24.9487C55.2996 24.9487 49.0694 25.0561 41.3354 25.0561C33.6013 25.0561 27.3711 25.0561 27.3711 24.9487C27.3711 24.8413 33.6013 24.8413 41.3354 24.8413C49.0694 24.8413 55.2996 24.9487 55.2996 24.9487Z" fill="#E0E0E0"/>
<path d="M55.2996 28.6011C55.2996 28.6011 49.0694 28.7085 41.3354 28.7085C33.6013 28.7085 27.3711 28.7085 27.3711 28.6011C27.3711 28.6011 33.6013 28.4937 41.3354 28.4937C49.0694 28.6011 55.2996 28.6011 55.2996 28.6011Z" fill="#E0E0E0"/>
<path d="M178.508 146.76H19.7446C16.4147 146.76 13.7292 144.074 13.7292 140.745V137.629H184.523V140.745C184.523 144.074 181.838 146.76 178.508 146.76Z" fill="#455A64"/>
<path d="M82.1543 136.663L84.3026 139.993H114.165L116.098 136.663H82.1543Z" fill="#263238"/>
<path d="M175.178 136.663C175.178 136.77 140.16 136.77 97.0854 136.77C53.9036 136.77 18.8855 136.77 18.8855 136.663C18.8855 136.555 53.9036 136.555 97.0854 136.555C140.16 136.555 175.178 136.663 175.178 136.663Z" fill="#263238"/>
<path d="M35.5351 49.5473C35.5351 50.1918 34.998 50.7289 34.3535 50.7289C33.709 50.7289 33.1719 50.1918 33.1719 49.5473C33.1719 48.9028 33.709 48.3657 34.3535 48.3657C34.998 48.3657 35.5351 48.9028 35.5351 49.5473Z" fill="#263238"/>
<path d="M28.3378 49.5473C28.3378 50.1918 27.8007 50.7289 27.1562 50.7289C26.5117 50.7289 25.9746 50.1918 25.9746 49.5473C25.9746 48.9028 26.5117 48.3657 27.1562 48.3657C27.8007 48.3657 28.3378 48.9028 28.3378 49.5473Z" fill="#263238"/>
<path d="M31.7753 49.5473C31.7753 50.1918 31.2382 50.7289 30.5937 50.7289C29.9492 50.7289 29.4121 50.1918 29.4121 49.5473C29.4121 48.9028 29.9492 48.3657 30.5937 48.3657C31.2382 48.3657 31.7753 48.9028 31.7753 49.5473Z" fill="#263238"/>
<path d="M171.418 112.172H23.2891V134.085H171.418V112.172Z" fill="#263238"/>
<path d="M31.883 63.8339C31.4533 63.4042 31.1311 62.9745 30.8088 62.4375C30.4866 61.9004 30.3792 61.3633 30.4866 60.7188C30.594 60.3965 30.7014 60.0743 30.7014 59.752C30.7014 59.3223 30.4866 58.7853 30.7014 58.3556C30.9162 57.7111 31.883 57.6037 32.4201 57.0666C32.8498 56.7443 33.0646 56.0998 33.4943 55.7776C33.9239 55.4553 34.461 55.5627 34.8907 55.5627C35.4278 55.6702 35.8574 55.7776 36.3945 55.6702C36.7168 55.6702 37.039 55.4553 37.4687 55.3479C37.8984 55.2405 38.2206 55.2405 38.5429 55.4553C38.8651 55.6702 38.9725 56.0998 38.8651 56.3147C39.4022 56.0998 40.1541 56.5295 40.369 57.0666C40.4764 57.7111 40.2616 58.3556 39.7245 58.7853C39.1874 59.2149 38.6503 59.3223 38.0058 59.5372C36.2871 59.8594 34.3536 59.6446 32.8498 58.7853" fill="#263238"/>
<path d="M39.939 65.7673C39.8316 64.6931 39.6168 62.4373 39.2945 60.5038C38.9723 58.3554 37.0388 56.8516 34.8904 56.959H34.6756C32.3124 57.2813 31.3456 59.4296 31.6679 61.6854L32.3124 69.9565H38.0055L37.8981 68.4527C37.8981 68.4527 40.1539 68.023 39.939 65.7673Z" fill="#FFBE9D"/>
<path d="M37.8981 68.4526C37.8981 68.4526 36.5016 68.6674 34.8904 67.8081C34.8904 67.8081 35.6423 69.4194 37.8981 68.9897V68.4526Z" fill="#EB996E"/>
<path d="M38.6501 62.3303C38.6501 62.5451 38.5427 62.6526 38.3279 62.6526C38.113 62.6526 38.0056 62.5452 38.0056 62.4377C38.0056 62.2229 38.113 62.1155 38.3279 62.1155C38.4353 62.1155 38.5427 62.2229 38.6501 62.3303Z" fill="#263238"/>
<path d="M38.8649 61.5784C38.8649 61.5784 38.5427 61.4709 38.2204 61.4709C37.8982 61.4709 37.6833 61.6858 37.5759 61.6858C37.5759 61.6858 37.5759 61.5784 37.6833 61.4709C37.7908 61.3635 38.0056 61.2561 38.2204 61.2561C38.4353 61.2561 38.6501 61.2561 38.7575 61.3635C38.8649 61.4709 38.9724 61.5784 38.8649 61.5784Z" fill="#263238"/>
<path d="M35.3198 62.5447C35.3198 62.7595 35.2124 62.8669 34.9975 62.8669C34.7827 62.8669 34.6753 62.7595 34.6753 62.6521C34.6753 62.4373 34.7827 62.3298 34.9975 62.3298C35.2124 62.3298 35.3198 62.4373 35.3198 62.5447Z" fill="#263238"/>
<path d="M35.5351 61.9006C35.5351 61.9006 35.2128 61.7932 34.8906 61.7932C34.5683 61.7932 34.3535 62.008 34.2461 62.008C34.2461 62.008 34.2461 61.9006 34.3535 61.7932C34.4609 61.6858 34.6758 61.5784 34.8906 61.5784C35.1054 61.5784 35.3203 61.5784 35.4277 61.6858C35.5351 61.7932 35.5351 61.7932 35.5351 61.9006Z" fill="#263238"/>
<path d="M36.9316 64.3712C36.9316 64.3712 37.1465 64.2638 37.4687 64.2638C37.5761 64.2638 37.6835 64.2638 37.6835 64.1564C37.6835 64.049 37.6835 64.049 37.5761 63.9416C37.4687 63.7267 37.3613 63.5119 37.2539 63.2971C36.8242 62.3303 36.502 61.5784 36.502 61.5784C36.502 61.5784 36.9316 62.3303 37.3613 63.1896C37.4687 63.4045 37.5761 63.6193 37.6835 63.8341C37.6835 63.9416 37.791 64.049 37.791 64.1564C37.791 64.2638 37.6835 64.2638 37.6835 64.2638C37.5761 64.2638 37.5761 64.2638 37.5761 64.2638C37.1465 64.3712 36.9316 64.3712 36.9316 64.3712Z" fill="#263238"/>
<path d="M35.5349 60.5036C35.5349 60.6111 35.2126 60.6111 34.7829 60.6111C34.3533 60.7185 34.031 60.8259 34.031 60.7185C34.031 60.7185 34.031 60.6111 34.1384 60.5036C34.2458 60.3962 34.4607 60.2888 34.6755 60.2888C34.8903 60.2888 35.1052 60.2888 35.32 60.2888C35.4274 60.3962 35.5349 60.5036 35.5349 60.5036Z" fill="#263238"/>
<path d="M38.7575 60.6111C38.6501 60.7185 38.4353 60.6111 38.2204 60.6111C37.8982 60.6111 37.6833 60.7185 37.6833 60.6111C37.6833 60.6111 37.6833 60.5037 37.7908 60.3962C37.8982 60.2888 38.0056 60.2888 38.2204 60.2888C38.4353 60.2888 38.5427 60.2888 38.6501 60.3962C38.7575 60.5037 38.7575 60.5037 38.7575 60.6111Z" fill="#263238"/>
<path d="M31.9901 63.2971C31.9901 63.2971 30.3789 62.9748 30.5937 64.4787C30.7011 65.9825 32.4198 65.5528 32.4198 65.4454C32.3124 65.338 31.9901 63.2971 31.9901 63.2971Z" fill="#FFBE9D"/>
<path d="M31.6683 64.9079C31.5609 65.0153 31.4535 65.0153 31.4535 65.0153C31.2387 65.0153 31.1312 64.6931 31.1312 64.4782C31.1312 64.3708 31.1312 64.156 31.1312 64.0486C31.1312 63.9412 31.2387 63.8337 31.3461 63.8337C31.4535 63.8337 31.4535 63.8337 31.5609 63.9412V64.0486C31.5609 64.0486 31.5609 64.0486 31.5609 63.9412C31.5609 63.9412 31.5609 63.8337 31.4535 63.8337H31.3461C31.2387 63.8337 31.1312 63.9412 31.1312 64.0486C31.1312 64.156 31.0238 64.3708 31.1312 64.4782C31.1312 64.8005 31.3461 65.0153 31.5609 65.1228C31.5609 65.1228 31.5609 65.0153 31.6683 64.9079Z" fill="#EB996E"/>
<path d="M39.1876 58.3556C39.0802 59.0001 37.8986 59.5372 36.8244 59.5372C35.8577 59.5372 35.428 59.0001 34.7835 58.6779C34.3538 58.4631 34.3538 58.4631 33.7093 58.5705C33.2796 58.6779 32.9574 59.215 32.7425 59.6446C33.2796 60.7188 33.0648 62.0078 32.85 63.1894C32.85 63.2968 32.85 63.5117 32.7425 63.5117C32.5277 63.6191 32.3129 63.6191 32.098 63.4043C31.7758 63.1894 31.6684 62.7598 31.6684 62.4375C31.4535 61.5782 31.3461 60.8262 31.561 59.9669C31.6684 59.1076 31.9906 58.3556 32.6351 57.7111C33.387 56.9592 34.3538 56.5295 35.428 56.4221C36.5022 56.4221 37.4689 56.7444 38.4357 57.2815C38.6505 57.6037 38.9728 57.926 39.1876 58.3556Z" fill="#263238"/>
<path d="M37.146 65.1233C36.9311 65.0159 36.6089 64.9084 36.394 64.801H36.2866C36.1792 64.801 36.1792 64.801 36.1792 64.9084C35.9644 65.1233 35.9644 65.4455 36.0718 65.6604C36.1792 65.8752 36.5014 66.09 36.8237 65.8752C37.0385 65.7678 37.146 65.4455 37.146 65.1233Z" fill="#EB996E"/>
<path d="M36.8239 65.8747C36.8239 65.8747 36.6091 65.9821 36.3943 65.8747C36.2869 65.8747 36.072 65.7673 35.9646 65.5524C35.8572 65.3376 35.8572 65.1228 35.9646 64.9079C35.9646 64.8005 36.072 64.6931 36.1794 64.5857L36.2869 64.4783C36.2869 64.4783 36.3943 64.4783 36.5017 64.4783C36.7165 64.5857 36.8239 64.6931 36.9314 64.6931C37.1462 64.8005 37.2536 64.9079 37.2536 65.0154C37.2536 65.0154 37.0388 65.0154 36.8239 64.8005C36.7165 64.6931 36.5017 64.6931 36.3943 64.5857C36.3943 64.5857 36.3943 64.5857 36.2869 64.5857C36.2869 64.5857 36.1794 64.5857 36.1794 64.6931C36.072 64.8005 36.072 64.8005 36.072 64.9079C35.9646 65.1228 36.072 65.2302 36.072 65.445C36.1794 65.5524 36.2869 65.6599 36.3943 65.7673C36.6091 65.8747 36.8239 65.8747 36.8239 65.8747Z" fill="#263238"/>
<path d="M36.5016 62.4376C36.5016 62.4376 36.5016 62.3301 36.3942 62.0079C36.2867 61.793 36.1793 61.4708 35.8571 61.1485C35.5348 60.9337 34.9977 60.7189 34.4606 60.9337C33.9236 61.1485 33.4939 61.6856 33.4939 62.3301C33.4939 62.9746 33.9236 63.5117 34.4606 63.7266C34.9977 63.9414 35.5348 63.834 35.8571 63.5117C36.1793 63.2969 36.3942 62.8672 36.3942 62.6524C36.5016 62.545 36.5016 62.4376 36.5016 62.4376C36.609 62.4376 36.609 62.4376 36.5016 62.4376C36.5016 62.6524 36.5016 62.7598 36.5016 62.8672C36.5016 63.0821 36.2867 63.5117 35.9645 63.834C35.6422 64.1562 34.9977 64.2637 34.3532 64.0488C33.7087 63.834 33.2791 63.1895 33.2791 62.4376C33.2791 61.6856 33.8161 61.0411 34.3532 60.8263C34.9977 60.6115 35.5348 60.8263 35.9645 61.0411C36.2867 61.3634 36.5016 61.6856 36.5016 62.0079C36.609 62.1153 36.609 62.2227 36.5016 62.4376C36.609 62.4376 36.609 62.3301 36.5016 62.4376Z" fill="#263238"/>
<path d="M40.3685 62.2222C40.3685 62.2222 40.3685 62.1148 40.2611 61.9C40.1537 61.6851 40.0463 61.3629 39.724 61.0406C39.4018 60.8258 38.8647 60.611 38.3276 60.8258C37.7905 61.0406 37.3608 61.5777 37.3608 62.2222C37.3608 62.8667 37.7905 63.4038 38.3276 63.6187C38.8647 63.8335 39.4018 63.7261 39.724 63.4038C40.0463 63.189 40.2611 62.8667 40.2611 62.5445C40.3685 62.3296 40.3685 62.2222 40.3685 62.2222C40.3685 62.4371 40.3685 62.4371 40.3685 62.6519C40.3685 62.8667 40.1537 63.2964 39.8314 63.5112C39.5092 63.8335 38.8647 63.9409 38.3276 63.7261C37.7905 63.5112 37.2534 62.8667 37.2534 62.2222C37.2534 61.4703 37.7905 60.8258 38.3276 60.7184C38.8647 60.5035 39.5092 60.7184 39.8314 60.9332C40.1537 61.2555 40.3685 61.5777 40.3685 61.7926C40.3685 62.0074 40.3685 62.1148 40.3685 62.2222Z" fill="#263238"/>
<path d="M37.2536 61.9001C37.2536 61.9001 37.0388 61.7927 36.824 61.7927C36.6091 61.7927 36.5017 61.9001 36.3943 61.9001C36.3943 61.9001 36.5017 61.6853 36.824 61.6853C37.1462 61.6853 37.2536 61.9001 37.2536 61.9001Z" fill="#263238"/>
<path d="M33.4941 62.1155C33.4941 62.1155 33.2792 62.4377 32.8496 62.76C32.4199 63.0822 32.0977 63.2971 32.0977 63.1897C32.0977 63.1897 32.3125 62.8674 32.7422 62.5451C33.0644 62.3303 33.3867 62.1155 33.4941 62.1155Z" fill="#263238"/>
<path d="M58.6303 123.128C58.4154 125.277 57.6635 127.21 56.3745 128.821C55.6226 129.788 54.6558 130.647 53.4742 131.292L53.152 131.507C52.9372 131.614 52.7223 131.722 52.5075 131.829C51.9704 132.044 51.4333 132.259 50.7888 132.474C50.6814 132.474 50.574 132.581 50.4666 132.581C50.0369 132.688 49.6072 132.796 49.1776 132.796C48.8553 132.796 48.533 132.796 48.2108 132.796C47.996 132.796 47.7811 132.796 47.6737 132.796C45.4179 132.688 43.2696 131.722 41.7657 130.11C41.6583 130.003 41.5509 129.895 41.4435 129.788C39.9397 127.962 39.1877 125.599 39.4026 123.236C39.8322 117.865 44.3438 113.675 49.7146 113.568C54.5484 113.461 58.6303 117.435 58.6303 122.269C58.6303 122.484 58.6303 122.806 58.6303 123.128Z" fill="#407BFF"/>
<path d="M53.0442 128.607C53.0442 128.607 52.8294 128.607 52.3997 128.5C51.8626 128.5 51.1107 128.392 50.2514 128.392C49.8217 128.392 49.392 128.392 49.0698 128.392H48.8549C48.3178 128.392 47.7807 128.5 47.2437 128.5C46.7066 128.5 46.2769 128.607 45.8472 128.607C45.6324 128.607 45.4176 128.607 45.3101 128.714L44.6656 128.822C43.5915 128.929 42.6247 129.251 41.658 129.574H41.5505C41.658 129.681 41.7654 129.789 41.8728 129.896C43.4841 131.507 45.525 132.474 47.7807 132.581C47.9956 132.581 48.2104 132.581 48.3178 132.581C48.6401 132.581 48.9623 132.581 49.2846 132.581C49.7143 132.581 50.1439 132.474 50.5736 132.367C50.681 132.367 50.7884 132.367 50.8959 132.259C51.4329 132.152 52.0774 131.937 52.6145 131.615C52.8294 131.507 53.0442 131.4 53.259 131.292L53.5813 131.078C54.6555 130.433 55.6222 129.574 56.4816 128.607C55.3 128.714 54.2258 128.714 53.0442 128.607Z" fill="#407BFF"/>
<path opacity="0.4" d="M53.0442 128.607C53.0442 128.607 52.8294 128.607 52.3997 128.5C51.8626 128.5 51.1107 128.392 50.2514 128.392C49.8217 128.392 49.392 128.392 49.0698 128.392H48.8549C48.3178 128.392 47.7807 128.5 47.2437 128.5C46.7066 128.5 46.2769 128.607 45.8472 128.607C45.6324 128.607 45.4176 128.607 45.3101 128.714L44.6656 128.822C43.5915 128.929 42.6247 129.251 41.658 129.574H41.5505C41.658 129.681 41.7654 129.789 41.8728 129.896C43.4841 131.507 45.525 132.474 47.7807 132.581C47.9956 132.581 48.2104 132.581 48.3178 132.581C48.6401 132.581 48.9623 132.581 49.2846 132.581C49.7143 132.581 50.1439 132.474 50.5736 132.367C50.681 132.367 50.7884 132.367 50.8959 132.259C51.4329 132.152 52.0774 131.937 52.6145 131.615C52.8294 131.507 53.0442 131.4 53.259 131.292L53.5813 131.078C54.6555 130.433 55.6222 129.574 56.4816 128.607C55.3 128.714 54.2258 128.714 53.0442 128.607Z" fill="black"/>
<path d="M47.888 115.502C47.888 115.502 50.466 114.105 52.507 115.18C53.4737 115.609 53.6886 116.898 53.796 117.865C54.0108 119.154 53.9034 120.55 54.0108 121.947C54.0108 122.484 54.1182 123.021 54.3331 123.558C54.6553 124.203 55.2998 124.955 55.085 125.814C54.8701 126.566 54.1182 126.995 53.4737 127.21C51.6476 127.747 49.7141 127.425 47.888 127.533C46.3842 127.64 44.9877 128.07 43.4839 128.177C43.0542 128.177 42.6246 128.177 42.3023 127.962C41.0133 127.103 41.7652 124.955 42.3023 123.773C42.732 122.806 42.5171 121.732 42.732 120.658C42.8394 119.691 43.1616 118.832 43.5913 117.865C44.5581 116.039 46.0619 115.18 47.888 115.502Z" fill="#263238"/>
<path d="M48.4254 130.433C45.9548 130.003 45.4177 128.929 45.4177 128.929C47.1364 127.533 46.1696 124.847 46.1696 124.847L49.0699 125.599C48.9625 126.029 48.8551 126.458 48.7477 126.888C48.5328 128.714 49.2848 128.714 49.2848 128.714C49.8218 129.681 48.4254 130.433 48.4254 130.433Z" fill="#EEC1BB"/>
<path opacity="0.2" d="M49.1774 125.599C49.07 126.029 48.9625 126.458 48.8551 126.888C47.4587 126.458 46.1697 124.955 46.1697 124.955L49.1774 125.599Z" fill="black"/>
<path d="M49.4997 117.113C52.0777 117.328 52.7222 118.832 52.3999 121.517C52.0777 124.847 51.0035 127.21 47.8884 126.244C43.6991 124.847 45.203 116.683 49.4997 117.113Z" fill="#EEC1BB"/>
<path d="M50.7886 121.195C50.896 121.624 51.1108 121.947 51.3257 122.376C51.1108 122.591 50.896 122.699 50.5737 122.591L50.7886 121.195Z" fill="#D4827D"/>
<path d="M49.2846 120.873C49.2846 121.088 49.0698 121.302 48.9624 121.195C48.855 121.195 48.7476 120.98 48.7476 120.765C48.7476 120.551 48.9624 120.336 49.0698 120.443C49.1772 120.551 49.2846 120.658 49.2846 120.873Z" fill="#263238"/>
<path d="M48.9624 120.443L49.4995 120.335C49.4995 120.335 49.1772 120.658 48.9624 120.443Z" fill="#263238"/>
<path d="M51.9697 120.98C51.9697 121.195 51.7549 121.41 51.6474 121.302C51.54 121.302 51.4326 121.088 51.4326 120.873C51.4326 120.658 51.6475 120.443 51.7549 120.551C51.8623 120.551 51.9697 120.765 51.9697 120.98Z" fill="#263238"/>
<path d="M51.6477 120.55L52.1848 120.443C52.1848 120.443 51.8625 120.765 51.6477 120.55Z" fill="#263238"/>
<path d="M48.3179 119.477H48.2104C48.103 119.369 48.103 119.369 48.2104 119.262C48.5327 118.94 49.0698 118.832 49.4995 118.94C49.6069 118.94 49.6069 119.047 49.6069 119.155C49.6069 119.262 49.4995 119.262 49.392 119.262C49.1772 119.155 48.7475 119.262 48.3179 119.477C48.4253 119.477 48.4253 119.477 48.3179 119.477Z" fill="#263238"/>
<path d="M52.3999 119.584C52.0776 119.369 51.7553 119.261 51.4331 119.261C51.3257 119.261 51.2183 119.261 51.2183 119.154C51.2183 119.047 51.2183 118.939 51.3257 118.939C51.7553 118.832 52.185 119.047 52.5073 119.261C52.6147 119.369 52.6147 119.369 52.5073 119.476C52.5073 119.584 52.5073 119.584 52.3999 119.584Z" fill="#263238"/>
<path d="M45.955 121.195C45.955 121.195 47.4588 119.154 47.5663 117.542C47.5663 117.542 53.0445 115.931 52.4 121.195C52.4 121.195 53.689 116.576 49.2849 116.146C44.8808 115.716 43.8066 122.161 45.7402 124.31C45.8476 124.202 44.9882 122.484 45.955 121.195Z" fill="#263238"/>
<path d="M46.2771 121.839C46.3845 121.302 45.9548 120.765 45.3103 120.658H45.2029C44.3436 120.658 43.6991 122.269 45.6326 122.913C46.0623 122.913 46.1697 122.699 46.2771 121.839Z" fill="#EEC1BB"/>
<path d="M50.3588 123.88C49.7143 123.88 49.1772 123.451 48.9624 122.806C48.9624 122.699 48.9624 122.699 49.0698 122.591C49.1772 122.591 49.2847 122.591 49.2847 122.699C49.3921 123.236 49.9292 123.558 50.4662 123.451C50.5737 123.451 50.5737 123.451 50.6811 123.558C50.5737 123.773 50.4662 123.773 50.3588 123.88Z" fill="#263238"/>
<path d="M51.5402 129.466C51.0031 130.326 50.0364 132.044 49.177 132.689C48.8548 132.689 48.5325 132.689 48.2103 132.689C47.9954 132.689 47.7806 132.689 47.6732 132.689C46.2767 132.044 44.2358 130.54 43.1616 129.681C43.0542 129.574 42.9468 129.251 43.1616 129.144C43.2691 129.037 43.2691 129.037 43.3765 129.037L45.2026 128.714L46.0619 127.748L46.1693 127.64L46.2767 127.748L47.1361 128.499L48.3177 129.466L48.7473 128.392L48.8548 128.177L49.177 127.533L50.2512 128.392L51.2179 128.714C51.5402 128.822 51.6476 129.037 51.6476 129.359C51.5402 129.359 51.5402 129.466 51.5402 129.466Z" fill="#407BFF"/>
<path opacity="0.6" d="M51.5402 129.466C51.0031 130.326 50.0364 132.044 49.177 132.689C48.8548 132.689 48.5325 132.689 48.2103 132.689C47.9954 132.689 47.7806 132.689 47.6732 132.689C46.2767 132.044 44.2358 130.54 43.1616 129.681C43.0542 129.574 42.9468 129.251 43.1616 129.144C43.2691 129.037 43.2691 129.037 43.3765 129.037L45.2026 128.714L46.0619 127.748L46.1693 127.64L46.2767 127.748L47.1361 128.499L48.3177 129.466L48.7473 128.392L48.8548 128.177L49.177 127.533L50.2512 128.392L51.2179 128.714C51.5402 128.822 51.6476 129.037 51.6476 129.359C51.5402 129.359 51.5402 129.466 51.5402 129.466Z" fill="white"/>
<path opacity="0.3" d="M45.2026 128.714L46.4916 130.863L48.3177 129.681L49.929 130.433L50.2513 128.392L49.1771 127.533L48.3177 129.466L46.1694 127.64L45.2026 128.714Z" fill="white"/>
<path d="M52.0777 120.765C51.9703 120.765 51.9703 120.657 51.9703 120.657C51.9703 119.691 51.5406 118.831 50.8961 118.187C49.6071 117.22 47.6736 117.65 47.6736 117.65C47.5662 117.65 47.5662 117.65 47.4587 117.542C47.4587 117.435 47.4587 117.435 47.5662 117.328C47.6736 117.328 49.6071 116.898 51.0035 117.972C51.7554 118.617 52.1851 119.583 52.1851 120.657C52.2925 120.765 52.1851 120.765 52.0777 120.765Z" fill="#263238"/>
<path d="M41.7654 130.003C41.6579 129.896 41.5505 129.789 41.4431 129.681H41.5505H41.658C41.658 129.681 41.6579 129.896 41.7654 130.003Z" fill="#407BFF"/>
<path d="M90.8552 123.128C90.7477 125.062 89.9958 126.888 88.9216 128.392C88.9216 128.499 88.8142 128.499 88.8142 128.606C88.5994 128.821 88.492 129.036 88.2771 129.251C88.1697 129.358 88.0623 129.466 88.0623 129.573C87.9549 129.681 87.8475 129.788 87.6326 130.003L87.3104 130.325C87.203 130.433 87.203 130.433 87.0955 130.433C86.451 130.97 85.6991 131.399 84.9472 131.829C83.5508 132.474 82.0469 132.903 80.5431 132.903C79.7912 132.903 78.9318 132.796 78.1799 132.581C77.2131 132.366 76.3538 131.936 75.4945 131.399L75.3871 131.292C75.0648 131.077 74.85 130.862 74.5277 130.647C74.2055 130.433 73.9906 130.11 73.6684 129.788L73.5609 129.681C72.0571 127.855 71.4126 125.599 71.6274 123.236C72.0571 117.865 76.5686 113.675 81.9395 113.568C86.7733 113.461 90.8552 117.435 90.8552 122.269C90.8552 122.484 90.8552 122.806 90.8552 123.128Z" fill="#407BFF"/>
<path d="M87.418 127.962C86.7735 127.21 86.1289 126.459 85.2696 125.814C85.9141 126.459 86.5586 127.21 87.0957 127.962C87.2031 128.07 87.3105 128.285 87.418 128.392C87.418 128.499 87.5254 128.499 87.5254 128.607C87.7402 128.929 87.8476 129.144 87.955 129.466C87.8476 129.574 87.7402 129.681 87.5254 129.896L87.2031 130.218C87.0957 130.326 87.0957 130.326 86.9883 130.326C86.3438 130.863 85.5919 131.292 84.8399 131.722C83.4435 132.366 81.9397 132.796 80.4358 132.796C79.6839 132.796 78.8246 132.689 78.0726 132.474C77.1059 132.259 76.2465 131.829 75.3872 131.292V131.185C75.602 130.433 75.7095 129.574 75.8169 128.822C75.8169 128.714 75.8169 128.607 75.9243 128.499C76.1391 127.21 76.2465 125.921 76.1391 124.525C75.8169 119.799 76.7836 117.328 78.1801 116.898C78.932 116.684 79.5765 116.576 80.1136 116.469C80.5432 116.361 80.9729 116.361 81.4026 116.361C83.8732 116.254 84.4103 117.435 85.2696 118.832C85.377 118.939 85.377 119.154 85.4844 119.262C86.1289 120.873 85.1622 123.343 85.8067 124.955C85.9141 125.277 86.1289 125.599 86.3438 125.814C87.2031 126.566 87.955 127.425 88.4921 128.392C88.5996 128.499 88.5995 128.607 88.5995 128.714C88.3847 128.929 88.2773 129.144 88.0625 129.359C87.955 128.822 87.7402 128.392 87.418 127.962Z" fill="#263238"/>
<path d="M89.2438 127.21C88.8141 126.351 87.9548 125.921 87.0954 125.599C86.6658 125.492 86.3435 125.277 86.0213 125.062C85.0545 124.417 85.3768 121.732 85.3768 121.625C85.3768 121.517 85.4842 121.517 85.4842 121.517C85.5916 121.517 85.5916 121.625 85.5916 121.625C85.5916 121.625 85.2693 124.31 86.1287 124.954C86.4509 125.169 86.8806 125.384 87.2029 125.492C87.9548 125.814 88.9215 126.243 89.3512 127.103C89.3512 127.103 89.3512 127.21 89.2438 127.21Z" fill="#263238"/>
<path d="M88.9218 128.392C88.9218 128.499 88.8144 128.499 88.8144 128.607C88.5996 128.822 88.4921 129.037 88.2773 129.251C88.1699 129.359 88.0625 129.466 88.0625 129.574C87.955 129.681 87.8476 129.789 87.6328 130.003L87.3105 130.326L87.5254 128.07C87.955 128.177 88.2773 128.285 88.707 128.392C88.707 128.285 88.8144 128.285 88.9218 128.392Z" fill="white"/>
<path d="M87.0957 130.326C86.4512 130.863 85.6992 131.292 84.9473 131.722C83.5509 132.367 82.047 132.796 80.5432 132.796C79.7913 132.796 78.9319 132.689 78.18 132.474C77.2133 132.259 76.3539 131.829 75.4946 131.292L75.3872 131.185C75.0649 130.97 74.8501 130.755 74.5278 130.54C74.4204 130.111 74.313 129.681 74.2056 129.251C74.5278 129.144 74.7427 129.037 75.0649 129.037C75.3872 128.929 75.602 128.929 75.9243 128.822H76.0317L76.5688 128.714C76.891 128.607 77.1058 128.607 77.4281 128.499C77.7503 128.392 77.9652 128.392 78.2874 128.392L78.8245 128.285C79.2542 128.177 79.5764 128.177 80.0061 128.07C80.4358 128.07 80.6506 127.962 80.9729 127.962L81.7248 127.855H82.6915H83.5509C84.1954 127.855 84.8399 127.855 85.377 127.962H86.0215H86.3437H86.666C86.666 127.962 86.9882 128.07 86.9882 130.003C87.0957 130.218 86.9882 130.326 87.0957 130.326Z" fill="#263238"/>
<path d="M86.988 130.111C86.3435 130.433 85.5916 130.648 84.8396 130.863C82.5839 131.4 80.1133 131.507 77.7501 131.4C76.8907 131.4 76.1388 131.292 75.3869 131.185H75.1721C74.8498 130.97 74.635 130.755 74.3127 130.54C74.2053 130.111 74.0979 129.681 73.9905 129.251C74.3127 129.144 74.5276 129.037 74.8498 129.037C75.1721 128.929 75.3869 128.929 75.7092 128.822H75.8166L76.3537 128.714C76.6759 128.607 76.8907 128.607 77.213 128.499C77.5353 128.392 77.7501 128.392 78.0723 128.392L78.6094 128.285C79.0391 128.177 79.3614 128.177 79.791 128.07C80.2207 128.07 80.4355 127.962 80.7578 127.962L81.5097 127.855H82.4765H83.3358C83.9803 127.855 84.6248 127.855 85.1619 127.962H85.8064H86.1287H86.4509C86.6657 128.07 86.988 128.177 86.988 130.111Z" fill="#EEC1BB"/>
<path d="M78.18 132.473C77.2132 132.259 76.3539 131.829 75.4946 131.292L75.3871 131.184C75.0649 130.97 74.8501 130.755 74.5278 130.54C74.2055 130.325 73.9907 130.003 73.6685 129.681C73.6685 129.573 73.6685 129.573 73.6685 129.466L76.0316 128.392L76.3539 128.284C76.3539 128.284 76.4613 128.392 76.5687 128.606C77.1058 129.466 77.5355 130.433 77.8577 131.292C77.9652 131.722 78.0726 132.044 78.18 132.473Z" fill="white"/>
<path d="M87.5255 129.896L87.2032 130.218C87.0958 130.326 87.0958 130.326 86.9884 130.326C86.3439 130.863 85.592 131.292 84.8401 131.722C84.8401 131.4 84.8401 131.185 84.7326 130.863C84.6252 129.788 84.4104 128.714 84.0881 127.64L87.2032 127.855C87.2032 128.07 87.3107 128.285 87.3107 128.499C87.5255 129.037 87.5255 129.466 87.5255 129.896Z" fill="white"/>
<path d="M81.4025 130.003C79.0393 129.681 78.3948 128.714 78.3948 128.714C79.4689 127.747 79.3615 126.458 79.1467 125.599C79.0393 125.277 79.0393 125.062 78.9319 124.847L81.8321 125.384C81.7247 125.814 81.6173 126.244 81.6173 126.566C81.6173 126.888 81.6173 127.21 81.6173 127.425C81.7247 128.285 82.2618 128.285 82.2618 128.285C82.6915 129.251 81.4025 130.003 81.4025 130.003Z" fill="#EEC1BB"/>
<path opacity="0.2" d="M81.6173 126.566C81.6173 126.888 81.6173 127.21 81.6173 127.425C80.4357 127.318 79.6838 126.351 79.1467 125.599C79.0393 125.277 79.0393 125.062 78.9319 124.847L81.8322 125.384C81.7247 125.707 81.6173 126.136 81.6173 126.566Z" fill="black"/>
<path d="M81.8322 117.328C84.3028 117.435 85.0547 118.832 84.9473 121.41C84.8399 124.632 83.8731 126.996 80.758 126.136C76.5687 124.955 77.6429 117.113 81.8322 117.328Z" fill="#EEC1BB"/>
<path d="M83.2285 121.195C83.3359 121.624 83.5508 121.947 83.873 122.269C83.6582 122.484 83.4434 122.591 83.2285 122.484V121.195Z" fill="#D4827D"/>
<path d="M81.7248 120.873C81.7248 121.087 81.6174 121.195 81.4026 121.195C81.2952 121.195 81.1877 120.98 81.1877 120.765C81.1877 120.55 81.2952 120.443 81.51 120.443C81.6174 120.55 81.7248 120.658 81.7248 120.873Z" fill="#263238"/>
<path d="M81.5098 120.55L81.9394 120.335C81.9394 120.335 81.7246 120.765 81.5098 120.55Z" fill="#263238"/>
<path d="M84.3027 120.873C84.3027 121.087 84.1953 121.195 83.9805 121.195C83.873 121.195 83.7656 120.98 83.7656 120.765C83.7656 120.55 83.873 120.443 84.0879 120.443C84.1953 120.55 84.3027 120.658 84.3027 120.873Z" fill="#263238"/>
<path d="M84.0881 120.55L84.5178 120.335C84.5178 120.335 84.303 120.765 84.0881 120.55Z" fill="#263238"/>
<path d="M80.7581 119.691C80.6506 119.691 80.6506 119.583 80.6506 119.583V119.476C80.9729 119.154 81.51 119.046 81.9396 119.046C82.0471 119.046 82.0471 119.154 82.0471 119.261C82.0471 119.369 81.9397 119.369 81.8322 119.369C81.51 119.369 81.0803 119.476 80.8655 119.691C80.8655 119.583 80.8655 119.691 80.7581 119.691Z" fill="#263238"/>
<path d="M84.7326 119.477C84.4104 119.262 84.0881 119.155 83.7659 119.262C83.6584 119.262 83.551 119.262 83.551 119.155C83.551 119.047 83.551 118.94 83.6584 118.94C84.0881 118.832 84.5178 118.94 84.7326 119.262C84.84 119.262 84.84 119.369 84.7326 119.477C84.84 119.477 84.84 119.477 84.7326 119.477Z" fill="#263238"/>
<path d="M82.6913 123.451C82.5839 123.773 82.3691 123.988 82.2617 124.31H82.0468C81.2949 124.203 81.0801 123.88 80.9727 123.665C80.9727 123.558 80.9727 123.343 80.9727 123.236C80.9727 123.128 80.9727 123.021 81.0801 123.021C81.5097 123.236 81.9394 123.451 82.4765 123.558C82.5839 123.451 82.6913 123.451 82.6913 123.451Z" fill="#263238"/>
<path d="M82.4765 123.451L82.3691 123.666C81.7246 123.558 81.1875 123.451 81.0801 123.128C81.0801 123.021 81.0801 122.914 81.1875 122.914C81.5097 123.236 81.9394 123.343 82.4765 123.451Z" fill="white"/>
<path d="M82.1543 124.31C81.4023 124.203 81.1875 123.88 81.0801 123.666C81.4023 123.666 81.6172 123.773 81.832 123.988C81.9394 123.988 82.0468 124.203 82.1543 124.31Z" fill="#DE5753"/>
<path d="M78.61 121.41C78.61 121.41 80.0064 119.369 80.0064 117.758C80.0064 117.758 85.1625 115.932 84.8402 120.98C84.8402 120.98 85.807 116.469 81.5103 116.254C77.2136 116.039 76.4617 122.377 78.5026 124.31C78.61 124.31 77.7507 122.699 78.61 121.41Z" fill="#263238"/>
<path d="M78.9325 121.947C78.9325 121.41 78.5029 120.873 77.9658 120.873H77.8584C77.1064 120.98 76.5694 122.484 78.3955 123.021C78.7177 123.128 78.8251 122.806 78.9325 121.947Z" fill="#EEC1BB"/>
<path d="M80.5434 115.609C81.9398 115.179 85.592 115.179 86.1291 118.939L85.592 119.154C84.7327 118.724 83.8733 118.402 82.9066 118.295C82.6917 117.972 82.4769 117.65 82.2621 117.328C82.2621 117.65 82.2621 117.972 82.1546 118.295C82.1546 118.295 79.7915 118.617 78.6099 119.584C76.7838 121.087 76.6764 122.054 76.6764 122.054C76.6764 122.054 76.0319 116.791 80.5434 115.609Z" fill="#263238"/>
<path d="M86.4512 118.939C86.1289 117.757 85.4844 116.791 84.4102 116.254C82.5841 115.287 80.3284 116.039 80.2209 116.039C80.1135 116.039 80.1135 116.039 80.1135 115.931C80.1135 115.824 80.1135 115.824 80.2209 115.824C80.3284 115.824 82.6916 114.965 84.5176 116.039C85.5918 116.683 86.3437 117.65 86.5586 118.832C86.5586 118.832 86.5586 118.939 86.4512 118.939Z" fill="#263238"/>
<path d="M155.306 123.128C155.199 125.062 154.447 126.888 153.265 128.499C153.265 128.606 153.158 128.606 153.158 128.714C152.943 128.929 152.835 129.144 152.621 129.358C152.513 129.466 152.406 129.573 152.298 129.681C152.191 129.788 152.084 129.895 151.869 130.11L151.546 130.433C151.439 130.54 151.439 130.54 151.332 130.647C150.687 131.185 149.935 131.614 149.183 132.044C147.787 132.688 146.176 133.118 144.672 133.118C143.812 133.118 143.06 133.011 142.309 132.796C141.342 132.581 140.375 132.151 139.623 131.614L139.516 131.507C139.193 131.292 138.979 131.077 138.656 130.862C138.334 130.54 138.119 130.325 137.797 130.003L137.69 129.895C136.186 128.069 135.434 125.706 135.649 123.343C136.078 117.865 140.697 113.568 146.283 113.461C151.224 113.353 155.413 117.328 155.413 122.376C155.306 122.484 155.306 122.806 155.306 123.128Z" fill="#407BFF"/>
<path d="M151.761 128.069C151.116 127.21 150.365 126.565 149.613 125.921C150.257 126.565 150.902 127.317 151.439 128.069C151.546 128.177 151.654 128.392 151.761 128.606C151.761 128.714 151.868 128.714 151.868 128.821C152.083 129.143 152.191 129.358 152.298 129.681C152.191 129.788 152.083 129.895 151.868 130.11L151.546 130.432C151.439 130.54 151.439 130.54 151.331 130.647C150.687 131.184 149.935 131.614 149.183 132.044C147.787 132.688 146.175 133.118 144.671 133.118C143.812 133.118 143.06 133.01 142.308 132.796C141.341 132.581 140.375 132.151 139.623 131.614V131.507C139.838 130.755 139.945 129.895 140.16 129.036C140.16 128.929 140.16 128.821 140.267 128.714C140.482 127.425 140.59 126.028 140.482 124.632C140.16 119.798 141.127 117.22 142.523 116.898C143.275 116.683 143.92 116.576 144.457 116.468C144.886 116.361 145.316 116.361 145.746 116.361C148.216 116.253 148.753 117.435 149.72 118.939C149.827 119.046 149.827 119.261 149.935 119.368C150.579 121.087 149.613 123.558 150.257 125.169C150.365 125.491 150.579 125.814 150.794 126.028C151.654 126.78 152.405 127.64 152.943 128.714C153.05 128.821 153.05 128.929 153.05 129.036C152.835 129.251 152.728 129.466 152.513 129.681C152.298 128.929 152.083 128.499 151.761 128.069Z" fill="#263238"/>
<path d="M153.588 127.318C153.158 126.458 152.299 126.029 151.439 125.706C151.01 125.599 150.687 125.384 150.258 125.062C149.291 124.31 149.613 121.625 149.613 121.517C149.613 121.41 149.721 121.41 149.721 121.41C149.828 121.41 149.828 121.517 149.828 121.517C149.828 121.517 149.506 124.203 150.365 124.847C150.687 125.062 151.117 125.277 151.439 125.384C152.299 125.706 153.158 126.136 153.588 127.103C153.802 127.21 153.695 127.318 153.588 127.318C153.695 127.318 153.695 127.318 153.588 127.318Z" fill="#263238"/>
<path d="M153.265 128.499C153.265 128.606 153.158 128.606 153.158 128.714C152.943 128.929 152.835 129.144 152.621 129.358C152.513 129.466 152.406 129.573 152.298 129.681C152.191 129.788 152.083 129.895 151.869 130.11L151.546 130.433L151.761 128.177C152.191 128.284 152.621 128.392 152.943 128.499C153.05 128.392 153.158 128.392 153.265 128.499Z" fill="white"/>
<path d="M151.332 130.54C150.687 131.077 149.935 131.507 149.183 131.936C147.787 132.581 146.175 133.011 144.672 133.011C143.812 133.011 143.06 132.903 142.308 132.688C141.342 132.473 140.375 132.044 139.623 131.507L139.516 131.399C139.193 131.184 138.978 130.97 138.656 130.755C138.549 130.325 138.441 129.895 138.334 129.466C138.656 129.358 138.871 129.251 139.193 129.251C139.516 129.144 139.73 129.144 140.053 129.036H140.16L140.697 128.929C141.019 128.821 141.342 128.821 141.557 128.714C141.771 128.606 142.201 128.606 142.416 128.499L142.953 128.392C143.383 128.284 143.705 128.284 144.135 128.177C144.564 128.177 144.779 128.069 145.209 128.069L145.961 127.962H146.927H147.787C148.431 127.962 149.076 127.962 149.613 128.069H150.257H150.58H150.902C150.902 128.069 151.224 128.177 151.224 130.218C151.331 130.325 151.332 130.433 151.332 130.54Z" fill="#263238"/>
<path d="M151.331 130.325C150.58 130.647 149.828 130.97 149.076 131.077C146.713 131.614 144.242 131.829 141.879 131.614C141.019 131.614 140.16 131.507 139.516 131.399H139.301C138.978 131.184 138.764 130.97 138.441 130.755C138.334 130.325 138.227 129.895 138.119 129.466C138.441 129.358 138.656 129.251 138.978 129.251C139.301 129.144 139.516 129.144 139.838 129.036H139.945L140.482 128.929C140.805 128.821 141.127 128.821 141.342 128.714C141.664 128.606 141.986 128.606 142.201 128.499L142.738 128.392C143.168 128.284 143.49 128.284 143.92 128.177C144.349 128.177 144.564 128.069 144.994 128.069L145.746 127.962H146.713H147.572C148.216 127.962 148.861 127.962 149.398 128.069H150.042H150.365H150.687C151.009 128.177 151.331 128.284 151.331 130.325Z" fill="#EEC1BB"/>
<path d="M142.308 132.688C141.342 132.473 140.375 132.044 139.623 131.507L139.516 131.399C139.193 131.184 138.978 130.97 138.656 130.755C138.334 130.433 138.119 130.218 137.797 129.895C137.797 129.788 137.797 129.788 137.797 129.681L140.267 128.606L140.59 128.499C140.59 128.499 140.697 128.606 140.805 128.821C141.342 129.681 141.771 130.647 142.094 131.614C142.094 131.936 142.201 132.259 142.308 132.688Z" fill="white"/>
<path d="M151.869 130.003L151.546 130.326C151.439 130.433 151.439 130.433 151.331 130.54C150.687 131.078 149.935 131.507 149.183 131.937C149.183 131.615 149.183 131.4 149.076 131.078C148.968 130.003 148.753 128.929 148.431 127.855L151.654 128.07C151.654 128.285 151.761 128.499 151.761 128.822C151.869 129.144 151.869 129.574 151.869 130.003Z" fill="white"/>
<path d="M145.638 130.218C143.167 129.896 142.523 128.822 142.523 128.822C143.597 127.855 143.49 126.458 143.382 125.599C143.275 125.277 143.275 125.062 143.167 124.74L146.068 125.277C145.96 125.707 145.853 126.136 145.853 126.566C145.853 126.888 145.853 127.21 145.853 127.533C145.96 128.392 146.497 128.392 146.497 128.392C146.927 129.466 145.638 130.218 145.638 130.218Z" fill="#EEC1BB"/>
<path opacity="0.2" d="M145.745 126.673C145.745 126.996 145.745 127.318 145.745 127.64C144.564 127.533 143.812 126.566 143.275 125.707C143.167 125.384 143.167 125.169 143.06 124.847L145.96 125.384C145.853 125.814 145.853 126.244 145.745 126.673Z" fill="black"/>
<path d="M146.068 117.112C148.646 117.22 149.29 118.616 149.183 121.302C149.076 124.632 148.001 126.995 144.886 126.135C140.59 125.061 141.771 117.005 146.068 117.112Z" fill="#EEC1BB"/>
<path d="M147.464 121.087C147.572 121.517 147.787 121.839 148.109 122.162C147.894 122.376 147.679 122.484 147.357 122.376L147.464 121.087Z" fill="#D4827D"/>
<path d="M145.961 120.873C145.961 121.087 145.853 121.302 145.638 121.302C145.424 121.302 145.424 121.087 145.424 120.873C145.424 120.658 145.531 120.443 145.746 120.443C145.853 120.443 145.961 120.658 145.961 120.873Z" fill="#263238"/>
<path d="M145.638 120.443L146.068 120.228C146.176 120.335 145.853 120.658 145.638 120.443Z" fill="#263238"/>
<path d="M148.539 120.873C148.539 121.087 148.431 121.302 148.216 121.302C148.001 121.302 148.001 121.087 148.001 120.873C148.001 120.658 148.109 120.443 148.324 120.443C148.539 120.443 148.646 120.658 148.539 120.873Z" fill="#263238"/>
<path d="M148.324 120.443L148.753 120.228C148.753 120.335 148.539 120.658 148.324 120.443Z" fill="#263238"/>
<path d="M144.994 119.583C144.886 119.583 144.886 119.476 144.886 119.476V119.369C145.209 119.046 145.746 118.939 146.175 118.939C146.283 118.939 146.283 119.046 146.283 119.154C146.283 119.261 146.175 119.261 146.068 119.261C145.746 119.154 145.316 119.369 145.101 119.583H144.994Z" fill="#263238"/>
<path d="M148.968 119.476C148.646 119.261 148.324 119.154 148.001 119.261C147.894 119.261 147.787 119.261 147.787 119.154C147.787 119.047 147.787 118.939 147.894 118.939C148.324 118.832 148.753 118.939 149.076 119.261C149.183 119.261 149.183 119.369 149.076 119.476C149.076 119.369 149.076 119.476 148.968 119.476Z" fill="#263238"/>
<path d="M146.927 123.451C146.82 123.773 146.605 123.988 146.498 124.31H146.283C145.531 124.203 145.208 123.88 145.208 123.665C145.208 123.558 145.208 123.343 145.208 123.236C145.208 123.128 145.208 123.021 145.316 123.021C145.746 123.343 146.175 123.451 146.712 123.558C146.82 123.451 146.927 123.451 146.927 123.451Z" fill="#263238"/>
<path d="M146.713 123.451L146.605 123.666C145.961 123.558 145.424 123.451 145.316 123.128C145.316 123.021 145.316 122.914 145.424 122.914C145.746 123.236 146.176 123.343 146.713 123.451Z" fill="white"/>
<path d="M146.39 124.31C145.638 124.203 145.316 123.88 145.316 123.666C145.638 123.666 145.853 123.773 146.068 123.988C146.176 123.988 146.283 124.203 146.39 124.31Z" fill="#DE5753"/>
<path d="M142.738 121.409C142.738 121.409 144.134 119.368 144.134 117.65C144.134 117.65 149.505 115.716 149.183 120.98C149.183 120.98 150.149 116.361 145.745 116.146C141.341 115.931 140.589 122.376 142.738 124.417C142.738 124.417 141.878 122.698 142.738 121.409Z" fill="#263238"/>
<path d="M143.06 121.947C143.06 121.41 142.631 120.873 142.094 120.873H141.986C141.234 120.98 140.59 122.591 142.523 123.021C142.846 123.128 143.06 122.806 143.06 121.947Z" fill="#EEC1BB"/>
<path d="M144.672 115.394C146.068 114.964 149.828 114.964 150.365 118.831L149.828 119.046C148.968 118.617 148.002 118.294 147.142 118.187C146.927 117.865 146.713 117.435 146.498 117.113C146.498 117.435 146.498 117.757 146.39 118.079C146.39 118.079 143.92 118.402 142.738 119.476C140.912 120.98 140.697 122.054 140.697 122.054C140.697 122.054 140.053 116.683 144.672 115.394Z" fill="#263238"/>
<path d="M150.794 118.831C150.472 117.65 149.72 116.575 148.753 116.038C146.927 115.072 144.564 115.823 144.457 115.823C144.349 115.823 144.349 115.823 144.349 115.716C144.349 115.609 144.349 115.609 144.457 115.609C144.564 115.609 146.927 114.749 148.861 115.823C149.935 116.468 150.687 117.435 150.902 118.724C150.902 118.724 150.902 118.831 150.794 118.831Z" fill="#263238"/>
<path d="M122.651 123.558C122.544 124.417 122.436 125.276 122.114 125.921C121.899 126.565 121.577 127.21 121.255 127.747C120.933 128.284 120.503 128.821 120.073 129.358C119.966 129.466 119.858 129.681 119.751 129.788C119.536 130.003 119.321 130.218 119.106 130.432C118.677 130.755 118.247 131.184 117.71 131.399C117.066 131.829 116.421 132.151 115.777 132.366C115.454 132.473 115.132 132.581 114.81 132.688C114.058 132.903 113.306 132.903 112.554 132.903C112.447 132.903 112.232 132.903 112.124 132.903C111.695 132.903 111.265 132.796 110.943 132.796C110.513 132.688 110.083 132.581 109.654 132.473C109.439 132.366 109.117 132.259 108.902 132.151C108.58 132.044 108.257 131.829 108.042 131.721C107.828 131.614 107.613 131.507 107.505 131.399C105.035 129.573 103.638 126.565 103.853 123.558C104.283 118.294 108.687 114.212 113.95 114.105C118.677 114.105 122.651 117.865 122.651 122.698C122.651 122.913 122.651 123.235 122.651 123.558Z" fill="#4584FF"/>
<path d="M122.114 125.921C121.899 126.566 121.577 127.21 121.255 127.747L121.04 127.425C121.469 126.996 121.792 126.458 122.114 125.921Z" fill="#EBB376"/>
<path d="M122.651 123.666C122.543 124.417 122.436 125.277 122.114 126.029C121.899 126.673 121.577 127.318 121.254 127.855C120.932 128.392 120.502 128.929 120.073 129.466C119.965 129.573 119.858 129.788 119.75 129.896C119.536 130.111 119.321 130.325 119.106 130.54C118.891 129.036 118.784 127.747 118.784 127.747L122.651 123.666Z" fill="#263238"/>
<path opacity="0.6" d="M122.651 123.666C122.543 124.417 122.436 125.277 122.114 126.029C121.899 126.673 121.577 127.318 121.254 127.855C120.932 128.392 120.502 128.929 120.073 129.466C119.965 129.573 119.858 129.788 119.75 129.896C119.536 130.111 119.321 130.325 119.106 130.54C118.891 129.036 118.784 127.747 118.784 127.747L122.651 123.666Z" fill="white"/>
<path d="M118.999 130.54C118.569 130.862 118.14 131.292 117.602 131.507C116.958 131.936 116.313 132.259 115.669 132.473C115.347 132.688 115.024 132.688 114.702 132.796C113.95 133.011 113.198 133.011 112.446 133.011C112.339 133.011 112.124 133.011 112.017 133.011C111.587 133.011 111.157 132.903 110.835 132.903C110.405 132.796 109.976 132.688 109.546 132.581C109.331 132.473 109.009 132.366 108.794 132.259V132.151V131.614L108.687 129.895C109.439 129.895 110.083 129.788 110.835 129.788C111.694 129.681 112.446 129.573 113.198 129.251C113.521 129.144 113.843 129.036 114.165 128.821C114.272 128.714 114.487 128.714 114.595 128.606C115.239 128.606 115.776 128.714 116.313 128.929H116.421C117.388 129.251 118.247 129.788 118.999 130.54Z" fill="#263238"/>
<path opacity="0.4" d="M118.999 130.54C118.569 130.862 118.14 131.292 117.602 131.507C116.958 131.936 116.313 132.259 115.669 132.473C115.347 132.688 115.024 132.688 114.702 132.796C113.95 133.011 113.198 133.011 112.446 133.011C112.339 133.011 112.124 133.011 112.017 133.011C111.587 133.011 111.157 132.903 110.835 132.903C110.405 132.796 109.976 132.688 109.546 132.581C109.331 132.473 109.009 132.366 108.794 132.259V132.151V131.614L108.687 129.895C109.439 129.895 110.083 129.788 110.835 129.788C111.694 129.681 112.446 129.573 113.198 129.251C113.521 129.144 113.843 129.036 114.165 128.821C114.272 128.714 114.487 128.714 114.595 128.606C115.239 128.606 115.776 128.714 116.313 128.929H116.421C117.388 129.251 118.247 129.788 118.999 130.54Z" fill="white"/>
<path d="M119.106 130.432C118.677 130.862 118.247 131.184 117.71 131.399C117.065 131.829 116.421 132.151 115.776 132.366C115.454 132.581 115.132 132.581 114.81 132.688C114.058 132.903 113.306 132.903 112.554 132.903C112.446 132.903 112.232 132.903 112.124 132.903C111.694 132.903 111.265 132.796 110.943 132.796C110.513 132.688 110.083 132.581 109.653 132.473C109.439 132.366 109.116 132.259 108.902 132.151C108.579 132.044 108.257 131.829 108.042 131.722L108.579 131.614C108.687 131.614 108.794 131.614 108.794 131.507C109.224 131.399 109.653 131.292 110.083 131.184C111.05 130.97 111.802 130.647 112.554 130.432C113.198 130.218 113.735 130.003 114.272 129.788L114.38 129.681C114.917 129.466 115.347 129.251 115.776 129.143L115.991 129.036L116.421 128.821L116.743 128.606C117.388 128.284 118.032 127.962 118.677 127.532C118.999 128.284 119.321 129.036 119.536 129.788C119.536 130.11 119.321 130.325 119.106 130.432Z" fill="#263238"/>
<path d="M115.668 132.366C115.346 132.581 115.024 132.581 114.702 132.689C113.842 132.796 112.983 132.689 112.124 132.474C111.801 132.366 111.587 132.259 111.264 132.152C110.727 131.937 110.298 131.614 109.975 131.185C110.298 130.863 110.512 130.54 110.62 130.111C110.727 130.003 110.727 129.788 110.727 129.681C110.942 128.822 110.942 127.855 110.942 126.995C110.942 126.458 110.835 126.029 110.835 125.492C110.835 125.169 110.727 124.955 110.727 124.632C110.727 124.525 110.727 124.31 110.62 124.203L110.835 124.417L111.157 124.632L112.231 125.492L114.379 127.21C114.272 127.533 114.272 127.747 114.165 128.07C114.165 128.284 114.165 128.499 114.165 128.714C114.165 129.036 114.272 129.359 114.379 129.681C114.379 129.681 114.379 129.788 114.487 129.788C114.917 130.325 115.454 130.648 116.098 130.648C116.528 131.292 116.313 132.044 115.668 132.366Z" fill="#EBB376"/>
<path opacity="0.2" d="M111.157 125.921C111.479 127.747 112.768 129.251 114.487 129.788C114.057 129.143 114.165 128.069 114.38 127.21L112.231 125.491C112.124 125.813 111.157 125.599 111.157 125.921Z" fill="black"/>
<path d="M109.976 120.013C110.727 118.08 112.768 117.113 114.702 117.757C115.239 117.972 115.669 118.295 115.991 118.617C116.85 119.154 117.387 120.658 117.173 121.732C117.173 121.947 117.173 122.162 117.173 122.376C117.387 123.021 118.247 123.558 117.602 125.384C116.85 127.64 114.38 128.284 112.768 127.855C112.124 127.747 111.479 127.532 110.942 126.995C110.835 126.888 110.62 126.673 110.513 126.566C109.546 125.384 109.653 123.88 109.438 121.517C109.653 121.087 109.761 120.55 109.976 120.013Z" fill="#EBB376"/>
<path d="M113.735 122.161C113.735 122.376 113.843 122.591 113.95 122.484C114.057 122.484 114.165 122.269 114.165 122.054C114.165 121.839 114.057 121.624 113.95 121.732C113.843 121.732 113.735 121.947 113.735 122.161Z" fill="#263238"/>
<path d="M116.206 122.054C116.206 122.269 116.313 122.484 116.421 122.376C116.528 122.376 116.636 122.161 116.636 121.947C116.636 121.732 116.528 121.517 116.421 121.624C116.313 121.624 116.206 121.839 116.206 122.054Z" fill="#263238"/>
<path d="M115.454 122.162C115.669 122.806 116.098 123.343 116.528 123.88C116.206 124.095 115.884 124.203 115.454 124.095V122.162Z" fill="#D58745"/>
<path d="M112.983 121.302H113.091C113.305 121.087 113.628 120.98 113.95 120.98C114.057 120.98 114.057 120.98 114.057 120.873C114.057 120.765 114.057 120.765 113.95 120.765C113.52 120.765 113.091 120.873 112.876 121.195C112.876 121.195 112.876 121.302 112.983 121.302Z" fill="#263238"/>
<path d="M117.173 121.302C117.28 121.302 117.28 121.195 117.28 121.088C116.958 120.765 116.635 120.658 116.206 120.765C116.098 120.765 116.098 120.873 116.098 120.873C116.098 120.98 116.206 120.98 116.206 120.98C116.528 120.98 116.85 120.98 117.065 121.195C117.065 121.302 117.173 121.302 117.173 121.302Z" fill="#263238"/>
<path d="M116.205 118.724C115.131 118.187 114.916 119.047 114.916 119.047C114.916 119.047 114.272 118.187 113.412 118.295C112.553 118.402 111.371 120.013 111.264 120.228C111.157 120.443 111.586 120.873 111.586 120.873C111.586 120.873 111.264 123.343 111.264 123.988L110.19 125.814C109.223 123.988 108.793 122.054 108.901 120.013C109.116 116.576 115.99 116.683 115.99 116.683L116.205 118.724Z" fill="#263238"/>
<path d="M108.472 124.739C108.794 125.277 109.438 125.599 110.083 125.706C110.942 125.814 111.372 125.062 111.05 124.31C110.835 123.665 110.083 122.699 109.223 122.913C108.579 123.021 108.257 123.665 108.364 124.31C108.364 124.525 108.472 124.632 108.472 124.739Z" fill="#EBB376"/>
<path d="M115.239 124.955C115.024 125.277 114.81 125.706 114.595 126.136H114.38C113.413 125.921 113.091 125.492 112.983 125.062C112.876 124.74 112.983 124.417 113.091 124.095C113.628 124.525 114.272 124.74 114.917 124.955C115.132 124.955 115.239 124.955 115.239 124.955Z" fill="#263238"/>
<path d="M114.917 124.847L114.702 125.169C113.736 124.955 113.198 124.74 112.984 124.31C112.984 124.203 113.091 124.095 113.091 123.988C113.628 124.525 114.273 124.74 114.917 124.847Z" fill="white"/>
<path d="M114.38 126.136C113.413 125.921 113.091 125.492 112.984 125.062C113.306 125.169 113.736 125.277 114.058 125.492C114.165 125.599 114.38 125.814 114.38 126.136Z" fill="#DE5753"/>
<path d="M114.917 119.047C115.132 118.832 115.347 118.617 115.669 118.617C116.206 118.617 116.206 119.906 116.636 120.121C117.173 120.336 117.817 120.443 117.925 119.369C117.925 118.08 117.065 116.898 115.776 116.576C115.024 116.361 114.165 116.361 113.52 116.683C112.983 116.576 112.446 116.576 111.802 116.683C111.05 116.898 110.62 117.435 109.761 119.691C109.439 120.443 109.009 120.55 108.687 121.088C108.364 121.625 107.935 123.128 110.083 122.484C112.231 121.839 113.091 120.55 112.983 119.584C113.198 118.617 114.272 118.51 114.917 119.047Z" fill="#263238"/>
<path d="M112.553 130.433L112.124 132.474L112.016 133.011C111.587 133.011 111.157 132.903 110.835 132.903C110.405 132.796 109.975 132.688 109.546 132.581C109.331 132.474 109.008 132.366 108.794 132.259C108.471 132.151 108.149 131.936 107.934 131.829C107.719 131.722 107.505 131.614 107.397 131.507L108.579 130.755L108.686 129.896L110.727 130.218L112.553 130.433Z" fill="#263238"/>
<path opacity="0.6" d="M112.553 130.433L112.124 132.474L112.016 133.011C111.587 133.011 111.157 132.903 110.835 132.903C110.405 132.796 109.975 132.688 109.546 132.581C109.331 132.474 109.008 132.366 108.794 132.259C108.471 132.151 108.149 131.936 107.934 131.829C107.719 131.722 107.505 131.614 107.397 131.507L108.579 130.755L108.686 129.896L110.62 130.218L112.553 130.433Z" fill="white"/>
<path opacity="0.2" d="M112.554 130.433L111.372 132.151L110.835 132.903C110.405 132.796 109.976 132.688 109.546 132.581L108.794 132.151L108.472 131.936L108.579 129.896L110.62 130.218L112.554 130.433Z" fill="black"/>
<path d="M119.751 129.895C119.536 130.11 119.321 130.325 119.106 130.54C118.677 130.862 118.247 131.292 117.71 131.507C117.065 130.647 116.528 130.003 116.206 129.573L116.099 129.466L115.884 129.251L115.776 129.144C115.776 129.036 115.669 129.036 115.561 128.929L115.454 128.821L114.595 128.606L115.347 128.177L116.528 128.606L118.784 127.747C119.214 128.284 119.643 128.929 120.073 129.573C119.966 129.573 119.858 129.788 119.751 129.895Z" fill="#263238"/>
<path opacity="0.6" d="M119.751 129.895C119.536 130.11 119.321 130.325 119.106 130.54C118.677 130.862 118.247 131.292 117.71 131.507C117.065 130.647 116.528 130.003 116.206 129.573L116.099 129.466L115.884 129.251L115.776 129.144C115.776 129.036 115.669 129.036 115.561 128.929L115.454 128.821L114.595 128.606L115.347 128.177L116.528 128.606L118.784 127.747C119.214 128.284 119.643 128.929 120.073 129.573C119.966 129.573 119.858 129.788 119.751 129.895Z" fill="white"/>
<path opacity="0.2" d="M116.528 128.499L117.495 129.037L115.991 128.822L116.099 129.574L115.454 128.714L114.595 128.499L115.239 128.07L116.528 128.499Z" fill="black"/>
<path d="M112.768 20.9749C112.876 20.9749 113.09 20.9749 113.198 21.0823C114.165 21.9416 113.52 23.0158 112.876 24.09C112.016 25.7012 110.835 27.7422 113.198 30.3202C117.387 34.9391 115.991 38.8062 115.883 38.9136C115.776 39.1284 115.561 39.2358 115.346 39.1284C115.131 39.1284 115.024 38.9136 115.131 38.8061C115.131 38.8061 116.528 35.154 112.553 30.7498C109.868 27.8496 111.264 25.5938 112.124 23.8751C112.768 22.6935 113.09 22.049 112.446 21.5119C112.339 21.4045 112.339 21.1897 112.553 21.0823C112.661 21.0823 112.768 20.9749 112.768 20.9749Z" fill="#407BFF"/>
<path d="M115.668 19.6854L115.776 20.5447L71.3049 27.5269L71.0901 26.7749L92.1439 15.9258L115.668 19.6854Z" fill="#53595B"/>
<path d="M115.776 20.545L94.8294 31.2868L71.3049 27.5271L92.2513 16.678L115.776 20.545Z" fill="#407BFF"/>
<path d="M108.364 31.931C99.2334 32.1458 90.1029 33.7571 81.2946 36.6573C80.865 36.8722 80.3279 36.5499 80.113 36.0128V35.9054L78.7166 27.0972C78.6092 26.5601 78.9315 26.1304 79.3611 26.023C88.2768 23.0153 97.5147 21.404 106.967 21.1892C107.397 21.1892 107.827 21.5115 107.934 21.9411L109.331 30.7494C109.438 31.2864 109.008 31.8235 108.579 31.8235C108.471 31.931 108.364 31.931 108.364 31.931Z" fill="#407BFF"/>
<path opacity="0.3" d="M108.364 31.931C99.2334 32.1458 90.1029 33.7571 81.2946 36.6573C80.865 36.8722 80.3279 36.5499 80.113 36.0128V35.9054L78.7166 27.0972C78.6092 26.5601 78.9315 26.1304 79.3611 26.023C88.2768 23.0153 97.5147 21.404 106.967 21.1892C107.397 21.1892 107.827 21.5115 107.934 21.9411L109.331 30.7494C109.438 31.2864 109.008 31.8235 108.579 31.8235C108.471 31.931 108.364 31.931 108.364 31.931Z" fill="#263238"/>
</g>
<defs>
<clipPath id="clip0_15589_17371">
<rect x="10" y="10" width="200" height="140" rx="8" fill="white"/>
</clipPath>
</defs>
</svg>
