<svg xmlns="http://www.w3.org/2000/svg" fill="#4E4E4E" viewBox="0 0 20 21">
  <path d="M15 19.051a3.333 3.333 0 0 1-3.333-3.333V14.05H8.333v1.667A3.334 3.334 0 1 1 5 12.384h1.667V9.051H5a3.333 3.333 0 1 1 3.333-3.333v1.667h3.334V5.718A3.334 3.334 0 1 1 15 9.05h-1.667v3.333H15a3.333 3.333 0 0 1 0 6.667Zm-1.667-5v1.667A1.667 1.667 0 1 0 15 14.05h-1.667Zm-8.333 0a1.666 1.666 0 1 0 1.667 1.667V14.05H5Zm3.333-1.667h3.334V9.051H8.333v3.333Zm5-5H15a1.666 1.666 0 1 0-1.667-1.666v1.667ZM5 4.052a1.667 1.667 0 1 0 0 3.334h1.667V5.718A1.667 1.667 0 0 0 5 4.05Z"/>
</svg>
