<svg xmlns="http://www.w3.org/2000/svg" fill="#000" viewBox="0 0 24 24" width="24" height="24">
  <path fill-rule="evenodd" d="M6.201 5.271a.94.94 0 0 1 0 1.31c-3.183 3.25-3.183 8.589 0 11.838a.94.94 0 0 1 0 1.31.894.894 0 0 1-1.282 0c-3.892-3.973-3.892-10.485 0-14.458a.894.894 0 0 1 1.282 0Z" clip-rule="evenodd"/>
  <path fill-rule="evenodd" d="M8.818 7.85a.94.94 0 0 1 .027 1.31c-1.757 1.871-1.738 4.814-.013 6.574a.94.94 0 0 1 0 1.31.894.894 0 0 1-1.283 0c-2.448-2.5-2.428-6.594-.013-9.166a.894.894 0 0 1 1.282-.028ZM12 11.574c-.5 0-.907.415-.907.926 0 .511.406.926.907.926.5 0 .907-.415.907-.926a.917.917 0 0 0-.907-.926Zm-2.721.926c0-1.534 1.218-2.778 2.721-2.778 1.503 0 2.721 1.244 2.721 2.778S13.503 15.278 12 15.278c-1.503 0-2.721-1.244-2.721-2.778Zm5.889-4.544a.894.894 0 0 1 1.283 0c2.448 2.5 2.428 6.594.013 9.166a.894.894 0 0 1-1.282.028.94.94 0 0 1-.027-1.31c1.757-1.871 1.738-4.814.013-6.574a.94.94 0 0 1 0-1.31Z" clip-rule="evenodd"/>
  <path fill-rule="evenodd" d="M17.799 5.271a.894.894 0 0 1 1.282 0c3.892 3.973 3.892 10.393 0 14.365a.894.894 0 0 1-1.282 0 .94.94 0 0 1 0-1.31c3.183-3.249 3.183-8.496 0-11.745a.94.94 0 0 1 0-1.31Z" clip-rule="evenodd"/>
</svg>
