<svg xmlns="http://www.w3.org/2000/svg" fill="#000" viewBox="0 0 24 24" width="24" height="24">
  <path fill-rule="evenodd" d="M4.781 2.799A2.637 2.637 0 0 1 6.667 2h8a.88.88 0 0 1 .628.266l4.445 4.546a.92.92 0 0 1 .26.643v11.818a2.76 2.76 0 0 1-.781 1.928c-.5.512-1.178.799-1.886.799H6.667a2.637 2.637 0 0 1-1.886-.799A2.76 2.76 0 0 1 4 19.273V4.727c0-.723.28-1.417.781-1.928Zm1.886 1.02a.879.879 0 0 0-.629.265.92.92 0 0 0-.26.643v14.546a.92.92 0 0 0 .26.643.88.88 0 0 0 .629.266h10.666a.88.88 0 0 0 .629-.266.92.92 0 0 0 .26-.643V7.83l-3.924-4.013h-7.63Z" clip-rule="evenodd"/>
  <path fill-rule="evenodd" d="M13.778 2a.9.9 0 0 1 .889.91v3.635a.92.92 0 0 0 .26.643c.167.17.393.267.629.267h3.555a.9.9 0 0 1 .889.909.9.9 0 0 1-.889.909h-3.555a2.637 2.637 0 0 1-1.886-.8 2.759 2.759 0 0 1-.781-1.928V2.91a.9.9 0 0 1 .889-.91ZM7.556 9.273a.9.9 0 0 1 .888-.91h1.778a.9.9 0 0 1 .89.91.9.9 0 0 1-.89.909H8.444a.9.9 0 0 1-.888-.91Zm0 3.637a.9.9 0 0 1 .888-.91h7.112a.9.9 0 0 1 .888.91.9.9 0 0 1-.888.908H8.444a.9.9 0 0 1-.888-.909Zm0 3.636a.9.9 0 0 1 .888-.91h7.112a.9.9 0 0 1 .888.91.9.9 0 0 1-.888.909H8.444a.9.9 0 0 1-.888-.91Z" clip-rule="evenodd"/>
</svg>
