<svg xmlns="http://www.w3.org/2000/svg" viewBox="0 0 24 24">
  <path d="M9.143 2a.857.857 0 1 1 1.714 0v5.93l1.537-1.537.065-.058a.857.857 0 0 1 1.147.058l1.537 1.537V2a.857.857 0 1 1 1.714 0v8a.857.857 0 0 1-1.463.605L13 8.211l-2.394 2.394A.857.857 0 0 1 9.143 10V2Z"/>
  <path d="M19.143 3A.144.144 0 0 0 19 2.857H6.5A1.643 1.643 0 0 0 4.857 4.5v12.072a3.358 3.358 0 0 1 1.643-.43h12.643V3ZM4.866 19.662a1.642 1.642 0 0 0 1.634 1.48H19a.144.144 0 0 0 .143-.142v-3.143H6.5A1.643 1.643 0 0 0 4.857 19.5l.009.162ZM20.857 21A1.858 1.858 0 0 1 19 22.857H6.5a3.358 3.358 0 0 1-3.353-3.19l-.004-.167v-15A3.357 3.357 0 0 1 6.5 1.143H19A1.858 1.858 0 0 1 20.857 3v18Z"/>
</svg>
