<svg xmlns="http://www.w3.org/2000/svg" fill="#000" viewBox="0 0 24 24">
  <path fill-rule="evenodd" d="M12 6.6c.502 0 .91.403.91.9v12.6c0 .497-.408.9-.91.9a.905.905 0 0 1-.91-.9V7.5c0-.497.408-.9.91-.9Zm9.734 2.964a.894.894 0 0 1 0 1.272l-3.637 3.6a.916.916 0 0 1-1.285 0l-1.819-1.8a.894.894 0 0 1 0-1.272.916.916 0 0 1 1.286 0l1.175 1.163 2.994-2.963a.916.916 0 0 1 1.286 0Z" clip-rule="evenodd"/>
  <path fill-rule="evenodd" d="M2.533 3.527A1.828 1.828 0 0 1 3.818 3h4.546A4.57 4.57 0 0 1 12 4.8 4.569 4.569 0 0 1 15.636 3h4.546c.482 0 .945.19 1.286.527.34.338.532.796.532 1.273v1.8c0 .497-.407.9-.91.9a.905.905 0 0 1-.908-.9V4.8h-4.546a2.74 2.74 0 0 0-1.928.79 2.686 2.686 0 0 0-.799 1.91c0 .497-.407.9-.909.9a.905.905 0 0 1-.91-.9c0-.716-.286-1.403-.798-1.91a2.741 2.741 0 0 0-1.928-.79H3.818v11.7h5.455A3.655 3.655 0 0 1 12 17.719a3.655 3.655 0 0 1 2.727-1.219h5.455v-1.17c0-.497.407-.9.909-.9s.909.403.909.9v1.17c0 .477-.192.935-.532 1.273a1.828 1.828 0 0 1-1.286.527h-5.455c-.482 0-.944.19-1.285.527a1.79 1.79 0 0 0-.533 1.273c0 .497-.407.9-.909.9a.905.905 0 0 1-.91-.9 1.79 1.79 0 0 0-.532-1.273 1.827 1.827 0 0 0-1.285-.527H3.818c-.482 0-.944-.19-1.285-.527A1.791 1.791 0 0 1 2 16.5V4.8c0-.477.192-.935.533-1.273Z" clip-rule="evenodd"/>
</svg>
