<svg width="20" height="20" viewBox="0 0 20 20" fill="none" xmlns="http://www.w3.org/2000/svg">
<path d="M3.33366 7.33362H16.6667C17.219 7.33362 17.6667 7.78133 17.6667 8.33362V16.6666C17.6667 17.2189 17.219 17.6666 16.6667 17.6666H3.33366C2.78138 17.6666 2.33366 17.2189 2.33366 16.6666V8.33362C2.33366 7.78133 2.78138 7.33362 3.33366 7.33362Z" stroke="#4584FF" stroke-width="1.33333" stroke-linecap="round" stroke-linejoin="round"/>
<path d="M8.42593 11.0509C8.55289 10.7005 8.80347 10.4051 9.1333 10.2169C9.46312 10.0286 9.85091 9.95985 10.228 10.0226C10.605 10.0854 10.9471 10.2758 11.1934 10.56C11.4398 10.8441 11.5747 11.2038 11.5741 11.5752C11.5741 12.6238 9.95411 13.1481 9.95411 13.1481" stroke="#4584FF" stroke-width="1.33333" stroke-linecap="round" stroke-linejoin="round"/>
<path d="M10 15H10.0057" stroke="#4584FF" stroke-width="1.33333" stroke-linecap="round" stroke-linejoin="round"/>
<path d="M6.85185 2.5L13.1481 2.5" stroke="#4584FF" stroke-width="1.33333" stroke-linecap="round"/>
<path d="M4.49074 4.86108L15.5093 4.86108" stroke="#4584FF" stroke-width="1.33333" stroke-linecap="round"/>
</svg>
