<svg xmlns="http://www.w3.org/2000/svg" fill="#000" viewBox="0 0 24 24" width="24" height="24">
  <path fill-rule="evenodd" d="M9.333 2.91a.9.9 0 0 1 .89-.91h3.555a.9.9 0 0 1 .889.91.9.9 0 0 1-.89.908h-3.555a.9.9 0 0 1-.889-.909Zm5.962 7.538a.924.924 0 0 1 0 1.286L12.63 14.46a.875.875 0 0 1-1.258 0 .924.924 0 0 1 0-1.286l2.667-2.727a.875.875 0 0 1 1.257 0Z" clip-rule="evenodd"/>
  <path fill-rule="evenodd" d="M12 7.455c-3.436 0-6.222 2.849-6.222 6.363 0 3.515 2.786 6.364 6.222 6.364 3.436 0 6.222-2.85 6.222-6.364S15.436 7.455 12 7.455Zm-8 6.363C4 9.3 7.582 5.636 12 5.636s8 3.663 8 8.182S16.418 22 12 22s-8-3.663-8-8.182Z" clip-rule="evenodd"/>
</svg>
