<svg xmlns="http://www.w3.org/2000/svg" fill="#000" viewBox="0 0 24 24">
  <path fill-rule="evenodd" d="M14.7 2c.497 0 .9.407.9.91v3.635c0 .242.095.473.264.643.168.17.397.267.636.267h3.6c.497 0 .9.407.9.909s-.403.909-.9.909h-3.6a2.686 2.686 0 0 1-1.909-.8 2.741 2.741 0 0 1-.79-1.928V2.91c0-.502.402-.909.9-.909Z" clip-rule="evenodd"/>
  <path fill-rule="evenodd" d="M5.591 2.799A2.686 2.686 0 0 1 7.501 2h8.1c.238 0 .467.096.635.266l4.5 4.546c.17.17.264.401.264.643v11.818c0 .723-.285 1.417-.79 1.928A2.686 2.686 0 0 1 18.3 22h-1.8a.905.905 0 0 1-.9-.91c0-.501.403-.908.9-.908h1.8a.896.896 0 0 0 .636-.266.914.914 0 0 0 .264-.643V7.83l-3.973-4.013H7.5a.895.895 0 0 0-.636.266.914.914 0 0 0-.264.643V7.91c0 .502-.403.91-.9.91a.905.905 0 0 1-.9-.91V4.727c0-.723.285-1.417.791-1.928Z" clip-rule="evenodd"/>
  <path fill-rule="evenodd" d="M6.389 10.953c.33.376.296.95-.076 1.283-.459.412-.83.913-1.09 1.474a4.584 4.584 0 0 0 .893 5.139c.434.438.951.782 1.521 1.01a4.46 4.46 0 0 0 3.565-.104 4.502 4.502 0 0 0 1.46-1.098.894.894 0 0 1 1.271-.075.916.916 0 0 1 .074 1.283 6.305 6.305 0 0 1-2.044 1.538 6.248 6.248 0 0 1-7.12-1.27 6.37 6.37 0 0 1-1.4-2.152 6.421 6.421 0 0 1 .15-5.041 6.36 6.36 0 0 1 1.525-2.064.894.894 0 0 1 1.27.077Z" clip-rule="evenodd"/>
  <path fill-rule="evenodd" d="M10.2 11.183v3.544h3.51a4.56 4.56 0 0 0-1.228-2.305 4.487 4.487 0 0 0-2.282-1.24Zm3.601 3.544Zm-5.4-3.636c0-.954.802-1.923 1.943-1.73h.001c1.292.22 2.484.84 3.41 1.775a6.387 6.387 0 0 1 1.758 3.445c.19 1.152-.768 1.965-1.713 1.965h-3.6a1.79 1.79 0 0 1-1.273-.533 1.827 1.827 0 0 1-.527-1.286v-3.636Z" clip-rule="evenodd"/>
</svg>
