<svg xmlns="http://www.w3.org/2000/svg" fill="#000" viewBox="0 0 24 24">
  <path fill-rule="evenodd" d="M3 6.545c0-.502.403-.909.9-.909h16.2c.497 0 .9.407.9.91a.905.905 0 0 1-.9.909H3.9a.905.905 0 0 1-.9-.91Z" clip-rule="evenodd"/>
  <path fill-rule="evenodd" d="M5.7 5.636c.497 0 .9.407.9.91v12.727c0 .159.088.394.299.607.211.213.444.302.601.302h9c.157 0 .39-.089.601-.302.211-.213.299-.448.299-.607V6.545c0-.502.403-.909.9-.909s.9.407.9.91v12.727c0 .75-.362 1.424-.826 1.893-.464.468-1.131.834-1.874.834h-9c-.743 0-1.41-.366-1.874-.834-.464-.469-.826-1.143-.826-1.893V6.545c0-.502.403-.909.9-.909Z" clip-rule="evenodd"/>
  <path fill-rule="evenodd" d="M9.599 4.12c-.211.213-.299.448-.299.607v1.818c0 .503-.403.91-.9.91a.905.905 0 0 1-.9-.91V4.727c0-.75.362-1.424.826-1.893C8.79 2.366 9.457 2 10.2 2h3.6c.743 0 1.41.366 1.874.834.464.469.826 1.143.826 1.893v1.818c0 .503-.403.91-.9.91a.905.905 0 0 1-.9-.91V4.727c0-.159-.088-.394-.299-.607-.211-.213-.444-.302-.601-.302h-3.6c-.157 0-.39.089-.601.302Zm.601 6.062c.497 0 .9.407.9.909v5.455a.905.905 0 0 1-.9.909.905.905 0 0 1-.9-.91v-5.454c0-.502.403-.91.9-.91Zm3.6 0c.497 0 .9.407.9.909v5.455a.905.905 0 0 1-.9.909.905.905 0 0 1-.9-.91v-5.454c0-.502.403-.91.9-.91Z" clip-rule="evenodd"/>
</svg>
