<svg xmlns="http://www.w3.org/2000/svg" viewBox="0 0 18 18">
  <path fill-rule="evenodd" d="M1.098 11.598A3.75 3.75 0 0 1 3.75 10.5h6a3.75 3.75 0 0 1 3.75 3.75v1.5a.75.75 0 0 1-1.5 0v-1.5A2.25 2.25 0 0 0 9.75 12h-6a2.25 2.25 0 0 0-2.25 2.25v1.5a.75.75 0 0 1-1.5 0v-1.5a3.75 3.75 0 0 1 1.098-2.652ZM6.75 3a2.25 2.25 0 1 0 0 4.5 2.25 2.25 0 0 0 0-4.5ZM3 5.25a3.75 3.75 0 1 1 7.5 0 3.75 3.75 0 0 1-7.5 0Zm11.274 5.91a.75.75 0 0 1 .914-.539A3.75 3.75 0 0 1 18 14.25v1.501a.75.75 0 0 1-1.5 0v-1.5a2.25 2.25 0 0 0-1.688-2.176.75.75 0 0 1-.538-.914Zm-3.001-8.999a.75.75 0 0 1 .913-.54 3.75 3.75 0 0 1 0 7.266.75.75 0 0 1-.372-1.454 2.25 2.25 0 0 0 0-4.359.75.75 0 0 1-.54-.913Z" clip-rule="evenodd"/>
</svg>
