<svg xmlns="http://www.w3.org/2000/svg" fill="#000" viewBox="0 0 24 24" width="24" height="24">
  <path fill-rule="evenodd" d="M20.632 7.272a1.35 1.35 0 0 1 1.184.695c.12.212.184.453.184.698v7.61c0 .253-.067.5-.194.716a1.377 1.377 0 0 1-.526.512 1.34 1.34 0 0 1-1.4-.068L15.133 14.2a.94.94 0 0 1-.252-1.287.897.897 0 0 1 1.26-.258l4.042 2.752V9.473l-4.087 2.436a.899.899 0 0 1-1.244-.334.94.94 0 0 1 .327-1.27l4.771-2.843a1.33 1.33 0 0 1 .683-.19Z" clip-rule="evenodd"/>
  <path fill-rule="evenodd" d="M4.727 7.857a.919.919 0 0 0-.909.929v7.428a.92.92 0 0 0 .91.929h9.09a.92.92 0 0 0 .91-.929V8.786a.919.919 0 0 0-.91-.929h-9.09ZM2 8.786C2 7.247 3.221 6 4.727 6h9.091c1.506 0 2.728 1.247 2.728 2.786v7.428c0 1.539-1.222 2.786-2.728 2.786h-9.09C3.22 19 2 17.753 2 16.214V8.786Z" clip-rule="evenodd"/>
</svg>
