<svg xmlns="http://www.w3.org/2000/svg" viewBox="0 0 24 24">
  <path d="M21 13V8a1 1 0 0 0-1-1H4a1 1 0 0 0-1 1v8a1 1 0 0 0 1 1h8a1 1 0 1 1 0 2H4a3 3 0 0 1-3-3V8a3 3 0 0 1 3-3h16a3 3 0 0 1 3 3v5a1 1 0 1 1-2 0Zm.293 5.293a1 1 0 1 1 1.414 1.414l-3 3a1 1 0 0 1-1.414 0l-3-3a1 1 0 1 1 1.414-1.414L19 20.586l2.293-2.293Z"/>
  <path d="M18.01 11a1 1 0 1 1 0 2H18a1 1 0 1 1 0-2h.01ZM18 22v-6a1 1 0 1 1 2 0v6a1 1 0 1 1-2 0ZM6.01 11a1 1 0 1 1 0 2H6a1 1 0 1 1 0-2h.01ZM13 12a1 1 0 1 0-2 0 1 1 0 0 0 2 0Zm2 0a3 3 0 1 1-6 0 3 3 0 0 1 6 0Z"/>
</svg>
