<svg xmlns="http://www.w3.org/2000/svg" viewBox="0 0 24 24">
  <path d="M1.84 14.551a.858.858 0 0 1 1.46.899 3.073 3.073 0 0 0-.443 1.556 3.143 3.143 0 0 0 5.916 1.472l.006-.012c.555-1.004 1.624-2.343 3.231-2.343H18a.858.858 0 0 1 0 1.714h-5.99c-.59 0-1.22.537-1.724 1.446A4.858 4.858 0 0 1 1.143 17v-.013c.012-.843.24-1.696.697-2.437Z"/>
  <path d="M11.376 1.186a4.86 4.86 0 0 1 4.894 2.459.857.857 0 0 1-1.5.831 3.142 3.142 0 1 0-5.414 3.19c.334.514.642 1.14.786 1.806.146.676.131 1.445-.26 2.16l-3.129 5.777a.857.857 0 1 1-1.506-.817l3.13-5.78.001-.002c.14-.255.175-.577.088-.978-.088-.406-.292-.84-.554-1.243l-.009-.014a4.859 4.859 0 0 1 3.473-7.39Z"/>
  <path d="M21.143 17A3.144 3.144 0 0 0 18 13.858c-1.156 0-2.85-.303-3.622-1.717l-3.13-5.73a.858.858 0 0 1 1.505-.821l3.128 5.73c.288.525 1.075.824 2.119.824a4.857 4.857 0 1 1 0 9.714.857.857 0 1 1 0-1.715A3.143 3.143 0 0 0 21.143 17Z"/>
</svg>
