<svg xmlns="http://www.w3.org/2000/svg" viewBox="0 0 24 24">
  <path d="M14.975 3.169A6.49 6.49 0 0 1 23 9.5c0 2.746-1.807 4.722-3.293 6.208l-.012.011-5.492 5.314a3.01 3.01 0 0 1-.952.694 3.002 3.002 0 0 1-3.438-.677l-5.51-5.33-.01-.012C2.808 14.223 1 12.256 1 9.5a6.5 6.5 0 0 1 10.998-4.692 6.49 6.49 0 0 1 2.977-1.64ZM3 9.5c0 1.84 1.186 3.271 2.695 4.782l5.509 5.332.05.052a1 1 0 0 0 1.5-.009l.059-.062 5.491-5.313C19.813 12.772 21 11.33 21 9.5v-.004a4.491 4.491 0 0 0-5.552-4.384 4.491 4.491 0 0 0-2.292 1.378l-.016.017a1.563 1.563 0 0 1-2.292-.014 4.503 4.503 0 0 0-7.056.457A4.501 4.501 0 0 0 3 9.5Z"/>
</svg>
