<svg xmlns="http://www.w3.org/2000/svg" viewBox="0 0 24 24">
  <path d="M19 6c-2.32 0-5.03-1.337-6.89-2.96l-.051-.03a.17.17 0 0 0-.168.028C10.042 4.65 7.321 6 5 6v7c0 2.236.771 3.862 1.987 5.107 1.088 1.114 2.566 1.958 4.267 2.617l.743.27.022.009c2.005-.7 3.754-1.622 4.995-2.895C18.229 16.861 19 15.236 19 13V6Zm2 7c0 2.764-.98 4.888-2.554 6.504-1.548 1.587-3.625 2.64-5.777 3.39l-.008.004c-.435.147-.91.14-1.34-.02v-.003c-2.15-.744-4.221-1.79-5.765-3.371C3.98 17.889 3 15.764 3 13V6a2 2 0 0 1 2-2c1.676 0 3.952-1.048 5.582-2.473l.009-.008a2.17 2.17 0 0 1 2.667-.118l.152.12.008.006C15.058 2.961 17.323 4 19 4a2 2 0 0 1 2 2v7Z"/>
  <path d="M14.293 9.293a.999.999 0 1 1 1.414 1.414l-4 4a1 1 0 0 1-1.414 0l-2-2a1 1 0 0 1 1.414-1.414l1.292 1.292 3.294-3.292Z"/>
</svg>
